STARTFONT 2.1
COMMENT
COMMENT Converted from OpenType font "truongsa_regular.ttf" by "otf2bdf 3.0".
COMMENT
FONT -FreeType-VPS Truong Sa Light Hoa-Medium-R-Normal--66-480-100-100-P-335-ISO10646-1
SIZE 48 100 100
FONTBOUNDINGBOX 62 92 -1 -16
STARTPROPERTIES 19
FOUNDRY "FreeType"
FAMILY_NAME "VPS Truong Sa Light Hoa"
WEIGHT_NAME "Medium"
SLANT "R"
SETWIDTH_NAME "Normal"
ADD_STYLE_NAME ""
PIXEL_SIZE 66
POINT_SIZE 480
RESOLUTION_X 100
RESOLUTION_Y 100
SPACING "P"
AVERAGE_WIDTH 335
CHARSET_REGISTRY "ISO10646"
CHARSET_ENCODING "1"
FONT_ASCENT 64
FONT_DESCENT 15
COPYRIGHT "VPS Font"
_OTF_FONTFILE "truongsa_regular.ttf"
_OTF_PSNAME "VPS Truong Sa Light Hoa"
ENDPROPERTIES
CHARS 270
STARTCHAR 0002
ENCODING 2
SWIDTH 645 0
DWIDTH 43 0
BBX 45 59 -1 -10
BITMAP
000003000000
000007800000
00000F800000
00001FC00000
00001FE00000
00003FE00000
00003FF00000
00007FF00000
00007FF80000
0000F9F80000
0000F9FC0000
0001F0FC0000
0001F0FE0000
0001E07E0000
0003E07F0000
0003C03F0000
0007C03F0000
0007801F8000
000F801F8000
000F001FC000
000F000FC000
001F000FE000
001E0007E000
003E0007E000
003C0007F000
003C0003F000
007C0003F000
00780003F800
00FFFFFFF800
00FFFFFFFC00
00FFFFFFFC00
01FFFFFFFC00
01F00000FE00
01E000007E00
03E000007E00
03E000007F00
03C000003F00
07C000003F00
07C000003F00
078000001F80
0F8000001F80
0F8000001F80
1F8000000FC0
1F8000000FC0
1F8000000FE0
3FC000003FF0
7FF000007FF8
FFF00000FFF8
7FF000007FF8
000000000000
000000000000
000000000000
00001C000000
00003F000000
00007F000000
00007F000000
00007F000000
00003F000000
00001E000000
ENDCHAR
STARTCHAR 0003
ENCODING 3
SWIDTH 645 0
DWIDTH 43 0
BBX 45 74 -1 -10
BITMAP
000007800000
00000FC00000
00001FE00000
00001FE00000
00003FF00000
00007CF80000
000078780000
0000E01C0000
0001C00E0000
000180060000
000300030000
000000000000
000000000000
000000000000
000000000000
000003000000
000007800000
00000F800000
00001FC00000
00001FE00000
00003FE00000
00003FF00000
00007FF00000
00007FF80000
0000F9F80000
0000F9FC0000
0001F0FC0000
0001F0FE0000
0001E07E0000
0003E07F0000
0003C03F0000
0007C03F0000
0007801F8000
000F801F8000
000F001FC000
000F000FC000
001F000FE000
001E0007E000
003E0007E000
003C0007F000
003C0003F000
007C0003F000
00780003F800
00FFFFFFF800
00FFFFFFFC00
00FFFFFFFC00
01FFFFFFFC00
01F00000FE00
01E000007E00
03E000007E00
03E000007F00
03C000003F00
07C000003F00
07C000003F00
078000001F80
0F8000001F80
0F8000001F80
1F8000000FC0
1F8000000FC0
1F8000000FE0
3FC000003FF0
7FF000007FF8
FFF00000FFF8
7FF000007FF8
000000000000
000000000000
000000000000
00001C000000
00003F000000
00007F000000
00007F000000
00007F000000
00003F000000
00001E000000
ENDCHAR
STARTCHAR 0004
ENCODING 4
SWIDTH 645 0
DWIDTH 43 0
BBX 45 71 -1 -10
BITMAP
000600040000
000200040000
0003000C0000
0003801C0000
0001FFF80000
0000FFF00000
00007FE00000
00003FC00000
000000000000
000000000000
000000000000
000000000000
000003000000
000007800000
00000F800000
00001FC00000
00001FE00000
00003FE00000
00003FF00000
00007FF00000
00007FF80000
0000F9F80000
0000F9FC0000
0001F0FC0000
0001F0FE0000
0001E07E0000
0003E07F0000
0003C03F0000
0007C03F0000
0007801F8000
000F801F8000
000F001FC000
000F000FC000
001F000FE000
001E0007E000
003E0007E000
003C0007F000
003C0003F000
007C0003F000
00780003F800
00FFFFFFF800
00FFFFFFFC00
00FFFFFFFC00
01FFFFFFFC00
01F00000FE00
01E000007E00
03E000007E00
03E000007F00
03C000003F00
07C000003F00
07C000003F00
078000001F80
0F8000001F80
0F8000001F80
1F8000000FC0
1F8000000FC0
1F8000000FE0
3FC000003FF0
7FF000007FF8
FFF00000FFF8
7FF000007FF8
000000000000
000000000000
000000000000
00001C000000
00003F000000
00007F000000
00007F000000
00007F000000
00003F000000
00001E000000
ENDCHAR
STARTCHAR 0005
ENCODING 5
SWIDTH 615 0
DWIDTH 41 0
BBX 38 58 2 -10
BITMAP
FFFFFFFFE0
FFFFFFFFF0
7FFFFFFFF0
3FFFDFFFF0
0FE00007F0
0FC00001F0
0FC0000070
0FC0000030
0FC0000000
0FC0000000
0FC0000000
0FC0000000
0FC0000000
0FC0000000
0FC0000000
0FC0000000
0FC0000000
0FC0000000
0FC0000E00
0FC0001E00
0FFFFFFE00
0FFFFFFE00
0FFFFFFE00
0FFFFFFE00
0FC0000E00
0FC0000400
0FC0000000
0FC0000000
0FC0000000
0FC0000000
0FC0000000
0FC0000000
0FC0000000
0FC0000000
0FC0000000
0FC0000000
0FC0000000
0FC0000000
0FC0000000
0FC000000C
0FC000001C
0FC000003C
0FC00000FC
1FE00007FC
3FFFFFFFFC
7FFFFFFFFC
FFFFFFFFF8
7FFFFFFFF0
0000000000
0000000000
0000000000
0000E00000
0001F80000
0003F80000
0003F80000
0003F80000
0001F80000
0000F00000
ENDCHAR
STARTCHAR 0006
ENCODING 6
SWIDTH 615 0
DWIDTH 41 0
BBX 38 75 2 -11
BITMAP
00007C0000
00007E0000
0000FE0000
0001FF0000
0001FF8000
0003C78000
000783C000
000701E000
000E00E000
001C007000
0018001800
0000000000
0000000000
0000000000
0000000000
0000000000
FFFFFFFFE0
FFFFFFFFF0
7FFFFFFFF0
3FFFDFFFF0
0FE00007F0
0FC00001F0
0FC0000070
0FC0000030
0FC0000000
0FC0000000
0FC0000000
0FC0000000
0FC0000000
0FC0000000
0FC0000000
0FC0000000
0FC0000000
0FC0000000
0FC0000E00
0FC0001E00
0FFFFFFE00
0FFFFFFE00
0FFFFFFE00
0FFFFFFE00
0FC0000E00
0FC0000400
0FC0000000
0FC0000000
0FC0000000
0FC0000000
0FC0000000
0FC0000000
0FC0000000
0FC0000000
0FC0000000
0FC0000000
0FC0000000
0FC0000000
0FC0000000
0FC000000C
0FC000001C
0FC000003C
0FC00000FC
1FE00007FC
3FFFFFFFFC
7FFFFFFFFC
FFFFFFFFF8
7FFFFFFFF0
0000000000
0000000000
0000000000
0000000000
0000380000
00007E0000
0000FE0000
0000FE0000
0000FE0000
00007E0000
00003C0000
ENDCHAR
STARTCHAR 0015
ENCODING 21
SWIDTH 705 0
DWIDTH 47 0
BBX 48 72 2 -12
BITMAP
0000000000F8
00000000038E
000000000386
000000000103
000000000003
000000000003
000000000007
000000000006
00000000001E
0000000000FC
0000000001F0
000000000100
FFF80003FFE0
FFFC0003FFE0
FFF80001FFE0
3FF00000FF80
1FC000003F00
1FC000001F00
1FC000001F00
1F8000001F00
1F8000001F00
1F8000001F00
1F8000001F00
1F8000001F00
1F8000001F00
1F8000001F00
1F8000001F00
1F0000000F00
1F0000000F00
1F0000000F00
1F0000000F00
1F0000000F00
3F0000000F00
3F0000000F00
3F0000000F80
3F0000000F80
3F0000000F80
3F0000000F80
3F0000000F80
3F0000000F80
3F0000000F80
3F0000000F80
3F0000000F80
3F0000000F80
1F0000000F00
1F0000001F00
1F8000001F00
1F8000001F00
1F8000001F00
1F8000003E00
0FC000003E00
0FC000003E00
07E000007C00
07F00000FC00
03F80001F800
03FC0003F000
01FF001FE000
00FFFFFFC000
003FFFFF8000
001FFFFE0000
0003FFF00000
000000000000
000000000000
000000000000
000000000000
00001F000000
00001F800000
00003F800000
00003F800000
00003F800000
00001F800000
00000E000000
ENDCHAR
STARTCHAR 0019
ENCODING 25
SWIDTH 645 0
DWIDTH 43 0
BBX 45 59 -1 -11
BITMAP
FFFC00007FF8
FFFC00007FF8
FFF800007FF0
3FE000001FE0
0FE000000FC0
0FE000000F80
07E000000F80
07F000001F00
03F000001E00
01F800003E00
01FC00003C00
00FC00007800
00FE00007800
007F0000F000
003F0001E000
003F8001E000
001FC003C000
000FE0078000
000FE00F8000
0007F00F0000
0003F81E0000
0001FC3E0000
0001FC3C0000
0000FE780000
00007FF00000
00003FF00000
00003FE00000
00001FC00000
00001FC00000
00000FC00000
00000FC00000
00000FC00000
00000FC00000
00000FC00000
00000FC00000
00000FC00000
00000FC00000
00000FC00000
00000FC00000
00000FC00000
00000FC00000
00000FC00000
00000FC00000
00001FC00000
00003FF00000
00007FF80000
0000FFFC0000
0000FFF80000
000000000000
000000000000
000000000000
000000000000
000007C00000
00000FC00000
00000FE00000
00000FE00000
00000FE00000
00000FC00000
000003800000
ENDCHAR
STARTCHAR 001C
ENCODING 28
SWIDTH 645 0
DWIDTH 43 0
BBX 45 73 -1 0
BITMAP
000000030000
000008030000
00007F870000
0000FFFE0000
0001FFFE0000
0003DFFC0000
000301F00000
000300000000
000000000000
000007800000
00000FC00000
00001FE00000
00001FE00000
00003FF00000
00007CF80000
000078780000
0000E01C0000
0001C00E0000
000180060000
000300030000
000000000000
000000000000
000000000000
000000000000
000003000000
000007800000
00000F800000
00001FC00000
00001FE00000
00003FE00000
00003FF00000
00007FF00000
00007FF80000
0000F9F80000
0000F9FC0000
0001F0FC0000
0001F0FE0000
0001E07E0000
0003E07F0000
0003C03F0000
0007C03F0000
0007801F8000
000F801F8000
000F001FC000
000F000FC000
001F000FE000
001E0007E000
003E0007E000
003C0007F000
003C0003F000
007C0003F000
00780003F800
00FFFFFFF800
00FFFFFFFC00
00FFFFFFFC00
01FFFFFFFC00
01F00000FE00
01E000007E00
03E000007E00
03E000007F00
03C000003F00
07C000003F00
07C000003F00
078000001F80
0F8000001F80
0F8000001F80
1F8000000FC0
1F8000000FC0
1F8000000FE0
3FC000003FF0
7FF000007FF8
FFF00000FFF8
7FF000007FF8
ENDCHAR
STARTCHAR 001D
ENCODING 29
SWIDTH 705 0
DWIDTH 47 0
BBX 48 74 2 -1
BITMAP
000000018000
00003F838000
00007FFF0000
0000FFFF0000
0001FFFE0000
000181FC0000
000180000000
000100000000
000000000000
000000000000
000000000000
000000000000
000000000000
0000000000F8
00000000038E
000000000386
000000000103
000000000003
000000000003
000000000007
000000000006
00000000001E
0000000000FC
0000000001F0
000000000100
FFF80003FFE0
FFFC0003FFE0
FFF80001FFE0
3FF00000FF80
1FC000003F00
1FC000001F00
1FC000001F00
1F8000001F00
1F8000001F00
1F8000001F00
1F8000001F00
1F8000001F00
1F8000001F00
1F8000001F00
1F8000001F00
1F0000000F00
1F0000000F00
1F0000000F00
1F0000000F00
1F0000000F00
3F0000000F00
3F0000000F00
3F0000000F80
3F0000000F80
3F0000000F80
3F0000000F80
3F0000000F80
3F0000000F80
3F0000000F80
3F0000000F80
3F0000000F80
3F0000000F80
1F0000000F00
1F0000001F00
1F8000001F00
1F8000001F00
1F8000001F00
1F8000003E00
0FC000003E00
0FC000003E00
07E000007C00
07F00000FC00
03F80001F800
03FC0003F000
01FF001FE000
00FFFFFFC000
003FFFFF8000
001FFFFE0000
0003FFF00000
ENDCHAR
STARTCHAR 0020
ENCODING 32
SWIDTH 270 0
DWIDTH 18 0
BBX 0 0 0 0
BITMAP
ENDCHAR
STARTCHAR 0021
ENCODING 33
SWIDTH 270 0
DWIDTH 18 0
BBX 7 50 5 -1
BITMAP
3C
7E
7E
FE
FE
FE
FE
7E
7E
7E
7E
7E
7E
7E
7C
7C
7C
7C
7C
7C
7C
7C
3C
3C
3C
3C
3C
38
38
38
38
38
38
38
38
18
10
00
00
00
00
00
00
3C
7E
FE
FE
FE
7E
38
ENDCHAR
STARTCHAR 0022
ENCODING 34
SWIDTH 330 0
DWIDTH 22 0
BBX 16 20 3 28
BITMAP
2004
F81F
F81F
F81F
F81F
F81F
F81F
F81F
781F
781E
780E
700E
700E
700E
700E
300E
300C
3004
2004
2004
ENDCHAR
STARTCHAR 0023
ENCODING 35
SWIDTH 765 0
DWIDTH 51 0
BBX 45 47 3 0
BITMAP
000003C00F00
000003C01F00
000007C01E00
000007801E00
000007803E00
00000F803C00
00000F003C00
00000F007C00
00001E007800
00001E00F800
00003E00F000
00003C00F000
00003C01F000
00007C01E000
00007801E000
07FFFFFFFFF8
07FFFFFFFFF0
07FFFFFFFFF0
0FFFFFFFFFF0
0001F0078000
0001E0078000
0001E00F8000
0003C00F0000
0003C00F0000
0007C01E0000
0007801E0000
0007803E0000
000F803C0000
3FFFFFFFFF80
7FFFFFFFFF00
7FFFFFFFFF00
FFFFFFFFFF00
001E00F80000
003E00F00000
003C00F00000
003C01F00000
007C01E00000
007801E00000
007803E00000
00F003C00000
00F007C00000
01F007800000
01E007800000
01E00F800000
03E00F000000
03C00F000000
03C01F000000
ENDCHAR
STARTCHAR 0024
ENCODING 36
SWIDTH 540 0
DWIDTH 36 0
BBX 29 62 4 -8
BITMAP
00020000
00070000
00070000
00070000
00070000
00070000
00FFF800
03FFFE00
07FFFF00
0F870F80
1E0707C0
3C0703C0
3C0703C0
780703C0
780701C0
780701C0
78070180
78070000
78070000
7C070000
7E070000
3F070000
3F870000
1FE70000
1FFF0000
0FFF0000
07FFC000
01FFF000
00FFFC00
003FFF00
000FFF80
0007FFC0
00077FE0
00071FF0
000707F0
000703F8
000701F8
000700F8
000700F8
00070078
00070078
60070078
E0070078
F0070078
F0070078
F00700F0
F80700F0
780701E0
3C0703E0
3F0707C0
1FC73F80
07FFFE00
03FFFC00
007FE000
00070000
00070000
00070000
00070000
00070000
00070000
00070000
00020000
ENDCHAR
STARTCHAR 0025
ENCODING 37
SWIDTH 870 0
DWIDTH 58 0
BBX 50 51 5 -1
BITMAP
00000000030000
00FE00000F0000
07FFC0001F0000
0FC7F8007E0000
1F01FF83FC0000
3E00FFFFFC0000
7C007FFFB80000
7C007C00380000
F8003E00700000
F8003E00700000
F8003E00E00000
F8003E01E00000
F8003E01C00000
F8003E03800000
F8003E03800000
F8003E07000000
F8003E07000000
FC007C0E000000
7C007C0E000000
7C00781C000000
3E00F838000000
1F01F038000000
0FFFE070000000
03FF8070000000
001000E0000000
000000E0000000
000001C0000000
000003C00F0000
000003807FF000
00000701FFF800
00000703E07E00
00000E07C01E00
00000E0F801F00
00001C0F000F80
00003C1F000F80
0000381F000F80
0000701F0007C0
0000703F0007C0
0000E03F0007C0
0000E03F0007C0
0001C03F0007C0
0001C01F0007C0
0003801F000F80
0007801F000F80
0007001F000F80
000E000F801F00
000E0007801F00
001C0007E03E00
001C0001F9FC00
00380000FFF000
003800003FC000
ENDCHAR
STARTCHAR 0026
ENCODING 38
SWIDTH 765 0
DWIDTH 51 0
BBX 48 50 2 -1
BITMAP
0003FE000000
000FFF800000
003FFFE00000
007E07F00000
00FC01F00000
01F800F80000
01F000780000
01E0007C0000
03E0007C0000
03E0007C0000
03E0007C0000
03E0007C0000
03E000780000
03F000F80000
03F001F00000
01F803E00000
01F807E00000
00FC0FC00000
00FE3F000000
007E7E000000
007FFC000000
003FF0000000
001FC001FFF8
003FC001FFF8
00FFE0007FF0
03F7F0001FC0
07C7F0001F80
0F83F8001F00
1F01FC001E00
3E00FE001E00
3E00FE003C00
7C007F003C00
7C003F807800
F8001FC0F000
F8000FE0F000
F8000FF1E000
F80007F3C000
F80003FFC000
F80001FF8000
F80000FF0000
FC00007F8000
FC00003FC000
7E0000FFE000
7F0001FFF000
3F8007FFFC00
1FF01FC7FFFF
0FFFFF83FFFF
07FFFF00FFFE
03FFFC003FFC
007FE00003E0
ENDCHAR
STARTCHAR 0027
ENCODING 39
SWIDTH 165 0
DWIDTH 11 0
BBX 5 20 3 28
BITMAP
20
F8
F8
F8
F8
F8
F8
F8
78
78
78
70
70
70
70
30
30
30
20
20
ENDCHAR
STARTCHAR 0028
ENCODING 40
SWIDTH 315 0
DWIDTH 21 0
BBX 11 60 6 -11
BITMAP
00E0
01E0
01E0
03C0
03C0
0780
0780
0F80
0F00
0F00
1F00
1E00
3E00
3E00
3C00
3C00
7C00
7C00
7800
7800
F800
F800
F800
F800
F800
F800
F000
F000
F000
F000
F000
F000
F000
F000
F800
F800
F800
F800
F800
7800
7800
7C00
7C00
7C00
3C00
3C00
3E00
1E00
1E00
1F00
0F00
0F00
0780
0780
0780
03C0
03C0
01E0
00E0
0060
ENDCHAR
STARTCHAR 0029
ENCODING 41
SWIDTH 315 0
DWIDTH 21 0
BBX 11 60 5 -11
BITMAP
E000
E000
F000
7800
7800
7C00
3C00
3C00
1E00
1E00
1F00
0F00
0F00
0F80
0F80
0780
07C0
07C0
07C0
03C0
03C0
03E0
03E0
03E0
03E0
03E0
03E0
03E0
03E0
03E0
03E0
03E0
03E0
03E0
03E0
03E0
03E0
03E0
03E0
03C0
07C0
07C0
07C0
0780
0780
0F80
0F80
0F00
0F00
1F00
1E00
1E00
3C00
3C00
7800
7800
F000
F000
E000
C000
ENDCHAR
STARTCHAR 002A
ENCODING 42
SWIDTH 480 0
DWIDTH 32 0
BBX 25 27 4 22
BITMAP
003E0000
003E0000
007E0000
003E0000
003E0000
783E0E00
FC1C1F00
FE1C3F80
FE187F80
7F087F00
3F88FE00
03CBC000
003E0000
001C0000
006F0000
1FC9FC00
7F88FF00
FF187F00
FE183F80
FC1C3F00
783C1F00
103E0400
003E0000
007E0000
007E0000
003E0000
001C0000
ENDCHAR
STARTCHAR 002B
ENCODING 43
SWIDTH 825 0
DWIDTH 55 0
BBX 39 40 8 0
BITMAP
00003C0000
00003C0000
00003C0000
00003C0000
00003C0000
00003C0000
00003C0000
00003C0000
00003C0000
00003C0000
00003C0000
00003C0000
00003C0000
00003C0000
00003C0000
00003C0000
00003C0000
00003C0000
FFFFFFFFFE
FFFFFFFFFE
FFFFFFFFFE
FFFFFFFFFE
00003C0000
00003C0000
00003C0000
00003C0000
00003C0000
00003C0000
00003C0000
00003C0000
00003C0000
00003C0000
00003C0000
00003C0000
00003C0000
00003C0000
00003C0000
00003C0000
00003C0000
00003C0000
ENDCHAR
STARTCHAR 002C
ENCODING 44
SWIDTH 270 0
DWIDTH 18 0
BBX 8 18 5 -12
BITMAP
7C
FE
FE
FF
FF
FF
7F
07
07
06
06
0E
0C
1C
38
70
60
40
ENDCHAR
STARTCHAR 002D
ENCODING 45
SWIDTH 315 0
DWIDTH 21 0
BBX 16 5 3 13
BITMAP
FFFF
FFFF
FFFF
FFFF
FFFF
ENDCHAR
STARTCHAR 002E
ENCODING 46
SWIDTH 270 0
DWIDTH 18 0
BBX 7 7 6 -1
BITMAP
78
FC
FE
FE
FE
FC
78
ENDCHAR
STARTCHAR 002F
ENCODING 47
SWIDTH 255 0
DWIDTH 17 0
BBX 19 55 -1 -6
BITMAP
0000E0
0000E0
0000C0
0001C0
0001C0
000180
000380
000380
000380
000700
000700
000700
000E00
000E00
000E00
001C00
001C00
001C00
001800
003800
003800
003000
007000
007000
007000
00E000
00E000
00E000
01C000
01C000
01C000
038000
038000
038000
030000
070000
070000
060000
0E0000
0E0000
0E0000
1C0000
1C0000
1C0000
380000
380000
380000
700000
700000
700000
600000
E00000
E00000
C00000
C00000
ENDCHAR
STARTCHAR 0030
ENCODING 48
SWIDTH 540 0
DWIDTH 36 0
BBX 33 50 2 -1
BITMAP
000FF80000
007FFE0000
00FFFF8000
01FC1FC000
03F007E000
07C003F000
0FC001F000
0F8000F800
1F0000FC00
1F00007C00
3F00007C00
3E00007E00
7E00007E00
7E00003E00
7E00003F00
7E00003F00
7E00003F00
FE00003F00
FC00003F00
FC00003F00
FC00003F00
FC00003F00
FC00003F80
FC00003F80
FC00003F80
FC00003F80
FC00003F80
FC00003F80
FC00003F80
FC00003F00
FC00003F00
FC00003F00
FE00003F00
7E00003F00
7E00003F00
7E00003F00
7E00007E00
3E00007E00
3E00007E00
3F00007C00
1F0000FC00
1F0000F800
0F8000F800
0FC001F000
07C003F000
03F007E000
01FE3FC000
00FFFF8000
003FFE0000
000FF00000
ENDCHAR
STARTCHAR 0031
ENCODING 49
SWIDTH 540 0
DWIDTH 36 0
BBX 25 49 6 0
BITMAP
00030000
00070000
001F0000
007F0000
07FF0000
FFFF0000
FFFF0000
FFFF0000
007F0000
003F0000
003F0000
003F0000
003F0000
003F0000
003F0000
003F0000
003F0000
003F0000
003F0000
003F0000
003F0000
003F0000
003F0000
003F0000
003F0000
003F0000
003F0000
003F0000
003F0000
003F0000
003F0000
003F0000
003F0000
003F0000
003F0000
003F0000
003F0000
003F0000
003F0000
003F0000
003F0000
003F0000
003F0000
003F8000
00FF8000
07FFF800
3FFFFF00
7FFFFF80
3FFFFF00
ENDCHAR
STARTCHAR 0032
ENCODING 50
SWIDTH 540 0
DWIDTH 36 0
BBX 32 49 1 0
BITMAP
000FFE00
007FFFC0
00FFFFE0
03FC1FF0
07E003F8
0FC001FC
1F8000FE
1F00007E
3F00007F
3E00003F
3E00003F
3E00003F
3F00003F
3F00003F
3F80007F
3F80007E
1F8000FE
060000FE
000001FC
000001FC
000003F8
000007F0
00000FE0
00001FE0
00003FC0
00007F80
0000FE00
0001FC00
0003F800
0007F000
000FE000
001F8000
003F0000
007E0000
00FC0000
01F80000
03F00000
03E00000
07C00000
0F800003
1F80000F
1F00001F
3E00003F
3E0000FE
7FFFFFFE
FFFFFFFE
FFFFFFFC
FFFFFFFC
FFFFFFF8
ENDCHAR
STARTCHAR 0033
ENCODING 51
SWIDTH 540 0
DWIDTH 36 0
BBX 32 50 1 -1
BITMAP
001FF800
007FFF00
01FFFFC0
03F01FE0
07C007F0
0F8003F8
1F8001F8
1F0001FC
1F0000FC
3F0000FC
1F0000FC
1F0000FC
0F0000FC
000000FC
000000FC
000001FC
000001F8
000003F0
000007F0
00000FC0
00003F80
0003FE00
003FF000
003FFC00
003FFF80
00001FE0
000007F0
000001F8
000000FC
000000FE
0000007E
0000007F
0000007F
0000003F
0000003F
0000003F
7000003F
F800003F
F800007F
F800007F
F800007E
FC0000FE
FC0000FC
FE0001FC
7E0003F8
3F8007F0
1FE03FE0
0FFFFF80
03FFFE00
007FF000
ENDCHAR
STARTCHAR 0034
ENCODING 52
SWIDTH 540 0
DWIDTH 36 0
BBX 35 49 1 0
BITMAP
000003C000
00000FC000
00001FC000
00003FC000
00007FC000
0000FFC000
0001FFC000
0003F7C000
0007E7C000
0007C7C000
000F87C000
001F07C000
003E07C000
007C07C000
007807C000
00F807C000
01F007C000
01E007C000
03E007C000
03C007C000
07C007C000
0F8007C000
0F8007C000
1F0007C000
1F0007C000
3E0007C000
3E0007C000
3C0007C000
7C0007C000
780007C000
F80007C000
F80007C000
FFFFFFFFE0
FFFFFFFFE0
FFFFFFFFE0
FFFFFFFFE0
000007C000
000007C000
000007C000
000007C000
000007C000
000007C000
000007C000
000007C000
000007E000
00000FF000
00007FFC00
00007FFE00
00007FFC00
ENDCHAR
STARTCHAR 0035
ENCODING 53
SWIDTH 540 0
DWIDTH 36 0
BBX 33 50 1 -1
BITMAP
0000003000
07FFFFF800
07FFFFF800
07FFFFF000
07FFFFC000
07FFFE0000
079C000000
0780000000
0780000000
0780000000
0780000000
0780000000
0700000000
0700000000
0F00000000
0F00000000
0F00000000
0F00000000
0F00000000
0F03FC0000
0F3FFF8000
0FFFFFE000
0FFFFFF000
0FF007FC00
0F8001FC00
0F0000FE00
0000007F00
0000007F00
0000003F00
0000003F80
0000003F80
0000003F80
0000001F80
0000001F80
0000001F80
0000001F80
0000003F80
7C00003F00
7C00003F00
FE00003F00
FE00007F00
FE00007E00
7E0000FC00
7E0001FC00
3F0003F800
3F800FF000
1FF87FE000
07FFFF8000
01FFFE0000
003FE00000
ENDCHAR
STARTCHAR 0036
ENCODING 54
SWIDTH 540 0
DWIDTH 36 0
BBX 33 50 2 -1
BITMAP
000003F800
00001FF800
0000FFF800
0003FF0000
0007F00000
001FC00000
003F800000
007E000000
00FC000000
01F8000000
03F0000000
07E0000000
07C0000000
0FC0000000
0F80000000
1F80000000
1F00000000
3F00000000
3F00000000
3E00FC0000
7E0FFF8000
7E3FFFE000
7E7FFFF000
7FF80FF800
7FC003FC00
FF8000FE00
FF0000FE00
FE00007F00
FC00007F00
FC00003F00
FC00003F00
FC00003F00
FC00003F80
FC00001F80
FC00001F80
7E00001F80
7E00003F00
7E00003F00
7E00003F00
3E00003F00
3F00003E00
1F00007E00
1F80007C00
0FC000FC00
0FE001F800
07F003F000
03FE1FE000
00FFFFC000
007FFF0000
000FF80000
ENDCHAR
STARTCHAR 0037
ENCODING 55
SWIDTH 540 0
DWIDTH 36 0
BBX 30 49 4 -1
BITMAP
7FFFFFFC
FFFFFFFC
FFFFFFFC
FFFFFFF8
FFFFFFF8
F8000078
F00000F0
F00000F0
F00001F0
E00001E0
600003E0
000003C0
000003C0
000007C0
00000780
00000F80
00000F00
00001F00
00001F00
00003E00
00003E00
00003C00
00007C00
00007C00
0000F800
0000F800
0001F800
0001F000
0003F000
0003E000
0003E000
0007E000
0007C000
000FC000
000FC000
001F8000
001F8000
001F8000
003F0000
003F0000
007F0000
007F0000
007E0000
00FE0000
00FE0000
00FC0000
01FC0000
01FC0000
00F00000
ENDCHAR
STARTCHAR 0038
ENCODING 56
SWIDTH 540 0
DWIDTH 36 0
BBX 33 50 2 -1
BITMAP
000FFC0000
007FFF8000
01FFFFC000
03F80FF000
07C003F800
0F8001F800
1F0000FC00
3E00007C00
3E00003E00
3C00003E00
3C00003E00
7C00003E00
7C00003E00
7E00007C00
3E00007C00
3F00007800
3F8000F800
1FC001F000
1FF003E000
0FFC0FC000
07FF9F0000
03FFFC0000
01FFFC0000
007FFF0000
001FFFC000
007FFFE000
01F9FFF800
03E03FFC00
0FC00FFC00
1F8003FE00
3F0000FF00
7E00007F00
7C00003F00
FC00003F80
F800001F80
F800001F80
F800001F80
F800001F80
F800001F80
F800001F00
F800001F00
F800001F00
7C00003E00
7E00007C00
3F0000F800
1F8001F000
0FF00FE000
07FFFFC000
01FFFE0000
003FF00000
ENDCHAR
STARTCHAR 0039
ENCODING 57
SWIDTH 540 0
DWIDTH 36 0
BBX 32 50 2 -1
BITMAP
001FF800
00FFFE00
01FFFF80
07F81FC0
0FC007E0
1F8003F0
1F0001F8
3F0000FC
7E0000FC
7E00007E
7E00007E
FC00007E
FC00003F
FC00003F
FC00003F
FC00003F
FC00003F
FC00003F
FC00003F
FE00003F
FE00003F
7E00003F
7F00003F
3F00007F
3F8001FF
1FE003FF
0FF81FBF
07FFFF3F
03FFFC3E
00FFF07E
000E007E
0000007E
000000FC
000000FC
000000F8
000001F8
000001F0
000003F0
000007E0
00000FC0
00001F80
00003F80
00007E00
0000FC00
0003F800
001FF000
00FFC000
0FFF0000
1FFC0000
0FC00000
ENDCHAR
STARTCHAR 003A
ENCODING 58
SWIDTH 270 0
DWIDTH 18 0
BBX 7 31 6 -1
BITMAP
10
7C
FC
FE
FE
FC
7C
00
00
00
00
00
00
00
00
00
00
00
00
00
00
00
00
00
78
FC
FE
FE
FE
FC
78
ENDCHAR
STARTCHAR 003B
ENCODING 59
SWIDTH 270 0
DWIDTH 18 0
BBX 8 42 5 -12
BITMAP
10
7C
FE
FE
FE
FE
FC
38
00
00
00
00
00
00
00
00
00
00
00
00
00
00
00
00
7C
FE
FE
FF
FF
FF
7F
07
07
06
06
0E
0C
1C
38
70
60
40
ENDCHAR
STARTCHAR 003C
ENCODING 60
SWIDTH 825 0
DWIDTH 55 0
BBX 38 34 9 2
BITMAP
000000000C
000000003C
00000001FC
00000007FC
0000003FF0
000000FFC0
000007FE00
00001FF800
00007FE000
0003FF0000
000FFC0000
007FE00000
01FF800000
0FFC000000
3FF0000000
FF80000000
FE00000000
FC00000000
FF80000000
7FE0000000
0FFC000000
03FF000000
007FE00000
001FF80000
0007FF0000
0000FFC000
00003FF800
000007FE00
000001FF80
0000003FF0
0000000FFC
00000003FC
000000007C
000000001C
ENDCHAR
STARTCHAR 003D
ENCODING 61
SWIDTH 825 0
DWIDTH 55 0
BBX 39 16 8 12
BITMAP
FFFFFFFFFE
FFFFFFFFFE
FFFFFFFFFE
FFFFFFFFFE
0000000000
0000000000
0000000000
0000000000
0000000000
0000000000
0000000000
0000000000
FFFFFFFFFE
FFFFFFFFFE
FFFFFFFFFE
FFFFFFFFFE
ENDCHAR
STARTCHAR 003E
ENCODING 62
SWIDTH 825 0
DWIDTH 55 0
BBX 38 34 9 2
BITMAP
C000000000
F000000000
FC00000000
FF80000000
7FE0000000
0FFC000000
03FF000000
00FFE00000
001FF80000
0007FE0000
0000FFC000
00003FF000
000007FE00
000001FF80
0000003FF0
0000000FFC
00000001FC
00000001FC
00000007FC
0000003FF0
000000FFC0
000007FE00
00001FF800
0000FFC000
0003FF0000
000FFC0000
007FE00000
01FF800000
0FFC000000
3FF0000000
FF80000000
FE00000000
F800000000
C000000000
ENDCHAR
STARTCHAR 003F
ENCODING 63
SWIDTH 435 0
DWIDTH 29 0
BBX 25 50 2 -1
BITMAP
01FF8000
07FFE000
1FC7F000
3E00FC00
7C007C00
FC003E00
FC001F00
FC001F00
FC001F00
FC000F80
F8000F80
20000F80
00000F80
00000F80
00000F80
00001F80
00001F80
00001F00
00003F00
00007F00
0000FE00
0001FC00
0003FC00
000FF800
003FF000
00FFC000
00FF8000
01FC0000
01F00000
01E00000
01E00000
01C00000
01C00000
01C00000
01C00000
01C00000
00C00000
00000000
00000000
00000000
00000000
00000000
00000000
01F00000
03F00000
03F80000
03F80000
03F80000
01F00000
00E00000
ENDCHAR
STARTCHAR 0040
ENCODING 64
SWIDTH 975 0
DWIDTH 65 0
BBX 56 56 5 -9
BITMAP
000000FFFE0000
00000FFC3FC000
00003E0000F800
0000F000001C00
0003C000000700
000F8000000380
001E00000000C0
003C0000000060
00780000000030
00F00000000018
01E00000000018
03C0000000000C
0780000000000C
07000000000006
0F00000F000006
1E00007FE1F002
1E0001F031F003
3C0003C011E003
3C0007C01BE003
78000F800BE003
78001F000FC001
78003F000FC001
70003E000FC001
F0007C000FC003
F000FC000F8003
F000FC000F8003
F000F8000F8003
F001F8001F8003
F001F0001F0002
F001F0001F0006
F001F0001F0006
F001F0003E0004
F001F0003E000C
F001E0007E0008
F001E0007E0018
F001E000FC0030
7001F001BC0060
7000F001BC00E0
7800F0033C01C0
380078063C0380
38003C1C1E0E00
3C001FF80FFC00
1C0007E003F000
0E000000000000
0F000000000000
07800000000000
03C00000000000
01E00000000000
00F00000000060
007800000000C0
003E0000000380
000F8000000E00
0007E000007800
0001FC0003E000
00003FFFFF0000
000003FFF00000
ENDCHAR
STARTCHAR 0041
ENCODING 65
SWIDTH 645 0
DWIDTH 43 0
BBX 45 49 -1 0
BITMAP
000003000000
000007800000
00000F800000
00001FC00000
00001FE00000
00003FE00000
00003FF00000
00007FF00000
00007FF80000
0000F9F80000
0000F9FC0000
0001F0FC0000
0001F0FE0000
0001E07E0000
0003E07F0000
0003C03F0000
0007C03F0000
0007801F8000
000F801F8000
000F001FC000
000F000FC000
001F000FE000
001E0007E000
003E0007E000
003C0007F000
003C0003F000
007C0003F000
00780003F800
00FFFFFFF800
00FFFFFFFC00
00FFFFFFFC00
01FFFFFFFC00
01F00000FE00
01E000007E00
03E000007E00
03E000007F00
03C000003F00
07C000003F00
07C000003F00
078000001F80
0F8000001F80
0F8000001F80
1F8000000FC0
1F8000000FC0
1F8000000FE0
3FC000003FF0
7FF000007FF8
FFF00000FFF8
7FF000007FF8
ENDCHAR
STARTCHAR 0042
ENCODING 66
SWIDTH 660 0
DWIDTH 44 0
BBX 40 48 2 0
BITMAP
FFFFFFF800
FFFFFFFF00
7FFFFFFF80
3FFF1FFFE0
0FE0003FE0
0FC0000FF0
0FC00007F0
0FC00003F8
0FC00003F8
0FC00001F8
0FC00001F8
0FC00001F8
0FC00003F8
0FC00003F8
0FC00003F0
0FC00007F0
0FC0000FE0
0FC0001FC0
0FC0007F80
0FC001FE00
0FC007FC00
0FC07FE000
0FC7FFFC00
0FFFFFFF80
0FFFF0FFE0
0FFF001FF0
0FE00007F8
0FC00003FC
0FC00001FE
0FC00000FE
0FC000007F
0FC000007F
0FC000003F
0FC000003F
0FC000003F
0FC000003F
0FC000003F
0FC000007F
0FC000007F
0FC000007F
0FC00000FE
0FC00001FE
0FE00007FC
1FE0003FF8
3FFFFFFFF0
7FFFFFFFE0
FFFFFFFF80
7FFFFFF800
ENDCHAR
STARTCHAR 0043
ENCODING 67
SWIDTH 690 0
DWIDTH 46 0
BBX 43 50 2 -1
BITMAP
00003FFF0000
0001FFFFE000
0007FFFFFC00
001FFC3FFE00
003FC003FF00
007F0000FF80
00FE00007F80
01F800001F80
03F800001F80
07F000000F80
0FE000000780
0FC000000780
1FC000000380
1F8000000380
3F8000000000
3F8000000000
3F0000000000
7F0000000000
7F0000000000
7F0000000000
7E0000000000
FE0000000000
FE0000000000
FE0000000000
FE0000000000
FE0000000000
FE0000000000
FE0000000000
FE0000000000
FE0000000000
7F0000000000
7F0000000000
7F0000000000
7F0000000000
7F8000000000
3F8000000000
3F8000000000
1FC000000040
1FC0000000E0
0FE0000001E0
0FF0000003E0
07F8000007C0
03FC00000FC0
03FE00003F80
01FF8000FF00
00FFF003FE00
003FFFFFF800
001FFFFFF000
0007FFFF8000
0000FFFE0000
ENDCHAR
STARTCHAR 0044
ENCODING 68
SWIDTH 720 0
DWIDTH 48 0
BBX 44 48 2 0
BITMAP
FFFFFFC00000
FFFFFFF80000
7FFFFFFE0000
3FF807FF8000
0FE0007FE000
0FC0000FF000
0FC00007F800
0FC00001FC00
0FC00000FE00
0FC000007F00
0FC000003F00
0FC000003F80
0FC000001FC0
0FC000001FC0
0FC000000FC0
0FC000000FE0
0FC000000FE0
0FC000000FE0
0FC0000007E0
0FC0000007F0
0FC0000007F0
0FC0000007F0
0FC0000007F0
0FC0000007F0
0FC0000007F0
0FC0000007F0
0FC0000007F0
0FC0000007F0
0FC0000007F0
0FC0000007E0
0FC000000FE0
0FC000000FE0
0FC000000FE0
0FC000001FC0
0FC000001FC0
0FC000001F80
0FC000003F80
0FC000007F00
0FC00000FF00
0FC00000FE00
0FC00003FC00
0FC00007F800
0FE0001FF000
1FE0007FC000
3FFC0FFF8000
7FFFFFFE0000
FFFFFFF00000
7FFFFF000000
ENDCHAR
STARTCHAR 0045
ENCODING 69
SWIDTH 615 0
DWIDTH 41 0
BBX 38 48 2 0
BITMAP
FFFFFFFFE0
FFFFFFFFF0
7FFFFFFFF0
3FFFDFFFF0
0FE00007F0
0FC00001F0
0FC0000070
0FC0000030
0FC0000000
0FC0000000
0FC0000000
0FC0000000
0FC0000000
0FC0000000
0FC0000000
0FC0000000
0FC0000000
0FC0000000
0FC0000E00
0FC0001E00
0FFFFFFE00
0FFFFFFE00
0FFFFFFE00
0FFFFFFE00
0FC0000E00
0FC0000400
0FC0000000
0FC0000000
0FC0000000
0FC0000000
0FC0000000
0FC0000000
0FC0000000
0FC0000000
0FC0000000
0FC0000000
0FC0000000
0FC0000000
0FC0000000
0FC000000C
0FC000001C
0FC000003C
0FC00000FC
1FE00007FC
3FFFFFFFFC
7FFFFFFFFC
FFFFFFFFF8
7FFFFFFFF0
ENDCHAR
STARTCHAR 0046
ENCODING 70
SWIDTH 555 0
DWIDTH 37 0
BBX 35 48 2 0
BITMAP
FFFFFFFF80
FFFFFFFFC0
7FFFFFFFE0
3FF807FFE0
0FE0000FE0
0FC00003E0
0FC00000E0
0FC0000060
0FC0000000
0FC0000000
0FC0000000
0FC0000000
0FC0000000
0FC0000000
0FC0000000
0FC0000000
0FC0000000
0FC0000000
0FC0000000
0FC0000000
0FC0003C00
0FFFFFFC00
0FFFFFFC00
0FFFFFFC00
0FFFFFFC00
0FC0007C00
0FC0001C00
0FC0000000
0FC0000000
0FC0000000
0FC0000000
0FC0000000
0FC0000000
0FC0000000
0FC0000000
0FC0000000
0FC0000000
0FC0000000
0FC0000000
0FC0000000
0FC0000000
0FC0000000
0FC0000000
1FC0000000
3FF0000000
FFFC000000
FFFC000000
FFFC000000
ENDCHAR
STARTCHAR 0047
ENCODING 71
SWIDTH 765 0
DWIDTH 51 0
BBX 45 50 2 -1
BITMAP
00000FFFC000
0000FFFFF800
0003FFFFFE00
000FFF0FFF80
001FF0007FC0
003F80001FC0
007F00000FE0
00FE000007E0
01FC000003E0
03F8000001E0
07F0000001E0
0FE0000000E0
0FE0000000E0
1FC000000060
1FC000000000
3F8000000000
3F8000000000
3F8000000000
7F0000000000
7F0000000000
7F0000000000
7F0000000000
7E0000000000
FE0000000000
FE0000000000
FE000007FFF8
FE000007FFF8
FE000007FFF8
7E00000007F8
7E00000001F8
7F00000001F8
7F00000001F8
7F00000001F8
7F00000001F8
3F80000001F8
3F80000001F8
3FC0000001F8
1FC0000001F8
1FE0000001F8
0FE0000001F8
07F0000001F8
07F8000001F8
03FC000003F8
01FE000007F8
00FF80000FF0
007FE0003FE0
001FFC01FF80
000FFFFFFE00
0003FFFFF800
00007FFF8000
ENDCHAR
STARTCHAR 0048
ENCODING 72
SWIDTH 765 0
DWIDTH 51 0
BBX 47 48 2 0
BITMAP
FFF800003FFE
FFFC00003FFE
7FF800003FFE
3FE000000FF8
0FC0000007F0
0FC0000007F0
0FC0000007E0
0FC0000003E0
0FC0000003E0
0FC0000003E0
0FC0000003E0
0FC0000003E0
0FC0000003E0
0FC0000003E0
0FC0000003E0
0FC0000003E0
0FC0000003E0
0FC0000003E0
0FC0000003E0
0FC0000003E0
0FFFFFFFFFE0
0FFFFFFFFFE0
0FFFFFFFFFE0
0FFFFFFFFFE0
0FC0000003E0
0FC0000003E0
0FC0000003E0
0FC0000003E0
0FC0000003E0
0FC0000003E0
0FC0000003E0
0FC0000003E0
0FC0000003E0
0FC0000003E0
0FC0000003E0
0FC0000003E0
0FC0000003E0
0FC0000003E0
0FC0000003E0
0FC0000003E0
0FC0000007E0
0FC0000007E0
0FC0000007F0
1FC0000007F0
3FF000000FF8
7FF800003FFE
FFFC00003FFE
7FF800003FFE
ENDCHAR
STARTCHAR 0049
ENCODING 73
SWIDTH 270 0
DWIDTH 18 0
BBX 14 48 2 0
BITMAP
7FFC
FFFC
7FF8
1FF0
0FE0
0FC0
0FC0
0FC0
0FC0
0FC0
0FC0
0FC0
0FC0
0FC0
0FC0
0FC0
0FC0
0FC0
0FC0
0FC0
0FC0
0FC0
0FC0
0FC0
0FC0
0FC0
0FC0
0FC0
0FC0
0FC0
0FC0
0FC0
0FC0
0FC0
0FC0
0FC0
0FC0
0FC0
0FC0
0FC0
0FC0
0FC0
0FC0
0FE0
3FF0
7FF8
FFFC
7FFC
ENDCHAR
STARTCHAR 004A
ENCODING 74
SWIDTH 450 0
DWIDTH 30 0
BBX 28 49 0 -1
BITMAP
0003FFF0
0003FFF0
0001FFF0
00007FC0
00001F80
00001F80
00001F80
00001F80
00001F80
00001F80
00001F80
00001F80
00001F80
00001F80
00001F80
00001F80
00001F80
00001F80
00001F80
00001F80
00001F80
00001F80
00001F80
00001F80
00001F80
00001F80
00001F80
00001F80
00001F80
00001F80
00001F80
0F001F80
3F801F80
7FC01F80
7FC01F80
FF801F80
FE001F80
F8001F80
F0001F80
F0001F80
F0001F00
F0003F00
F0003F00
F8007E00
7C00FE00
3F03FC00
1FFFF800
0FFFF000
03FFC000
ENDCHAR
STARTCHAR 004B
ENCODING 75
SWIDTH 615 0
DWIDTH 41 0
BBX 41 48 2 0
BITMAP
FFF8007FFE00
FFFC007FFE00
7FF8003FFC00
3FE0001FF000
0FC0000FE000
0FC0000FC000
0FC0000F8000
0FC0001F0000
0FC0003F0000
0FC0007E0000
0FC0007C0000
0FC000F80000
0FC001F00000
0FC003E00000
0FC007C00000
0FC00F800000
0FC01F000000
0FC03E000000
0FC07C000000
0FC0FC000000
0FC1FE000000
0FC3FF000000
0FC7FF800000
0FCFBFC00000
0FDF1FE00000
0FFE0FE00000
0FFC07F00000
0FF803F80000
0FF001FC0000
0FE001FC0000
0FC000FE0000
0FC0007F0000
0FC0003F0000
0FC0003F8000
0FC0001F8000
0FC0000FC000
0FC0000FE000
0FC00007E000
0FC00007F000
0FC00003F000
0FC00003F800
0FC00001F800
0FC00001FC00
1FC00001FC00
3FF00003FF00
7FF80007FF80
FFFC000FFF80
7FF80007FF80
ENDCHAR
STARTCHAR 004C
ENCODING 76
SWIDTH 570 0
DWIDTH 38 0
BBX 37 48 2 0
BITMAP
FFFC000000
FFFC000000
7FF8000000
3FE0000000
0FC0000000
0FC0000000
0FC0000000
0FC0000000
0FC0000000
0FC0000000
0FC0000000
0FC0000000
0FC0000000
0FC0000000
0FC0000000
0FC0000000
0FC0000000
0FC0000000
0FC0000000
0FC0000000
0FC0000000
0FC0000000
0FC0000000
0FC0000000
0FC0000000
0FC0000000
0FC0000000
0FC0000000
0FC0000000
0FC0000000
0FC0000000
0FC0000000
0FC0000000
0FC0000000
0FC0000000
0FC0000000
0FC0000000
0FC0000000
0FC0000000
0FC0000000
0FC0000038
0FC0000078
0FC00001F8
1FE0000FF8
3FFFFFFFF8
7FFFFFFFF8
FFFFFFFFF0
7FFFFFFFF0
ENDCHAR
STARTCHAR 004D
ENCODING 77
SWIDTH 810 0
DWIDTH 54 0
BBX 52 48 1 0
BITMAP
7FF00000007FF0
7FF8000000FFF0
7FF8000000FFF0
0FFC000001FFC0
07FC000001FF00
07FE000001FF00
07FE000003FF00
07FE000003FF00
07FF000007FF00
07FF000007BF00
07DF800007BF00
07DF80000FBF00
07CF80000F3F00
07CFC0001F3F00
078FC0001E3F00
0787E0003E3F00
0787E0003E3F00
0783F0003C3F00
0783F0007C3F00
0781F000783F00
0781F800F83F00
0781F800F03F00
0780FC01F03F00
0780FC01E03F00
07807E03E03F00
07807E03C03F00
07803E07C03F00
07803F07C03F00
07803F0F803F00
07801F8F803F00
07801F9F003F00
07800FDF003F00
07800FFE003F00
078007FE003F00
078007FC003F00
078003FC003F00
0F8003F8003F00
0F8001F8003F00
0F8001F0003F00
0F8000F0003F00
0F8000E0003F00
0F800040003F00
0F800000003F00
0F800000003F80
1FE00000007FC0
7FF8000001FFF0
FFF8000003FFF0
FFF8000003FFF0
ENDCHAR
STARTCHAR 004E
ENCODING 78
SWIDTH 720 0
DWIDTH 48 0
BBX 47 49 0 -1
BITMAP
7FF000001FFE
FFF800003FFE
7FFC00001FFC
1FFE000003F0
07FF000001E0
07FF800001E0
03FF800001E0
03DFC00001E0
03DFE00001E0
03CFF00001E0
03C7F80001E0
03C3F80001E0
03C1FC0001E0
03C0FE0001E0
03C07F0001E0
03C07F8001E0
03C03F8001E0
03C01FC001E0
03C00FE001E0
03C007F001E0
03C007F001E0
03C003F801E0
03C001FC01E0
03C000FE01E0
03C000FE01E0
03C0007F01E0
03C0003F81E0
03C0001F81E0
03C0001FC1E0
03C0000FE1E0
03C00007E1E0
03C00007F1E0
03C00003F9E0
03C00001FDE0
03C00000FDE0
03C00000FFE0
03C000007FE0
03C000003FE0
03C000003FE0
07C000001FE0
07C000001FE0
07C000000FE0
07C0000007E0
07E0000007E0
0FF0000003E0
7FFE000001E0
7FFF000001E0
7FFE000000E0
000000000040
ENDCHAR
STARTCHAR 004F
ENCODING 79
SWIDTH 765 0
DWIDTH 51 0
BBX 47 50 2 -1
BITMAP
00003FFC0000
0001FFFF8000
0007FFFFE000
001FFEFFF000
003FC007FC00
00FF0001FE00
01FC00007F00
03F800003F80
03F000001FC0
07E000000FC0
0FE000000FE0
0FC0000007F0
1FC0000003F0
1F80000003F8
3F80000003F8
3F00000001F8
7F00000001FC
7F00000001FC
7F00000001FC
7F00000000FC
7E00000000FE
7E00000000FE
FE00000000FE
FE00000000FE
FE00000000FE
FE00000000FE
FE00000000FE
FE00000000FE
FE00000000FE
7E00000000FE
7E00000000FC
7F00000000FC
7F00000001FC
7F00000001FC
3F00000001F8
3F80000003F8
3F80000003F8
1FC0000003F0
1FC0000007F0
0FE0000007E0
07E000000FE0
07F000001FC0
03F800003F80
01FC00007F00
00FE0000FE00
007F8003FC00
003FF83FF800
000FFFFFE000
0003FFFF8000
00007FFC0000
ENDCHAR
STARTCHAR 0050
ENCODING 80
SWIDTH 600 0
DWIDTH 40 0
BBX 37 48 2 0
BITMAP
FFFFFFC000
FFFFFFF800
7FFFFFFF00
3FFE0FFF80
0FE000FFC0
0FE0001FE0
0FC0000FF0
0FC00007F0
0FC00003F8
0FC00003F8
0FC00003F8
0FC00001F8
0FC00001F8
0FC00001F8
0FC00001F8
0FC00003F8
0FC00003F8
0FC00003F0
0FC00007F0
0FC0000FE0
0FC0001FE0
0FC0003FC0
0FC000FF80
0FC003FF00
0FC01FFC00
0FDFFFF800
0FFFFFC000
0FFFFF0000
0FFFE00000
0FC0000000
0FC0000000
0FC0000000
0FC0000000
0FC0000000
0FC0000000
0FC0000000
0FC0000000
0FC0000000
0FC0000000
0FC0000000
0FC0000000
0FC0000000
0FC0000000
1FC0000000
3FF0000000
7FFC000000
FFFE000000
7FFC000000
ENDCHAR
STARTCHAR 0051
ENCODING 81
SWIDTH 765 0
DWIDTH 51 0
BBX 47 59 2 -10
BITMAP
00003FFC0000
0001FFFF8000
000FFFFFE000
001FFEFFF000
007FC007FC00
00FF0001FE00
01FC00007F00
03F800003F80
03F000001FC0
07E000000FC0
0FE000000FE0
0FC0000007F0
1FC0000003F0
1F80000003F8
3F80000003F8
3F00000001F8
7F00000001FC
7F00000001FC
7F00000001FC
7F00000000FC
7E00000000FE
FE00000000FE
FE00000000FE
FE00000000FE
FE00000000FE
FE00000000FE
FE00000000FE
FE00000000FE
FE00000000FE
7E00000000FE
7F00000000FC
7F00000001FC
7F00000001FC
7F00000001FC
3F00000001F8
3F80000003F8
3F80000003F8
1FC0018003F0
1FC001C007F0
0FE001C007E0
0FE001C00FC0
07F001C01FC0
03F801C03F80
01FC01E07F00
00FE00E0FE00
007F80F3FC00
003FF8FFF000
000FFFFFE000
0003FFFF8000
00007FFE0000
0000001F0000
0000001F8000
0000000FF000
00000007FFF8
00000003FFFC
00000000FFFC
000000007FFC
000000000FFC
0000000001E0
ENDCHAR
STARTCHAR 0052
ENCODING 82
SWIDTH 630 0
DWIDTH 42 0
BBX 41 48 2 0
BITMAP
FFFFFFF00000
FFFFFFFF0000
7FFFFFFFC000
3FFFFFFFE000
0FE0007FF000
0FC0000FF800
0FC00007F800
0FC00003F800
0FC00001FC00
0FC00001FC00
0FC00001FC00
0FC00001FC00
0FC00001FC00
0FC00001FC00
0FC00001F800
0FC00003F800
0FC00007F000
0FC0000FF000
0FC0001FE000
0FC0003FC000
0FC001FF8000
0FC00FFF0000
0FC0FFFC0000
0FFFFFF00000
0FFFFFE00000
0FFFFFF00000
0FFF03F80000
0FC003F80000
0FC001FC0000
0FC000FE0000
0FC0007E0000
0FC0007F0000
0FC0003F0000
0FC0001F8000
0FC0001F8000
0FC0000FC000
0FC0000FC000
0FC00007E000
0FC00007E000
0FC00003F000
0FC00003F000
0FC00003F800
0FC00003F800
1FC00003FC00
3FF00007FE00
7FFC000FFF00
FFFC001FFF80
7FFC001FFF80
ENDCHAR
STARTCHAR 0053
ENCODING 83
SWIDTH 570 0
DWIDTH 38 0
BBX 36 50 1 -1
BITMAP
000FFF0000
007FFFF000
00FFFFFC00
03FC0FFE00
07E001FF00
07C000FF00
0F80003F00
1F00001F00
1F00000F00
3F00000700
3E00000300
3E00000000
3E00000000
3F00000000
3F00000000
3F00000000
3F80000000
3FC0000000
1FF0000000
1FFC000000
0FFFC00000
07FFFE0000
03FFFFE000
01FFFFF800
007FFFFE00
000FFFFF00
0000FFFF80
000007FFC0
000000FFC0
0000001FE0
0000000FE0
00000007E0
00000003F0
00000003F0
00000003F0
00000001F0
E0000001F0
F0000003E0
F0000003E0
F8000003E0
F8000003E0
7C000007C0
7E00000FC0
3F00001F80
1FC0003F00
0FF000FE00
07FF9FFC00
03FFFFF800
00FFFFE000
001FFF0000
ENDCHAR
STARTCHAR 0054
ENCODING 84
SWIDTH 600 0
DWIDTH 40 0
BBX 39 48 0 0
BITMAP
3FFFFFFFFC
7FFFFFFFFC
7FFFFFFFFE
7FF1FF0FFE
FF007E00FE
FC007E007E
F8007E001E
F0007E000E
E0007E0006
00007E0000
00007E0000
00007E0000
00007E0000
00007E0000
00007E0000
00007E0000
00007E0000
00007E0000
00007E0000
00007E0000
00007E0000
00007E0000
00007E0000
00007E0000
00007E0000
00007E0000
00007E0000
00007E0000
00007E0000
00007E0000
00007E0000
00007E0000
00007E0000
00007E0000
00007E0000
00007E0000
00007E0000
00007E0000
00007E0000
00007E0000
00007E0000
00007E0000
00007E0000
0000FE0000
0001FF0000
0007FFC000
0007FFE000
0007FFE000
ENDCHAR
STARTCHAR 0055
ENCODING 85
SWIDTH 705 0
DWIDTH 47 0
BBX 43 49 2 -1
BITMAP
FFF80003FFE0
FFFC0003FFE0
FFF80001FFE0
3FF00000FF80
1FC000003F00
1FC000001F00
1FC000001F00
1F8000001F00
1F8000001F00
1F8000001F00
1F8000001F00
1F8000001F00
1F8000001F00
1F8000001F00
1F8000001F00
1F0000000F00
1F0000000F00
1F0000000F00
1F0000000F00
1F0000000F00
3F0000000F00
3F0000000F00
3F0000000F80
3F0000000F80
3F0000000F80
3F0000000F80
3F0000000F80
3F0000000F80
3F0000000F80
3F0000000F80
3F0000000F80
3F0000000F80
1F0000000F00
1F0000001F00
1F8000001F00
1F8000001F00
1F8000001F00
1F8000003E00
0FC000003E00
0FC000003E00
07E000007C00
07F00000FC00
03F80001F800
03FC0003F000
01FF001FE000
00FFFFFFC000
003FFFFF8000
001FFFFE0000
0003FFF00000
ENDCHAR
STARTCHAR 0056
ENCODING 86
SWIDTH 645 0
DWIDTH 43 0
BBX 44 49 0 -1
BITMAP
FFF00000FFE0
FFF80000FFF0
7FF00000FFE0
7FC000003FC0
3F8000001FC0
3F8000000F80
3F8000000F80
1F8000001F80
1F8000001F00
1F8000001F00
0FC000001F00
0FC000001E00
0FC000003E00
0FC000003E00
07E000003E00
07E000007C00
07E000007C00
03F000007C00
03F000007800
03F00000F800
01F80000F800
01F80000F000
01F80001F000
00FC0001F000
00FC0003E000
00FC0003E000
007E0003C000
007E0007C000
007F0007C000
003F000F8000
003F000F8000
001F800F0000
001F801F0000
000FC01F0000
000FC03E0000
000FE03E0000
0007E07C0000
0007F07C0000
0003F0F80000
0003F9F80000
0001FDF00000
0001FFF00000
0000FFE00000
0000FFE00000
00007FC00000
00003F800000
00003F800000
00001F000000
00000E000000
ENDCHAR
STARTCHAR 0057
ENCODING 87
SWIDTH 915 0
DWIDTH 61 0
BBX 61 49 0 -1
BITMAP
FFF8007FF8003FF8
FFF8007FFC007FF8
7FF0007FF8003FF8
3FC0001FF0000FF0
1F80000FC00007E0
1F80000FC00003C0
1F80000FC00003C0
1F80000FC00003C0
1F80000FC00003C0
0F80000FC0000780
0F80000FC0000780
0FC0000FC0000780
0FC0001FE0000780
07C0001FE0000780
07C0001FE0000700
07C0001FE0000F00
07E0003FF0000F00
07E0003FF0000F00
03E0003DF0000F00
03E0003DF8001E00
03F00079F8001E00
03F00079F8001E00
01F00078FC001E00
01F000F8FC003C00
01F800F0FC003C00
01F800F07E003C00
00F801F07E007C00
00FC01E07E007800
00FC01E03F007800
00FC03E03F00F800
007E03C03F00F000
007E07C01F80F000
007E07C01F81F000
003F07800FC1F000
003F0F800FC1E000
003F0F800FE3E000
003F8F0007E3E000
001F9F0007E3C000
001F9F0003F7C000
001FFE0003F7C000
000FFE0003FF8000
000FFC0001FF8000
000FFC0001FF8000
0007F80000FF0000
0007F80000FF0000
0003F000007E0000
0003F000007E0000
0001E000003C0000
0001C00000180000
ENDCHAR
STARTCHAR 0058
ENCODING 88
SWIDTH 660 0
DWIDTH 44 0
BBX 43 48 1 0
BITMAP
FFFC000FFF00
FFFC001FFF00
7FF80007FE00
1FE00003F800
0FE00001F800
0FE00001F000
07F00003E000
03F00003C000
03F80007C000
01F800078000
01FC000F0000
00FE001F0000
007E001E0000
007F003C0000
003F807C0000
001FC0F80000
001FE0F00000
000FE1E00000
0007F3E00000
0003FFC00000
0003FF800000
0001FF000000
0000FF000000
00007F800000
00007F800000
0000FFC00000
0000FFE00000
0001E7F00000
0003E7F80000
0007C3FC0000
000781FC0000
000F80FE0000
001F007F0000
001E003F0000
003E001F8000
007C001FC000
0078000FE000
00F80007E000
01F00007F000
03F00003F800
03E00001F800
07E00001FC00
0FC00001FE00
0FC00000FE00
3FC00000FF80
7FF00003FFC0
FFF80007FFE0
FFF80003FFE0
ENDCHAR
STARTCHAR 0059
ENCODING 89
SWIDTH 645 0
DWIDTH 43 0
BBX 45 48 -1 0
BITMAP
FFFC00007FF8
FFFC00007FF8
FFF800007FF0
3FE000001FE0
0FE000000FC0
0FE000000F80
07E000000F80
07F000001F00
03F000001E00
01F800003E00
01FC00003C00
00FC00007800
00FE00007800
007F0000F000
003F0001E000
003F8001E000
001FC003C000
000FE0078000
000FE00F8000
0007F00F0000
0003F81E0000
0001FC3E0000
0001FC3C0000
0000FE780000
00007FF00000
00003FF00000
00003FE00000
00001FC00000
00001FC00000
00000FC00000
00000FC00000
00000FC00000
00000FC00000
00000FC00000
00000FC00000
00000FC00000
00000FC00000
00000FC00000
00000FC00000
00000FC00000
00000FC00000
00000FC00000
00000FC00000
00001FC00000
00003FF00000
00007FF80000
0000FFFC0000
0000FFF80000
ENDCHAR
STARTCHAR 005A
ENCODING 90
SWIDTH 540 0
DWIDTH 36 0
BBX 35 48 1 0
BITMAP
0FFFFFFF80
1FFFFFFFC0
1FFFFFFFC0
1FF8003FC0
1F80001F80
1F00003F80
1E00003F00
1C00007F00
1800007E00
000000FE00
000001FC00
000001F800
000003F800
000007F000
000007E000
00000FE000
00001FC000
00003F8000
00003F0000
00007F0000
0000FE0000
0001FC0000
0001F80000
0003F80000
0007F00000
000FE00000
000FC00000
001FC00000
003F800000
007F000000
007F000000
00FE000000
01FC000000
03F8000000
03F8000000
07F0000000
0FE0000000
0FE0000000
1FC0000040
3F800000E0
3F800001E0
7F000003C0
7F00000FC0
FE00003FC0
FFFFFFFFC0
FFFFFFFFC0
FFFFFFFFC0
7FFFFFFF80
ENDCHAR
STARTCHAR 005B
ENCODING 91
SWIDTH 315 0
DWIDTH 21 0
BBX 11 58 7 -10
BITMAP
FFE0
FFE0
FFE0
FFC0
F000
F000
F000
F000
F000
F000
F000
F000
F000
F000
F000
F000
F000
F000
F000
F000
F000
F000
F000
F000
F000
F000
F000
F000
F000
F000
F000
F000
F000
F000
F000
F000
F000
F000
F000
F000
F000
F000
F000
F000
F000
F000
F000
F000
F000
F000
F000
F000
F000
F000
FFE0
FFE0
FFE0
FFE0
ENDCHAR
STARTCHAR 005C
ENCODING 92
SWIDTH 255 0
DWIDTH 17 0
BBX 19 55 -1 -6
BITMAP
C00000
C00000
E00000
E00000
600000
700000
700000
700000
380000
380000
380000
1C0000
1C0000
1C0000
0E0000
0E0000
0E0000
060000
070000
070000
030000
038000
038000
018000
01C000
01C000
01C000
00E000
00E000
00E000
007000
007000
007000
003000
003800
003800
001800
001C00
001C00
000C00
000E00
000E00
000E00
000700
000700
000700
000380
000380
000380
000180
0001C0
0001C0
0000C0
0000E0
0000E0
ENDCHAR
STARTCHAR 005D
ENCODING 93
SWIDTH 315 0
DWIDTH 21 0
BBX 11 58 4 -10
BITMAP
FFE0
FFE0
FFE0
7FE0
01E0
01E0
01E0
01E0
01E0
01E0
01E0
01E0
01E0
01E0
01E0
01E0
01E0
01E0
01E0
01E0
01E0
01E0
01E0
01E0
01E0
01E0
01E0
01E0
01E0
01E0
01E0
01E0
01E0
01E0
01E0
01E0
01E0
01E0
01E0
01E0
01E0
01E0
01E0
01E0
01E0
01E0
01E0
01E0
01E0
01E0
01E0
01E0
01E0
01E0
FFE0
FFE0
FFE0
FFE0
ENDCHAR
STARTCHAR 005E
ENCODING 94
SWIDTH 990 0
DWIDTH 66 0
BBX 39 19 14 29
BITMAP
0000FC0000
0001FE0000
0003FF0000
0003FF8000
0007FFC000
000FCFE000
001F87F000
003F01F800
007E00FC00
00F8007E00
01F0003F00
03E0001F00
07C0000780
0F800003C0
1E000001E0
3C000000F0
3800000078
700000001C
E00000000E
ENDCHAR
STARTCHAR 005F
ENCODING 95
SWIDTH 495 0
DWIDTH 33 0
BBX 33 4 0 -16
BITMAP
FFFFFFFF80
FFFFFFFF80
FFFFFFFF80
FFFFFFFF80
ENDCHAR
STARTCHAR 0060
ENCODING 96
SWIDTH 495 0
DWIDTH 33 0
BBX 15 12 7 35
BITMAP
7000
7800
FC00
7E00
3F00
1F80
07C0
03E0
00F0
0038
001C
0006
ENDCHAR
STARTCHAR 0061
ENCODING 97
SWIDTH 645 0
DWIDTH 43 0
BBX 45 49 -1 0
BITMAP
000003000000
000007800000
00000F800000
00001FC00000
00001FE00000
00003FE00000
00003FF00000
00007FF00000
00007FF80000
0000F9F80000
0000F9FC0000
0001F0FC0000
0001F0FE0000
0001E07E0000
0003E07F0000
0003C03F0000
0007C03F0000
0007801F8000
000F801F8000
000F001FC000
000F000FC000
001F000FE000
001E0007E000
003E0007E000
003C0007F000
003C0003F000
007C0003F000
00780003F800
00FFFFFFF800
00FFFFFFFC00
00FFFFFFFC00
01FFFFFFFC00
01F00000FE00
01E000007E00
03E000007E00
03E000007F00
03C000003F00
07C000003F00
07C000003F00
078000001F80
0F8000001F80
0F8000001F80
1F8000000FC0
1F8000000FC0
1F8000000FE0
3FC000003FF0
7FF000007FF8
FFF00000FFF8
7FF000007FF8
ENDCHAR
STARTCHAR 0062
ENCODING 98
SWIDTH 660 0
DWIDTH 44 0
BBX 40 48 2 0
BITMAP
FFFFFFF800
FFFFFFFF00
7FFFFFFF80
3FFF1FFFE0
0FE0003FE0
0FC0000FF0
0FC00007F0
0FC00003F8
0FC00003F8
0FC00001F8
0FC00001F8
0FC00001F8
0FC00003F8
0FC00003F8
0FC00003F0
0FC00007F0
0FC0000FE0
0FC0001FC0
0FC0007F80
0FC001FE00
0FC007FC00
0FC07FE000
0FC7FFFC00
0FFFFFFF80
0FFFF0FFE0
0FFF001FF0
0FE00007F8
0FC00003FC
0FC00001FE
0FC00000FE
0FC000007F
0FC000007F
0FC000003F
0FC000003F
0FC000003F
0FC000003F
0FC000003F
0FC000007F
0FC000007F
0FC000007F
0FC00000FE
0FC00001FE
0FE00007FC
1FE0003FF8
3FFFFFFFF0
7FFFFFFFE0
FFFFFFFF80
7FFFFFF800
ENDCHAR
STARTCHAR 0063
ENCODING 99
SWIDTH 690 0
DWIDTH 46 0
BBX 43 50 2 -1
BITMAP
00003FFF0000
0001FFFFE000
0007FFFFFC00
001FFC3FFE00
003FC003FF00
007F0000FF80
00FE00007F80
01F800001F80
03F800001F80
07F000000F80
0FE000000780
0FC000000780
1FC000000380
1F8000000380
3F8000000000
3F8000000000
3F0000000000
7F0000000000
7F0000000000
7F0000000000
7E0000000000
FE0000000000
FE0000000000
FE0000000000
FE0000000000
FE0000000000
FE0000000000
FE0000000000
FE0000000000
FE0000000000
7F0000000000
7F0000000000
7F0000000000
7F0000000000
7F8000000000
3F8000000000
3F8000000000
1FC000000040
1FC0000000E0
0FE0000001E0
0FF0000003E0
07F8000007C0
03FC00000FC0
03FE00003F80
01FF8000FF00
00FFF003FE00
003FFFFFF800
001FFFFFF000
0007FFFF8000
0000FFFE0000
ENDCHAR
STARTCHAR 0064
ENCODING 100
SWIDTH 720 0
DWIDTH 48 0
BBX 44 48 2 0
BITMAP
FFFFFFC00000
FFFFFFF80000
7FFFFFFE0000
3FF807FF8000
0FE0007FE000
0FC0000FF000
0FC00007F800
0FC00001FC00
0FC00000FE00
0FC000007F00
0FC000003F00
0FC000003F80
0FC000001FC0
0FC000001FC0
0FC000000FC0
0FC000000FE0
0FC000000FE0
0FC000000FE0
0FC0000007E0
0FC0000007F0
0FC0000007F0
0FC0000007F0
0FC0000007F0
0FC0000007F0
0FC0000007F0
0FC0000007F0
0FC0000007F0
0FC0000007F0
0FC0000007F0
0FC0000007E0
0FC000000FE0
0FC000000FE0
0FC000000FE0
0FC000001FC0
0FC000001FC0
0FC000001F80
0FC000003F80
0FC000007F00
0FC00000FF00
0FC00000FE00
0FC00003FC00
0FC00007F800
0FE0001FF000
1FE0007FC000
3FFC0FFF8000
7FFFFFFE0000
FFFFFFF00000
7FFFFF000000
ENDCHAR
STARTCHAR 0065
ENCODING 101
SWIDTH 615 0
DWIDTH 41 0
BBX 38 48 2 0
BITMAP
FFFFFFFFE0
FFFFFFFFF0
7FFFFFFFF0
3FFFDFFFF0
0FE00007F0
0FC00001F0
0FC0000070
0FC0000030
0FC0000000
0FC0000000
0FC0000000
0FC0000000
0FC0000000
0FC0000000
0FC0000000
0FC0000000
0FC0000000
0FC0000000
0FC0000E00
0FC0001E00
0FFFFFFE00
0FFFFFFE00
0FFFFFFE00
0FFFFFFE00
0FC0000E00
0FC0000400
0FC0000000
0FC0000000
0FC0000000
0FC0000000
0FC0000000
0FC0000000
0FC0000000
0FC0000000
0FC0000000
0FC0000000
0FC0000000
0FC0000000
0FC0000000
0FC000000C
0FC000001C
0FC000003C
0FC00000FC
1FE00007FC
3FFFFFFFFC
7FFFFFFFFC
FFFFFFFFF8
7FFFFFFFF0
ENDCHAR
STARTCHAR 0066
ENCODING 102
SWIDTH 555 0
DWIDTH 37 0
BBX 35 48 2 0
BITMAP
FFFFFFFF80
FFFFFFFFC0
7FFFFFFFE0
3FF807FFE0
0FE0000FE0
0FC00003E0
0FC00000E0
0FC0000060
0FC0000000
0FC0000000
0FC0000000
0FC0000000
0FC0000000
0FC0000000
0FC0000000
0FC0000000
0FC0000000
0FC0000000
0FC0000000
0FC0000000
0FC0003C00
0FFFFFFC00
0FFFFFFC00
0FFFFFFC00
0FFFFFFC00
0FC0007C00
0FC0001C00
0FC0000000
0FC0000000
0FC0000000
0FC0000000
0FC0000000
0FC0000000
0FC0000000
0FC0000000
0FC0000000
0FC0000000
0FC0000000
0FC0000000
0FC0000000
0FC0000000
0FC0000000
0FC0000000
1FC0000000
3FF0000000
FFFC000000
FFFC000000
FFFC000000
ENDCHAR
STARTCHAR 0067
ENCODING 103
SWIDTH 765 0
DWIDTH 51 0
BBX 45 50 2 -1
BITMAP
00000FFFC000
0000FFFFF800
0003FFFFFE00
000FFF0FFF80
001FF0007FC0
003F80001FC0
007F00000FE0
00FE000007E0
01FC000003E0
03F8000001E0
07F0000001E0
0FE0000000E0
0FE0000000E0
1FC000000060
1FC000000000
3F8000000000
3F8000000000
3F8000000000
7F0000000000
7F0000000000
7F0000000000
7F0000000000
7E0000000000
FE0000000000
FE0000000000
FE000007FFF8
FE000007FFF8
FE000007FFF8
7E00000007F8
7E00000001F8
7F00000001F8
7F00000001F8
7F00000001F8
7F00000001F8
3F80000001F8
3F80000001F8
3FC0000001F8
1FC0000001F8
1FE0000001F8
0FE0000001F8
07F0000001F8
07F8000001F8
03FC000003F8
01FE000007F8
00FF80000FF0
007FE0003FE0
001FFC01FF80
000FFFFFFE00
0003FFFFF800
00007FFF8000
ENDCHAR
STARTCHAR 0068
ENCODING 104
SWIDTH 765 0
DWIDTH 51 0
BBX 47 48 2 0
BITMAP
FFF800003FFE
FFFC00003FFE
7FF800003FFE
3FE000000FF8
0FC0000007F0
0FC0000007F0
0FC0000007E0
0FC0000003E0
0FC0000003E0
0FC0000003E0
0FC0000003E0
0FC0000003E0
0FC0000003E0
0FC0000003E0
0FC0000003E0
0FC0000003E0
0FC0000003E0
0FC0000003E0
0FC0000003E0
0FC0000003E0
0FFFFFFFFFE0
0FFFFFFFFFE0
0FFFFFFFFFE0
0FFFFFFFFFE0
0FC0000003E0
0FC0000003E0
0FC0000003E0
0FC0000003E0
0FC0000003E0
0FC0000003E0
0FC0000003E0
0FC0000003E0
0FC0000003E0
0FC0000003E0
0FC0000003E0
0FC0000003E0
0FC0000003E0
0FC0000003E0
0FC0000003E0
0FC0000003E0
0FC0000007E0
0FC0000007E0
0FC0000007F0
1FC0000007F0
3FF000000FF8
7FF800003FFE
FFFC00003FFE
7FF800003FFE
ENDCHAR
STARTCHAR 0069
ENCODING 105
SWIDTH 270 0
DWIDTH 18 0
BBX 14 48 2 0
BITMAP
7FFC
FFFC
7FF8
1FF0
0FE0
0FC0
0FC0
0FC0
0FC0
0FC0
0FC0
0FC0
0FC0
0FC0
0FC0
0FC0
0FC0
0FC0
0FC0
0FC0
0FC0
0FC0
0FC0
0FC0
0FC0
0FC0
0FC0
0FC0
0FC0
0FC0
0FC0
0FC0
0FC0
0FC0
0FC0
0FC0
0FC0
0FC0
0FC0
0FC0
0FC0
0FC0
0FC0
0FE0
3FF0
7FF8
FFFC
7FFC
ENDCHAR
STARTCHAR 006A
ENCODING 106
SWIDTH 450 0
DWIDTH 30 0
BBX 28 49 0 -1
BITMAP
0003FFF0
0003FFF0
0001FFF0
00007FC0
00001F80
00001F80
00001F80
00001F80
00001F80
00001F80
00001F80
00001F80
00001F80
00001F80
00001F80
00001F80
00001F80
00001F80
00001F80
00001F80
00001F80
00001F80
00001F80
00001F80
00001F80
00001F80
00001F80
00001F80
00001F80
00001F80
00001F80
0F001F80
3F801F80
7FC01F80
7FC01F80
FF801F80
FE001F80
F8001F80
F0001F80
F0001F80
F0001F00
F0003F00
F0003F00
F8007E00
7C00FE00
3F03FC00
1FFFF800
0FFFF000
03FFC000
ENDCHAR
STARTCHAR 006B
ENCODING 107
SWIDTH 615 0
DWIDTH 41 0
BBX 41 48 2 0
BITMAP
FFF8007FFE00
FFFC007FFE00
7FF8003FFC00
3FE0001FF000
0FC0000FE000
0FC0000FC000
0FC0000F8000
0FC0001F0000
0FC0003F0000
0FC0007E0000
0FC0007C0000
0FC000F80000
0FC001F00000
0FC003E00000
0FC007C00000
0FC00F800000
0FC01F000000
0FC03E000000
0FC07C000000
0FC0FC000000
0FC1FE000000
0FC3FF000000
0FC7FF800000
0FCFBFC00000
0FDF1FE00000
0FFE0FE00000
0FFC07F00000
0FF803F80000
0FF001FC0000
0FE001FC0000
0FC000FE0000
0FC0007F0000
0FC0003F0000
0FC0003F8000
0FC0001F8000
0FC0000FC000
0FC0000FE000
0FC00007E000
0FC00007F000
0FC00003F000
0FC00003F800
0FC00001F800
0FC00001FC00
1FC00001FC00
3FF00003FF00
7FF80007FF80
FFFC000FFF80
7FF80007FF80
ENDCHAR
STARTCHAR 006C
ENCODING 108
SWIDTH 570 0
DWIDTH 38 0
BBX 37 48 2 0
BITMAP
FFFC000000
FFFC000000
7FF8000000
3FE0000000
0FC0000000
0FC0000000
0FC0000000
0FC0000000
0FC0000000
0FC0000000
0FC0000000
0FC0000000
0FC0000000
0FC0000000
0FC0000000
0FC0000000
0FC0000000
0FC0000000
0FC0000000
0FC0000000
0FC0000000
0FC0000000
0FC0000000
0FC0000000
0FC0000000
0FC0000000
0FC0000000
0FC0000000
0FC0000000
0FC0000000
0FC0000000
0FC0000000
0FC0000000
0FC0000000
0FC0000000
0FC0000000
0FC0000000
0FC0000000
0FC0000000
0FC0000000
0FC0000038
0FC0000078
0FC00001F8
1FE0000FF8
3FFFFFFFF8
7FFFFFFFF8
FFFFFFFFF0
7FFFFFFFF0
ENDCHAR
STARTCHAR 006D
ENCODING 109
SWIDTH 810 0
DWIDTH 54 0
BBX 52 48 1 0
BITMAP
7FF00000007FF0
7FF8000000FFF0
7FF8000000FFF0
0FFC000001FFC0
07FC000001FF00
07FE000001FF00
07FE000003FF00
07FE000003FF00
07FF000007FF00
07FF000007BF00
07DF800007BF00
07DF80000FBF00
07CF80000F3F00
07CFC0001F3F00
078FC0001E3F00
0787E0003E3F00
0787E0003E3F00
0783F0003C3F00
0783F0007C3F00
0781F000783F00
0781F800F83F00
0781F800F03F00
0780FC01F03F00
0780FC01E03F00
07807E03E03F00
07807E03C03F00
07803E07C03F00
07803F07C03F00
07803F0F803F00
07801F8F803F00
07801F9F003F00
07800FDF003F00
07800FFE003F00
078007FE003F00
078007FC003F00
078003FC003F00
0F8003F8003F00
0F8001F8003F00
0F8001F0003F00
0F8000F0003F00
0F8000E0003F00
0F800040003F00
0F800000003F00
0F800000003F80
1FE00000007FC0
7FF8000001FFF0
FFF8000003FFF0
FFF8000003FFF0
ENDCHAR
STARTCHAR 006E
ENCODING 110
SWIDTH 720 0
DWIDTH 48 0
BBX 47 49 0 -1
BITMAP
7FF000001FFE
FFF800003FFE
7FFC00001FFC
1FFE000003F0
07FF000001E0
07FF800001E0
03FF800001E0
03DFC00001E0
03DFE00001E0
03CFF00001E0
03C7F80001E0
03C3F80001E0
03C1FC0001E0
03C0FE0001E0
03C07F0001E0
03C07F8001E0
03C03F8001E0
03C01FC001E0
03C00FE001E0
03C007F001E0
03C007F001E0
03C003F801E0
03C001FC01E0
03C000FE01E0
03C000FE01E0
03C0007F01E0
03C0003F81E0
03C0001F81E0
03C0001FC1E0
03C0000FE1E0
03C00007E1E0
03C00007F1E0
03C00003F9E0
03C00001FDE0
03C00000FDE0
03C00000FFE0
03C000007FE0
03C000003FE0
03C000003FE0
07C000001FE0
07C000001FE0
07C000000FE0
07C0000007E0
07E0000007E0
0FF0000003E0
7FFE000001E0
7FFF000001E0
7FFE000000E0
000000000040
ENDCHAR
STARTCHAR 006F
ENCODING 111
SWIDTH 765 0
DWIDTH 51 0
BBX 47 50 2 -1
BITMAP
00003FFC0000
0001FFFF8000
0007FFFFE000
001FFEFFF000
003FC007FC00
00FF0001FE00
01FC00007F00
03F800003F80
03F000001FC0
07E000000FC0
0FE000000FE0
0FC0000007F0
1FC0000003F0
1F80000003F8
3F80000003F8
3F00000001F8
7F00000001FC
7F00000001FC
7F00000001FC
7F00000000FC
7E00000000FE
7E00000000FE
FE00000000FE
FE00000000FE
FE00000000FE
FE00000000FE
FE00000000FE
FE00000000FE
FE00000000FE
7E00000000FE
7E00000000FC
7F00000000FC
7F00000001FC
7F00000001FC
3F00000001F8
3F80000003F8
3F80000003F8
1FC0000003F0
1FC0000007F0
0FE0000007E0
07E000000FE0
07F000001FC0
03F800003F80
01FC00007F00
00FE0000FE00
007F8003FC00
003FF83FF800
000FFFFFE000
0003FFFF8000
00007FFC0000
ENDCHAR
STARTCHAR 0070
ENCODING 112
SWIDTH 600 0
DWIDTH 40 0
BBX 37 48 2 0
BITMAP
FFFFFFC000
FFFFFFF800
7FFFFFFF00
3FFE0FFF80
0FE000FFC0
0FE0001FE0
0FC0000FF0
0FC00007F0
0FC00003F8
0FC00003F8
0FC00003F8
0FC00001F8
0FC00001F8
0FC00001F8
0FC00001F8
0FC00003F8
0FC00003F8
0FC00003F0
0FC00007F0
0FC0000FE0
0FC0001FE0
0FC0003FC0
0FC000FF80
0FC003FF00
0FC01FFC00
0FDFFFF800
0FFFFFC000
0FFFFF0000
0FFFE00000
0FC0000000
0FC0000000
0FC0000000
0FC0000000
0FC0000000
0FC0000000
0FC0000000
0FC0000000
0FC0000000
0FC0000000
0FC0000000
0FC0000000
0FC0000000
0FC0000000
1FC0000000
3FF0000000
7FFC000000
FFFE000000
7FFC000000
ENDCHAR
STARTCHAR 0071
ENCODING 113
SWIDTH 765 0
DWIDTH 51 0
BBX 47 59 2 -10
BITMAP
00003FFC0000
0001FFFF8000
000FFFFFE000
001FFEFFF000
007FC007FC00
00FF0001FE00
01FC00007F00
03F800003F80
03F000001FC0
07E000000FC0
0FE000000FE0
0FC0000007F0
1FC0000003F0
1F80000003F8
3F80000003F8
3F00000001F8
7F00000001FC
7F00000001FC
7F00000001FC
7F00000000FC
7E00000000FE
FE00000000FE
FE00000000FE
FE00000000FE
FE00000000FE
FE00000000FE
FE00000000FE
FE00000000FE
FE00000000FE
7E00000000FE
7F00000000FC
7F00000001FC
7F00000001FC
7F00000001FC
3F00000001F8
3F80000003F8
3F80000003F8
1FC0018003F0
1FC001C007F0
0FE001C007E0
0FE001C00FC0
07F001C01FC0
03F801C03F80
01FC01E07F00
00FE00E0FE00
007F80F3FC00
003FF8FFF000
000FFFFFE000
0003FFFF8000
00007FFE0000
0000001F0000
0000001F8000
0000000FF000
00000007FFF8
00000003FFFC
00000000FFFC
000000007FFC
000000000FFC
0000000001E0
ENDCHAR
STARTCHAR 0072
ENCODING 114
SWIDTH 630 0
DWIDTH 42 0
BBX 41 48 2 0
BITMAP
FFFFFFF00000
FFFFFFFF0000
7FFFFFFFC000
3FFFFFFFE000
0FE0007FF000
0FC0000FF800
0FC00007F800
0FC00003F800
0FC00001FC00
0FC00001FC00
0FC00001FC00
0FC00001FC00
0FC00001FC00
0FC00001FC00
0FC00001F800
0FC00003F800
0FC00007F000
0FC0000FF000
0FC0001FE000
0FC0003FC000
0FC001FF8000
0FC00FFF0000
0FC0FFFC0000
0FFFFFF00000
0FFFFFE00000
0FFFFFF00000
0FFF03F80000
0FC003F80000
0FC001FC0000
0FC000FE0000
0FC0007E0000
0FC0007F0000
0FC0003F0000
0FC0001F8000
0FC0001F8000
0FC0000FC000
0FC0000FC000
0FC00007E000
0FC00007E000
0FC00003F000
0FC00003F000
0FC00003F800
0FC00003F800
1FC00003FC00
3FF00007FE00
7FFC000FFF00
FFFC001FFF80
7FFC001FFF80
ENDCHAR
STARTCHAR 0073
ENCODING 115
SWIDTH 570 0
DWIDTH 38 0
BBX 36 50 1 -1
BITMAP
000FFF0000
007FFFF000
00FFFFFC00
03FC0FFE00
07E001FF00
07C000FF00
0F80003F00
1F00001F00
1F00000F00
3F00000700
3E00000300
3E00000000
3E00000000
3F00000000
3F00000000
3F00000000
3F80000000
3FC0000000
1FF0000000
1FFC000000
0FFFC00000
07FFFE0000
03FFFFE000
01FFFFF800
007FFFFE00
000FFFFF00
0000FFFF80
000007FFC0
000000FFC0
0000001FE0
0000000FE0
00000007E0
00000003F0
00000003F0
00000003F0
00000001F0
E0000001F0
F0000003E0
F0000003E0
F8000003E0
F8000003E0
7C000007C0
7E00000FC0
3F00001F80
1FC0003F00
0FF000FE00
07FF9FFC00
03FFFFF800
00FFFFE000
001FFF0000
ENDCHAR
STARTCHAR 0074
ENCODING 116
SWIDTH 600 0
DWIDTH 40 0
BBX 39 48 0 0
BITMAP
3FFFFFFFFC
7FFFFFFFFC
7FFFFFFFFE
7FF1FF0FFE
FF007E00FE
FC007E007E
F8007E001E
F0007E000E
E0007E0006
00007E0000
00007E0000
00007E0000
00007E0000
00007E0000
00007E0000
00007E0000
00007E0000
00007E0000
00007E0000
00007E0000
00007E0000
00007E0000
00007E0000
00007E0000
00007E0000
00007E0000
00007E0000
00007E0000
00007E0000
00007E0000
00007E0000
00007E0000
00007E0000
00007E0000
00007E0000
00007E0000
00007E0000
00007E0000
00007E0000
00007E0000
00007E0000
00007E0000
00007E0000
0000FE0000
0001FF0000
0007FFC000
0007FFE000
0007FFE000
ENDCHAR
STARTCHAR 0075
ENCODING 117
SWIDTH 705 0
DWIDTH 47 0
BBX 43 49 2 -1
BITMAP
FFF80003FFE0
FFFC0003FFE0
FFF80001FFE0
3FF00000FF80
1FC000003F00
1FC000001F00
1FC000001F00
1F8000001F00
1F8000001F00
1F8000001F00
1F8000001F00
1F8000001F00
1F8000001F00
1F8000001F00
1F8000001F00
1F0000000F00
1F0000000F00
1F0000000F00
1F0000000F00
1F0000000F00
3F0000000F00
3F0000000F00
3F0000000F80
3F0000000F80
3F0000000F80
3F0000000F80
3F0000000F80
3F0000000F80
3F0000000F80
3F0000000F80
3F0000000F80
3F0000000F80
1F0000000F00
1F0000001F00
1F8000001F00
1F8000001F00
1F8000001F00
1F8000003E00
0FC000003E00
0FC000003E00
07E000007C00
07F00000FC00
03F80001F800
03FC0003F000
01FF001FE000
00FFFFFFC000
003FFFFF8000
001FFFFE0000
0003FFF00000
ENDCHAR
STARTCHAR 0076
ENCODING 118
SWIDTH 645 0
DWIDTH 43 0
BBX 44 49 0 -1
BITMAP
FFF00000FFE0
FFF80000FFF0
7FF00000FFE0
7FC000003FC0
3F8000001FC0
3F8000000F80
3F8000000F80
1F8000001F80
1F8000001F00
1F8000001F00
0FC000001F00
0FC000001E00
0FC000003E00
0FC000003E00
07E000003E00
07E000007C00
07E000007C00
03F000007C00
03F000007800
03F00000F800
01F80000F800
01F80000F000
01F80001F000
00FC0001F000
00FC0003E000
00FC0003E000
007E0003C000
007E0007C000
007F0007C000
003F000F8000
003F000F8000
001F800F0000
001F801F0000
000FC01F0000
000FC03E0000
000FE03E0000
0007E07C0000
0007F07C0000
0003F0F80000
0003F9F80000
0001FDF00000
0001FFF00000
0000FFE00000
0000FFE00000
00007FC00000
00003F800000
00003F800000
00001F000000
00000E000000
ENDCHAR
STARTCHAR 0077
ENCODING 119
SWIDTH 915 0
DWIDTH 61 0
BBX 61 49 0 -1
BITMAP
FFF8007FF8003FF8
FFF8007FFC007FF8
7FF0007FF8003FF8
3FC0001FF0000FF0
1F80000FC00007E0
1F80000FC00003C0
1F80000FC00003C0
1F80000FC00003C0
1F80000FC00003C0
0F80000FC0000780
0F80000FC0000780
0FC0000FC0000780
0FC0001FE0000780
07C0001FE0000780
07C0001FE0000700
07C0001FE0000F00
07E0003FF0000F00
07E0003FF0000F00
03E0003DF0000F00
03E0003DF8001E00
03F00079F8001E00
03F00079F8001E00
01F00078FC001E00
01F000F8FC003C00
01F800F0FC003C00
01F800F07E003C00
00F801F07E007C00
00FC01E07E007800
00FC01E03F007800
00FC03E03F00F800
007E03C03F00F000
007E07C01F80F000
007E07C01F81F000
003F07800FC1F000
003F0F800FC1E000
003F0F800FE3E000
003F8F0007E3E000
001F9F0007E3C000
001F9F0003F7C000
001FFE0003F7C000
000FFE0003FF8000
000FFC0001FF8000
000FFC0001FF8000
0007F80000FF0000
0007F80000FF0000
0003F000007E0000
0003F000007E0000
0001E000003C0000
0001C00000180000
ENDCHAR
STARTCHAR 0078
ENCODING 120
SWIDTH 660 0
DWIDTH 44 0
BBX 43 48 1 0
BITMAP
FFFC000FFF00
FFFC001FFF00
7FF80007FE00
1FE00003F800
0FE00001F800
0FE00001F000
07F00003E000
03F00003C000
03F80007C000
01F800078000
01FC000F0000
00FE001F0000
007E001E0000
007F003C0000
003F807C0000
001FC0F80000
001FE0F00000
000FE1E00000
0007F3E00000
0003FFC00000
0003FF800000
0001FF000000
0000FF000000
00007F800000
00007F800000
0000FFC00000
0000FFE00000
0001E7F00000
0003E7F80000
0007C3FC0000
000781FC0000
000F80FE0000
001F007F0000
001E003F0000
003E001F8000
007C001FC000
0078000FE000
00F80007E000
01F00007F000
03F00003F800
03E00001F800
07E00001FC00
0FC00001FE00
0FC00000FE00
3FC00000FF80
7FF00003FFC0
FFF80007FFE0
FFF80003FFE0
ENDCHAR
STARTCHAR 0079
ENCODING 121
SWIDTH 645 0
DWIDTH 43 0
BBX 45 48 -1 0
BITMAP
FFFC00007FF8
FFFC00007FF8
FFF800007FF0
3FE000001FE0
0FE000000FC0
0FE000000F80
07E000000F80
07F000001F00
03F000001E00
01F800003E00
01FC00003C00
00FC00007800
00FE00007800
007F0000F000
003F0001E000
003F8001E000
001FC003C000
000FE0078000
000FE00F8000
0007F00F0000
0003F81E0000
0001FC3E0000
0001FC3C0000
0000FE780000
00007FF00000
00003FF00000
00003FE00000
00001FC00000
00001FC00000
00000FC00000
00000FC00000
00000FC00000
00000FC00000
00000FC00000
00000FC00000
00000FC00000
00000FC00000
00000FC00000
00000FC00000
00000FC00000
00000FC00000
00000FC00000
00000FC00000
00001FC00000
00003FF00000
00007FF80000
0000FFFC0000
0000FFF80000
ENDCHAR
STARTCHAR 007A
ENCODING 122
SWIDTH 540 0
DWIDTH 36 0
BBX 35 48 1 0
BITMAP
0FFFFFFF80
1FFFFFFFC0
1FFFFFFFC0
1FF8003FC0
1F80001F80
1F00003F80
1E00003F00
1C00007F00
1800007E00
000000FE00
000001FC00
000001F800
000003F800
000007F000
000007E000
00000FE000
00001FC000
00003F8000
00003F0000
00007F0000
0000FE0000
0001FC0000
0001F80000
0003F80000
0007F00000
000FE00000
000FC00000
001FC00000
003F800000
007F000000
007F000000
00FE000000
01FC000000
03F8000000
03F8000000
07F0000000
0FE0000000
0FE0000000
1FC0000040
3F800000E0
3F800001E0
7F000003C0
7F00000FC0
FE00003FC0
FFFFFFFFC0
FFFFFFFFC0
FFFFFFFFC0
7FFFFFFF80
ENDCHAR
STARTCHAR 007B
ENCODING 123
SWIDTH 495 0
DWIDTH 33 0
BBX 22 57 6 -8
BITMAP
0003FC
000FF0
001F00
003E00
003C00
003C00
007C00
007C00
007C00
007C00
007C00
007C00
007C00
007C00
007C00
007C00
007C00
007800
007800
007800
007800
007800
00F800
00F000
01F000
03E000
0F8000
FE0000
F80000
3F0000
07C000
01E000
00F000
00F000
00F800
007800
007800
007800
007800
007800
007C00
007C00
007C00
007C00
007C00
007C00
007C00
007C00
007C00
007C00
007C00
003C00
003E00
001E00
001F80
0007FC
0000FC
ENDCHAR
STARTCHAR 007C
ENCODING 124
SWIDTH 495 0
DWIDTH 33 0
BBX 4 67 15 -16
BITMAP
F0
F0
F0
F0
F0
F0
F0
F0
F0
F0
F0
F0
F0
F0
F0
F0
F0
F0
F0
F0
F0
F0
F0
F0
F0
F0
F0
F0
F0
F0
F0
F0
F0
F0
F0
F0
F0
F0
F0
F0
F0
F0
F0
F0
F0
F0
F0
F0
F0
F0
F0
F0
F0
F0
F0
F0
F0
F0
F0
F0
F0
F0
F0
F0
F0
F0
F0
ENDCHAR
STARTCHAR 007D
ENCODING 125
SWIDTH 495 0
DWIDTH 33 0
BBX 22 57 6 -8
BITMAP
FE0000
7F8000
07C000
03E000
01E000
01F000
00F000
00F000
00F000
00F000
00F000
00F000
00F000
00F000
00F000
00F000
00F000
00F000
00F000
00F000
00F800
00F800
007800
007800
003C00
001E00
000F80
0003FC
0000FC
0007E0
001F00
003E00
007C00
007800
007800
00F800
00F800
00F000
00F000
00F000
00F000
00F000
00F000
00F000
00F000
00F000
00F000
00F000
00F000
00F000
01F000
01F000
01E000
03E000
07C000
FF0000
F80000
ENDCHAR
STARTCHAR 007E
ENCODING 126
SWIDTH 825 0
DWIDTH 55 0
BBX 44 9 6 16
BITMAP
00FF80000030
07FFF00000F0
1FFFFE0001F0
3FFFFFC00FF0
FF007FFFFFC0
FC000FFFFF80
F00001FFFE00
C000003FF000
800000000000
ENDCHAR
STARTCHAR 0080
ENCODING 128
SWIDTH 645 0
DWIDTH 43 0
BBX 45 64 -1 1
BITMAP
0003C0000000
0003E0000000
0003F0000000
0001F8000000
0000FC000000
00003E000000
00001F000000
000007800000
000003C00000
000000E00000
000000300000
000000000000
000000000000
000000000000
000000000000
000003000000
000007800000
00000F800000
00001FC00000
00001FE00000
00003FE00000
00003FF00000
00007FF00000
00007FF80000
0000F9F80000
0000F9FC0000
0001F0FC0000
0001F0FE0000
0001E07E0000
0003E07F0000
0003C03F0000
0007C03F0000
0007801F8000
000F801F8000
000F001FC000
000F000FC000
001F000FE000
001E0007E000
003E0007E000
003C0007F000
003C0003F000
007C0003F000
00780003F800
00FFFFFFF800
00FFFFFFFC00
00FFFFFFFC00
01FFFFFFFC00
01F00000FE00
01E000007E00
03E000007E00
03E000007F00
03C000003F00
07C000003F00
07C000003F00
078000001F80
0F8000001F80
0F8000001F80
1F8000000FC0
1F8000000FC0
1F8000000FE0
3FC000003FF0
7FF000007FF8
FFF00000FFF8
7FF000007FF8
ENDCHAR
STARTCHAR 0081
ENCODING 129
SWIDTH 645 0
DWIDTH 43 0
BBX 45 68 -1 0
BITMAP
000003800000
00000CE00000
000018300000
000038300000
000018300000
000000300000
000000300000
000000300000
000000700000
000000E00000
000003C00000
000007000000
000006000000
000006000000
000006000000
000000000000
000000000000
000000000000
000000000000
000003000000
000007800000
00000F800000
00001FC00000
00001FE00000
00003FE00000
00003FF00000
00007FF00000
00007FF80000
0000F9F80000
0000F9FC0000
0001F0FC0000
0001F0FE0000
0001E07E0000
0003E07F0000
0003C03F0000
0007C03F0000
0007801F8000
000F801F8000
000F001FC000
000F000FC000
001F000FE000
001E0007E000
003E0007E000
003C0007F000
003C0003F000
007C0003F000
00780003F800
00FFFFFFF800
00FFFFFFFC00
00FFFFFFFC00
01FFFFFFFC00
01F00000FE00
01E000007E00
03E000007E00
03E000007F00
03C000003F00
07C000003F00
07C000003F00
078000001F80
0F8000001F80
0F8000001F80
1F8000000FC0
1F8000000FC0
1F8000000FE0
3FC000003FF0
7FF000007FF8
FFF00000FFF8
7FF000007FF8
ENDCHAR
STARTCHAR 008D
ENCODING 141
SWIDTH 645 0
DWIDTH 43 0
BBX 45 73 -1 0
BITMAP
00000001E000
00000003E000
00000007E000
0000000FE000
0000001FC000
0000003F0000
0000007C0000
000000F80000
000001E00000
000003C00000
000007000000
00000C000000
000600040000
000200040000
0003000C0000
0003801C0000
0001FFF80000
0000FFF00000
00007FE00000
00003FC00000
000000000000
000000000000
000000000000
000000000000
000003000000
000007800000
00000F800000
00001FC00000
00001FE00000
00003FE00000
00003FF00000
00007FF00000
00007FF80000
0000F9F80000
0000F9FC0000
0001F0FC0000
0001F0FE0000
0001E07E0000
0003E07F0000
0003C03F0000
0007C03F0000
0007801F8000
000F801F8000
000F001FC000
000F000FC000
001F000FE000
001E0007E000
003E0007E000
003C0007F000
003C0003F000
007C0003F000
00780003F800
00FFFFFFF800
00FFFFFFFC00
00FFFFFFFC00
01FFFFFFFC00
01F00000FE00
01E000007E00
03E000007E00
03E000007F00
03C000003F00
07C000003F00
07C000003F00
078000001F80
0F8000001F80
0F8000001F80
1F8000000FC0
1F8000000FC0
1F8000000FE0
3FC000003FF0
7FF000007FF8
FFF00000FFF8
7FF000007FF8
ENDCHAR
STARTCHAR 008E
ENCODING 142
SWIDTH 645 0
DWIDTH 43 0
BBX 45 74 -1 0
BITMAP
001000000000
003C00000000
007E00000000
007F00000000
003F80000000
001FC0000000
0007E0000000
0001F0000000
0000F8000000
00003C000000
00000E000000
000007000000
000000000000
000600040000
000200040000
0003000C0000
0003801C0000
0001FFF80000
0000FFF00000
00007FE00000
00003FC00000
000000000000
000000000000
000000000000
000000000000
000003000000
000007800000
00000F800000
00001FC00000
00001FE00000
00003FE00000
00003FF00000
00007FF00000
00007FF80000
0000F9F80000
0000F9FC0000
0001F0FC0000
0001F0FE0000
0001E07E0000
0003E07F0000
0003C03F0000
0007C03F0000
0007801F8000
000F801F8000
000F001FC000
000F000FC000
001F000FE000
001E0007E000
003E0007E000
003C0007F000
003C0003F000
007C0003F000
00780003F800
00FFFFFFF800
00FFFFFFFC00
00FFFFFFFC00
01FFFFFFFC00
01F00000FE00
01E000007E00
03E000007E00
03E000007F00
03C000003F00
07C000003F00
07C000003F00
078000001F80
0F8000001F80
0F8000001F80
1F8000000FC0
1F8000000FC0
1F8000000FE0
3FC000003FF0
7FF000007FF8
FFF00000FFF8
7FF000007FF8
ENDCHAR
STARTCHAR 008F
ENCODING 143
SWIDTH 645 0
DWIDTH 43 0
BBX 45 76 -1 0
BITMAP
000007800000
00001CE00000
000038300000
000038300000
000010300000
000000300000
000000300000
000000300000
000000700000
000001E00000
000003C00000
000006000000
000006000000
000006000000
000004000000
000600040000
000200040000
0003000C0000
0003801C0000
0001FFF80000
0000FFF00000
00007FE00000
00003FC00000
000000000000
000000000000
000000000000
000000000000
000003000000
000007800000
00000F800000
00001FC00000
00001FE00000
00003FE00000
00003FF00000
00007FF00000
00007FF80000
0000F9F80000
0000F9FC0000
0001F0FC0000
0001F0FE0000
0001E07E0000
0003E07F0000
0003C03F0000
0007C03F0000
0007801F8000
000F801F8000
000F001FC000
000F000FC000
001F000FE000
001E0007E000
003E0007E000
003C0007F000
003C0003F000
007C0003F000
00780003F800
00FFFFFFF800
00FFFFFFFC00
00FFFFFFFC00
01FFFFFFFC00
01F00000FE00
01E000007E00
03E000007E00
03E000007F00
03C000003F00
07C000003F00
07C000003F00
078000001F80
0F8000001F80
0F8000001F80
1F8000000FC0
1F8000000FC0
1F8000000FE0
3FC000003FF0
7FF000007FF8
FFF00000FFF8
7FF000007FF8
ENDCHAR
STARTCHAR 0090
ENCODING 144
SWIDTH 615 0
DWIDTH 41 0
BBX 41 73 2 0
BITMAP
000000000200
000000000F80
000000001F80
000000003F80
000000007F00
00000000FE00
00000001F800
00000003F000
00000007C000
00007C070000
00007E0E0000
0000FE180000
0001FF200000
0001FF800000
0003C7800000
000783C00000
000701E00000
000E00E00000
001C00700000
001800180000
000000000000
000000000000
000000000000
000000000000
000000000000
FFFFFFFFE000
FFFFFFFFF000
7FFFFFFFF000
3FFFDFFFF000
0FE00007F000
0FC00001F000
0FC000007000
0FC000003000
0FC000000000
0FC000000000
0FC000000000
0FC000000000
0FC000000000
0FC000000000
0FC000000000
0FC000000000
0FC000000000
0FC000000000
0FC0000E0000
0FC0001E0000
0FFFFFFE0000
0FFFFFFE0000
0FFFFFFE0000
0FFFFFFE0000
0FC0000E0000
0FC000040000
0FC000000000
0FC000000000
0FC000000000
0FC000000000
0FC000000000
0FC000000000
0FC000000000
0FC000000000
0FC000000000
0FC000000000
0FC000000000
0FC000000000
0FC000000000
0FC000000C00
0FC000001C00
0FC000003C00
0FC00000FC00
1FE00007FC00
3FFFFFFFFC00
7FFFFFFFFC00
FFFFFFFFF800
7FFFFFFFF000
ENDCHAR
STARTCHAR 009D
ENCODING 157
SWIDTH 765 0
DWIDTH 51 0
BBX 47 70 2 -1
BITMAP
000000004000
00000001E000
00000003E000
00000007E000
0000000FE000
0000001F8000
0000003F0000
0000007C0000
000000F00000
000001E00FC0
000003801C60
000007001830
000000001810
000000000018
000000000038
000000000030
000000000030
0000000000E0
0000000007C0
000000000F80
00003FFC0800
0001FFFF9800
0007FFFFF000
001FFEFFF000
003FC007FC00
00FF0001FE00
01FC00007F00
03F800003F80
03F000001FC0
07E000000FC0
0FE000000FE0
0FC0000007F0
1FC0000003F0
1F80000003F8
3F80000003F8
3F00000001F8
7F00000001FC
7F00000001FC
7F00000001FC
7F00000000FC
7E00000000FE
7E00000000FE
FE00000000FE
FE00000000FE
FE00000000FE
FE00000000FE
FE00000000FE
FE00000000FE
FE00000000FE
7E00000000FE
7E00000000FC
7F00000000FC
7F00000001FC
7F00000001FC
3F00000001F8
3F80000003F8
3F80000003F8
1FC0000003F0
1FC0000007F0
0FE0000007E0
07E000000FE0
07F000001FC0
03F800003F80
01FC00007F00
00FE0000FE00
007F8003FC00
003FF83FF800
000FFFFFE000
0003FFFF8000
00007FFC0000
ENDCHAR
STARTCHAR 009E
ENCODING 158
SWIDTH 765 0
DWIDTH 51 0
BBX 47 70 2 -1
BITMAP
000180000000
0003C0000000
0003E0000000
0003F0000000
0001F8000000
0000FC000000
00003E000000
00001F000000
000007800000
000001C00FC0
000000E01C60
000000301830
000000001810
000000000018
000000000038
000000000030
000000000030
0000000000E0
0000000007C0
000000000F80
00003FFC0800
0001FFFF9800
0007FFFFF000
001FFEFFF000
003FC007FC00
00FF0001FE00
01FC00007F00
03F800003F80
03F000001FC0
07E000000FC0
0FE000000FE0
0FC0000007F0
1FC0000003F0
1F80000003F8
3F80000003F8
3F00000001F8
7F00000001FC
7F00000001FC
7F00000001FC
7F00000000FC
7E00000000FE
7E00000000FE
FE00000000FE
FE00000000FE
FE00000000FE
FE00000000FE
FE00000000FE
FE00000000FE
FE00000000FE
7E00000000FE
7E00000000FC
7F00000000FC
7F00000001FC
7F00000001FC
3F00000001F8
3F80000003F8
3F80000003F8
1FC0000003F0
1FC0000007F0
0FE0000007E0
07E000000FE0
07F000001FC0
03F800003F80
01FC00007F00
00FE0000FE00
007F8003FC00
003FF83FF800
000FFFFFE000
0003FFFF8000
00007FFC0000
ENDCHAR
STARTCHAR 00A0
ENCODING 160
SWIDTH 540 0
DWIDTH 36 0
BBX 0 0 0 0
BITMAP
ENDCHAR
STARTCHAR 00A1
ENCODING 161
SWIDTH 645 0
DWIDTH 43 0
BBX 45 73 -1 0
BITMAP
00000001E000
00000003E000
00000007E000
0000000FE000
0000001FC000
0000003F0000
0000007C0000
000000F80000
000001E00000
000003C00000
000007000000
00000C000000
000600040000
000200040000
0003000C0000
0003801C0000
0001FFF80000
0000FFF00000
00007FE00000
00003FC00000
000000000000
000000000000
000000000000
000000000000
000003000000
000007800000
00000F800000
00001FC00000
00001FE00000
00003FE00000
00003FF00000
00007FF00000
00007FF80000
0000F9F80000
0000F9FC0000
0001F0FC0000
0001F0FE0000
0001E07E0000
0003E07F0000
0003C03F0000
0007C03F0000
0007801F8000
000F801F8000
000F001FC000
000F000FC000
001F000FE000
001E0007E000
003E0007E000
003C0007F000
003C0003F000
007C0003F000
00780003F800
00FFFFFFF800
00FFFFFFFC00
00FFFFFFFC00
01FFFFFFFC00
01F00000FE00
01E000007E00
03E000007E00
03E000007F00
03C000003F00
07C000003F00
07C000003F00
078000001F80
0F8000001F80
0F8000001F80
1F8000000FC0
1F8000000FC0
1F8000000FE0
3FC000003FF0
7FF000007FF8
FFF00000FFF8
7FF000007FF8
ENDCHAR
STARTCHAR 00A2
ENCODING 162
SWIDTH 645 0
DWIDTH 43 0
BBX 45 74 -1 0
BITMAP
001000000000
003C00000000
007E00000000
007F00000000
003F80000000
001FC0000000
0007E0000000
0001F0000000
0000F8000000
00003C000000
00000E000000
000007000000
000000000000
000600040000
000200040000
0003000C0000
0003801C0000
0001FFF80000
0000FFF00000
00007FE00000
00003FC00000
000000000000
000000000000
000000000000
000000000000
000003000000
000007800000
00000F800000
00001FC00000
00001FE00000
00003FE00000
00003FF00000
00007FF00000
00007FF80000
0000F9F80000
0000F9FC0000
0001F0FC0000
0001F0FE0000
0001E07E0000
0003E07F0000
0003C03F0000
0007C03F0000
0007801F8000
000F801F8000
000F001FC000
000F000FC000
001F000FE000
001E0007E000
003E0007E000
003C0007F000
003C0003F000
007C0003F000
00780003F800
00FFFFFFF800
00FFFFFFFC00
00FFFFFFFC00
01FFFFFFFC00
01F00000FE00
01E000007E00
03E000007E00
03E000007F00
03C000003F00
07C000003F00
07C000003F00
078000001F80
0F8000001F80
0F8000001F80
1F8000000FC0
1F8000000FC0
1F8000000FE0
3FC000003FF0
7FF000007FF8
FFF00000FFF8
7FF000007FF8
ENDCHAR
STARTCHAR 00A3
ENCODING 163
SWIDTH 645 0
DWIDTH 43 0
BBX 45 76 -1 0
BITMAP
000007800000
00001CE00000
000038300000
000038300000
000010300000
000000300000
000000300000
000000300000
000000700000
000001E00000
000003C00000
000006000000
000006000000
000006000000
000004000000
000600040000
000200040000
0003000C0000
0003801C0000
0001FFF80000
0000FFF00000
00007FE00000
00003FC00000
000000000000
000000000000
000000000000
000000000000
000003000000
000007800000
00000F800000
00001FC00000
00001FE00000
00003FE00000
00003FF00000
00007FF00000
00007FF80000
0000F9F80000
0000F9FC0000
0001F0FC0000
0001F0FE0000
0001E07E0000
0003E07F0000
0003C03F0000
0007C03F0000
0007801F8000
000F801F8000
000F001FC000
000F000FC000
001F000FE000
001E0007E000
003E0007E000
003C0007F000
003C0003F000
007C0003F000
00780003F800
00FFFFFFF800
00FFFFFFFC00
00FFFFFFFC00
01FFFFFFFC00
01F00000FE00
01E000007E00
03E000007E00
03E000007F00
03C000003F00
07C000003F00
07C000003F00
078000001F80
0F8000001F80
0F8000001F80
1F8000000FC0
1F8000000FC0
1F8000000FE0
3FC000003FF0
7FF000007FF8
FFF00000FFF8
7FF000007FF8
ENDCHAR
STARTCHAR 00A4
ENCODING 164
SWIDTH 645 0
DWIDTH 43 0
BBX 45 73 -1 0
BITMAP
000000030000
000008030000
00007F870000
0000FFFE0000
0001FFFE0000
0003DFFC0000
000301F00000
000300000000
000000000000
000000000000
000000000000
000000000000
000600040000
000200040000
0003000C0000
0003801C0000
0001FFF80000
0000FFF00000
00007FE00000
00003FC00000
000000000000
000000000000
000000000000
000000000000
000003000000
000007800000
00000F800000
00001FC00000
00001FE00000
00003FE00000
00003FF00000
00007FF00000
00007FF80000
0000F9F80000
0000F9FC0000
0001F0FC0000
0001F0FE0000
0001E07E0000
0003E07F0000
0003C03F0000
0007C03F0000
0007801F8000
000F801F8000
000F001FC000
000F000FC000
001F000FE000
001E0007E000
003E0007E000
003C0007F000
003C0003F000
007C0003F000
00780003F800
00FFFFFFF800
00FFFFFFFC00
00FFFFFFFC00
01FFFFFFFC00
01F00000FE00
01E000007E00
03E000007E00
03E000007F00
03C000003F00
07C000003F00
07C000003F00
078000001F80
0F8000001F80
0F8000001F80
1F8000000FC0
1F8000000FC0
1F8000000FE0
3FC000003FF0
7FF000007FF8
FFF00000FFF8
7FF000007FF8
ENDCHAR
STARTCHAR 00A5
ENCODING 165
SWIDTH 645 0
DWIDTH 43 0
BBX 45 71 -1 -10
BITMAP
000600040000
000200040000
0003000C0000
0003801C0000
0001FFF80000
0000FFF00000
00007FE00000
00003FC00000
000000000000
000000000000
000000000000
000000000000
000003000000
000007800000
00000F800000
00001FC00000
00001FE00000
00003FE00000
00003FF00000
00007FF00000
00007FF80000
0000F9F80000
0000F9FC0000
0001F0FC0000
0001F0FE0000
0001E07E0000
0003E07F0000
0003C03F0000
0007C03F0000
0007801F8000
000F801F8000
000F001FC000
000F000FC000
001F000FE000
001E0007E000
003E0007E000
003C0007F000
003C0003F000
007C0003F000
00780003F800
00FFFFFFF800
00FFFFFFFC00
00FFFFFFFC00
01FFFFFFFC00
01F00000FE00
01E000007E00
03E000007E00
03E000007F00
03C000003F00
07C000003F00
07C000003F00
078000001F80
0F8000001F80
0F8000001F80
1F8000000FC0
1F8000000FC0
1F8000000FE0
3FC000003FF0
7FF000007FF8
FFF00000FFF8
7FF000007FF8
000000000000
000000000000
000000000000
00001C000000
00003F000000
00007F000000
00007F000000
00007F000000
00003F000000
00001E000000
ENDCHAR
STARTCHAR 00A6
ENCODING 166
SWIDTH 765 0
DWIDTH 51 0
BBX 47 74 2 -1
BITMAP
000000018000
000000018000
00003F830000
0000FFFF0000
0000FFFE0000
0001FFFE0000
000180F80000
000100000000
000300000000
000000000000
000000000000
000000000000
000000000000
000000000FC0
000000001C60
000000001830
000000001810
000000000018
000000000038
000000000030
000000000030
0000000000E0
0000000007C0
000000000F80
00003FFC0800
0001FFFF9800
0007FFFFF000
001FFEFFF000
003FC007FC00
00FF0001FE00
01FC00007F00
03F800003F80
03F000001FC0
07E000000FC0
0FE000000FE0
0FC0000007F0
1FC0000003F0
1F80000003F8
3F80000003F8
3F00000001F8
7F00000001FC
7F00000001FC
7F00000001FC
7F00000000FC
7E00000000FE
7E00000000FE
FE00000000FE
FE00000000FE
FE00000000FE
FE00000000FE
FE00000000FE
FE00000000FE
FE00000000FE
7E00000000FE
7E00000000FC
7F00000000FC
7F00000001FC
7F00000001FC
3F00000001F8
3F80000003F8
3F80000003F8
1FC0000003F0
1FC0000007F0
0FE0000007E0
07E000000FE0
07F000001FC0
03F800003F80
01FC00007F00
00FE0000FE00
007F8003FC00
003FF83FF800
000FFFFFE000
0003FFFF8000
00007FFC0000
ENDCHAR
STARTCHAR 00A7
ENCODING 167
SWIDTH 765 0
DWIDTH 51 0
BBX 47 70 2 -1
BITMAP
000000004000
00000001E000
00000003E000
00000007E000
0000000FE000
0000001F8000
0000003F0000
0000007C0000
000000F00000
000001E00FC0
000003801C60
000007001830
000000001810
000000000018
000000000038
000000000030
000000000030
0000000000E0
0000000007C0
000000000F80
00003FFC0800
0001FFFF9800
0007FFFFF000
001FFEFFF000
003FC007FC00
00FF0001FE00
01FC00007F00
03F800003F80
03F000001FC0
07E000000FC0
0FE000000FE0
0FC0000007F0
1FC0000003F0
1F80000003F8
3F80000003F8
3F00000001F8
7F00000001FC
7F00000001FC
7F00000001FC
7F00000000FC
7E00000000FE
7E00000000FE
FE00000000FE
FE00000000FE
FE00000000FE
FE00000000FE
FE00000000FE
FE00000000FE
FE00000000FE
7E00000000FE
7E00000000FC
7F00000000FC
7F00000001FC
7F00000001FC
3F00000001F8
3F80000003F8
3F80000003F8
1FC0000003F0
1FC0000007F0
0FE0000007E0
07E000000FE0
07F000001FC0
03F800003F80
01FC00007F00
00FE0000FE00
007F8003FC00
003FF83FF800
000FFFFFE000
0003FFFF8000
00007FFC0000
ENDCHAR
STARTCHAR 00A8
ENCODING 168
SWIDTH 705 0
DWIDTH 47 0
BBX 43 66 2 -1
BITMAP
000100000000
0003C0000000
0007E0000000
0007F0000000
0003F8000000
0001FC000000
00007E000000
00001F000000
00000F800000
000003C00000
000001E00000
000000700000
000000000000
000000000000
000000000000
000000000000
000000000000
FFF80003FFE0
FFFC0003FFE0
FFF80001FFE0
3FF00000FF80
1FC000003F00
1FC000001F00
1FC000001F00
1F8000001F00
1F8000001F00
1F8000001F00
1F8000001F00
1F8000001F00
1F8000001F00
1F8000001F00
1F8000001F00
1F0000000F00
1F0000000F00
1F0000000F00
1F0000000F00
1F0000000F00
3F0000000F00
3F0000000F00
3F0000000F80
3F0000000F80
3F0000000F80
3F0000000F80
3F0000000F80
3F0000000F80
3F0000000F80
3F0000000F80
3F0000000F80
3F0000000F80
1F0000000F00
1F0000001F00
1F8000001F00
1F8000001F00
1F8000001F00
1F8000003E00
0FC000003E00
0FC000003E00
07E000007C00
07F00000FC00
03F80001F800
03FC0003F000
01FF001FE000
00FFFFFFC000
003FFFFF8000
001FFFFE0000
0003FFF00000
ENDCHAR
STARTCHAR 00A9
ENCODING 169
SWIDTH 765 0
DWIDTH 51 0
BBX 47 70 2 -1
BITMAP
000180000000
0003C0000000
0003E0000000
0003F0000000
0001F8000000
0000FC000000
00003E000000
00001F000000
000007800000
000001C00FC0
000000E01C60
000000301830
000000001810
000000000018
000000000038
000000000030
000000000030
0000000000E0
0000000007C0
000000000F80
00003FFC0800
0001FFFF9800
0007FFFFF000
001FFEFFF000
003FC007FC00
00FF0001FE00
01FC00007F00
03F800003F80
03F000001FC0
07E000000FC0
0FE000000FE0
0FC0000007F0
1FC0000003F0
1F80000003F8
3F80000003F8
3F00000001F8
7F00000001FC
7F00000001FC
7F00000001FC
7F00000000FC
7E00000000FE
7E00000000FE
FE00000000FE
FE00000000FE
FE00000000FE
FE00000000FE
FE00000000FE
FE00000000FE
FE00000000FE
7E00000000FE
7E00000000FC
7F00000000FC
7F00000001FC
7F00000001FC
3F00000001F8
3F80000003F8
3F80000003F8
1FC0000003F0
1FC0000007F0
0FE0000007E0
07E000000FE0
07F000001FC0
03F800003F80
01FC00007F00
00FE0000FE00
007F8003FC00
003FF83FF800
000FFFFFE000
0003FFFF8000
00007FFC0000
ENDCHAR
STARTCHAR 00AA
ENCODING 170
SWIDTH 765 0
DWIDTH 51 0
BBX 47 73 2 -1
BITMAP
000001E00000
000007300000
00000C180000
00000C0C0000
00000C0C0000
0000000C0000
0000000C0000
0000001C0000
000000180000
000000780000
000001E00000
000001800000
000001000FC0
000001001C60
000001001830
000000001810
000000000018
000000000038
000000000030
000000000030
0000000000E0
0000000007C0
000000000F80
00003FFC0800
0001FFFF9800
0007FFFFF000
001FFEFFF000
003FC007FC00
00FF0001FE00
01FC00007F00
03F800003F80
03F000001FC0
07E000000FC0
0FE000000FE0
0FC0000007F0
1FC0000003F0
1F80000003F8
3F80000003F8
3F00000001F8
7F00000001FC
7F00000001FC
7F00000001FC
7F00000000FC
7E00000000FE
7E00000000FE
FE00000000FE
FE00000000FE
FE00000000FE
FE00000000FE
FE00000000FE
FE00000000FE
FE00000000FE
7E00000000FE
7E00000000FC
7F00000000FC
7F00000001FC
7F00000001FC
3F00000001F8
3F80000003F8
3F80000003F8
1FC0000003F0
1FC0000007F0
0FE0000007E0
07E000000FE0
07F000001FC0
03F800003F80
01FC00007F00
00FE0000FE00
007F8003FC00
003FF83FF800
000FFFFFE000
0003FFFF8000
00007FFC0000
ENDCHAR
STARTCHAR 00AB
ENCODING 171
SWIDTH 765 0
DWIDTH 51 0
BBX 47 74 2 -1
BITMAP
000000018000
000000018000
00003F830000
0000FFFF0000
0000FFFE0000
0001FFFE0000
000180F80000
000100000000
000300000000
000000000000
000000000000
000000000000
000000000000
000000000FC0
000000001C60
000000001830
000000001810
000000000018
000000000038
000000000030
000000000030
0000000000E0
0000000007C0
000000000F80
00003FFC0800
0001FFFF9800
0007FFFFF000
001FFEFFF000
003FC007FC00
00FF0001FE00
01FC00007F00
03F800003F80
03F000001FC0
07E000000FC0
0FE000000FE0
0FC0000007F0
1FC0000003F0
1F80000003F8
3F80000003F8
3F00000001F8
7F00000001FC
7F00000001FC
7F00000001FC
7F00000000FC
7E00000000FE
7E00000000FE
FE00000000FE
FE00000000FE
FE00000000FE
FE00000000FE
FE00000000FE
FE00000000FE
FE00000000FE
7E00000000FE
7E00000000FC
7F00000000FC
7F00000001FC
7F00000001FC
3F00000001F8
3F80000003F8
3F80000003F8
1FC0000003F0
1FC0000007F0
0FE0000007E0
07E000000FE0
07F000001FC0
03F800003F80
01FC00007F00
00FE0000FE00
007F8003FC00
003FF83FF800
000FFFFFE000
0003FFFF8000
00007FFC0000
ENDCHAR
STARTCHAR 00AC
ENCODING 172
SWIDTH 705 0
DWIDTH 47 0
BBX 43 63 2 -1
BITMAP
00000000C000
00000600C000
00003FE18000
00007FFF8000
00007FFF0000
0000E3FE0000
0000C0380000
000080000000
000000000000
000000000000
000000000000
000000000000
000000000000
000000000000
FFF80003FFE0
FFFC0003FFE0
FFF80001FFE0
3FF00000FF80
1FC000003F00
1FC000001F00
1FC000001F00
1F8000001F00
1F8000001F00
1F8000001F00
1F8000001F00
1F8000001F00
1F8000001F00
1F8000001F00
1F8000001F00
1F0000000F00
1F0000000F00
1F0000000F00
1F0000000F00
1F0000000F00
3F0000000F00
3F0000000F00
3F0000000F80
3F0000000F80
3F0000000F80
3F0000000F80
3F0000000F80
3F0000000F80
3F0000000F80
3F0000000F80
3F0000000F80
3F0000000F80
1F0000000F00
1F0000001F00
1F8000001F00
1F8000001F00
1F8000001F00
1F8000003E00
0FC000003E00
0FC000003E00
07E000007C00
07F00000FC00
03F80001F800
03FC0003F000
01FF001FE000
00FFFFFFC000
003FFFFF8000
001FFFFE0000
0003FFF00000
ENDCHAR
STARTCHAR 00AD
ENCODING 173
SWIDTH 705 0
DWIDTH 47 0
BBX 48 70 2 -1
BITMAP
00000001C000
00000007C000
0000000FE000
0000001FC000
0000001F8000
0000003F0000
0000007C0000
000000F00000
000001E00000
0000038000F8
00000700038E
00000C000386
000000000103
000000000003
000000000003
000000000007
000000000006
00000000001E
0000000000FC
0000000001F0
000000000100
FFF80003FFE0
FFFC0003FFE0
FFF80001FFE0
3FF00000FF80
1FC000003F00
1FC000001F00
1FC000001F00
1F8000001F00
1F8000001F00
1F8000001F00
1F8000001F00
1F8000001F00
1F8000001F00
1F8000001F00
1F8000001F00
1F0000000F00
1F0000000F00
1F0000000F00
1F0000000F00
1F0000000F00
3F0000000F00
3F0000000F00
3F0000000F80
3F0000000F80
3F0000000F80
3F0000000F80
3F0000000F80
3F0000000F80
3F0000000F80
3F0000000F80
3F0000000F80
3F0000000F80
1F0000000F00
1F0000001F00
1F8000001F00
1F8000001F00
1F8000001F00
1F8000003E00
0FC000003E00
0FC000003E00
07E000007C00
07F00000FC00
03F80001F800
03FC0003F000
01FF001FE000
00FFFFFFC000
003FFFFF8000
001FFFFE0000
0003FFF00000
ENDCHAR
STARTCHAR 00AE
ENCODING 174
SWIDTH 765 0
DWIDTH 51 0
BBX 47 71 2 -11
BITMAP
000000000FC0
000000001C60
000000001830
000000001810
000000000018
000000000038
000000000030
000000000030
0000000000E0
0000000007C0
000000000F80
00003FFC0800
0001FFFF9800
0007FFFFF000
001FFEFFF000
003FC007FC00
00FF0001FE00
01FC00007F00
03F800003F80
03F000001FC0
07E000000FC0
0FE000000FE0
0FC0000007F0
1FC0000003F0
1F80000003F8
3F80000003F8
3F00000001F8
7F00000001FC
7F00000001FC
7F00000001FC
7F00000000FC
7E00000000FE
7E00000000FE
FE00000000FE
FE00000000FE
FE00000000FE
FE00000000FE
FE00000000FE
FE00000000FE
FE00000000FE
7E00000000FE
7E00000000FC
7F00000000FC
7F00000001FC
7F00000001FC
3F00000001F8
3F80000003F8
3F80000003F8
1FC0000003F0
1FC0000007F0
0FE0000007E0
07E000000FE0
07F000001FC0
03F800003F80
01FC00007F00
00FE0000FE00
007F8003FC00
003FF83FF800
000FFFFFE000
0003FFFF8000
00007FFC0000
000000000000
000000000000
000000000000
000001800000
000007E00000
000007E00000
00000FF00000
00000FE00000
000007E00000
000007C00000
ENDCHAR
STARTCHAR 00AF
ENCODING 175
SWIDTH 705 0
DWIDTH 47 0
BBX 48 69 2 -1
BITMAP
000700000000
000FC0000000
000FE0000000
0007F0000000
0003F8000000
0001FC000000
00007E000000
00001E000000
00000F0000F8
00000380038E
000001C00386
000000600103
000000000003
000000000003
000000000007
000000000006
00000000001E
0000000000FC
0000000001F0
000000000100
FFF80003FFE0
FFFC0003FFE0
FFF80001FFE0
3FF00000FF80
1FC000003F00
1FC000001F00
1FC000001F00
1F8000001F00
1F8000001F00
1F8000001F00
1F8000001F00
1F8000001F00
1F8000001F00
1F8000001F00
1F8000001F00
1F0000000F00
1F0000000F00
1F0000000F00
1F0000000F00
1F0000000F00
3F0000000F00
3F0000000F00
3F0000000F80
3F0000000F80
3F0000000F80
3F0000000F80
3F0000000F80
3F0000000F80
3F0000000F80
3F0000000F80
3F0000000F80
3F0000000F80
1F0000000F00
1F0000001F00
1F8000001F00
1F8000001F00
1F8000001F00
1F8000003E00
0FC000003E00
0FC000003E00
07E000007C00
07F00000FC00
03F80001F800
03FC0003F000
01FF001FE000
00FFFFFFC000
003FFFFF8000
001FFFFE0000
0003FFF00000
ENDCHAR
STARTCHAR 00B0
ENCODING 176
SWIDTH 765 0
DWIDTH 51 0
BBX 47 76 2 -1
BITMAP
000000001800
00000000EE00
000000018300
000000018180
000000018180
000000000180
000000000180
000000000380
000000000300
000000000F00
000000001E00
000007C03800
000007E02000
00000FE02000
00001FF02000
00001EF80000
00003C780000
0000783C0000
0000701E0000
0000E00E0000
0001C0070000
000180018000
000000000000
000000000000
000000000000
000000000000
00003FFC0000
0001FFFF8000
0007FFFFE000
001FFEFFF000
003FC007FC00
00FF0001FE00
01FC00007F00
03F800003F80
03F000001FC0
07E000000FC0
0FE000000FE0
0FC0000007F0
1FC0000003F0
1F80000003F8
3F80000003F8
3F00000001F8
7F00000001FC
7F00000001FC
7F00000001FC
7F00000000FC
7E00000000FE
7E00000000FE
FE00000000FE
FE00000000FE
FE00000000FE
FE00000000FE
FE00000000FE
FE00000000FE
FE00000000FE
7E00000000FE
7E00000000FC
7F00000000FC
7F00000001FC
7F00000001FC
3F00000001F8
3F80000003F8
3F80000003F8
1FC0000003F0
1FC0000007F0
0FE0000007E0
07E000000FE0
07F000001FC0
03F800003F80
01FC00007F00
00FE0000FE00
007F8003FC00
003FF83FF800
000FFFFFE000
0003FFFF8000
00007FFC0000
ENDCHAR
STARTCHAR 00B1
ENCODING 177
SWIDTH 705 0
DWIDTH 47 0
BBX 48 70 2 -1
BITMAP
000003F00000
00000C380000
00000C180000
00000C0C0000
0000000C0000
0000000C0000
0000001C0000
000000180000
000000380000
000000F000F8
000001C0038E
000001000386
000001000103
000001000003
000001000003
000000000007
000000000006
00000000001E
0000000000FC
0000000001F0
000000000100
FFF80003FFE0
FFFC0003FFE0
FFF80001FFE0
3FF00000FF80
1FC000003F00
1FC000001F00
1FC000001F00
1F8000001F00
1F8000001F00
1F8000001F00
1F8000001F00
1F8000001F00
1F8000001F00
1F8000001F00
1F8000001F00
1F0000000F00
1F0000000F00
1F0000000F00
1F0000000F00
1F0000000F00
3F0000000F00
3F0000000F00
3F0000000F80
3F0000000F80
3F0000000F80
3F0000000F80
3F0000000F80
3F0000000F80
3F0000000F80
3F0000000F80
3F0000000F80
3F0000000F80
1F0000000F00
1F0000001F00
1F8000001F00
1F8000001F00
1F8000001F00
1F8000003E00
0FC000003E00
0FC000003E00
07E000007C00
07F00000FC00
03F80001F800
03FC0003F000
01FF001FE000
00FFFFFFC000
003FFFFF8000
001FFFFE0000
0003FFF00000
ENDCHAR
STARTCHAR 00B2
ENCODING 178
SWIDTH 645 0
DWIDTH 43 0
BBX 45 64 -1 0
BITMAP
000700000000
000F80000000
000FC0000000
000FE0000000
0007F0000000
0001F8000000
0000FC000000
00003E000000
00000F000000
000007800000
000001C00000
000000E00000
000000000000
000000000000
000000000000
000000000000
FFFC00007FF8
FFFC00007FF8
FFF800007FF0
3FE000001FE0
0FE000000FC0
0FE000000F80
07E000000F80
07F000001F00
03F000001E00
01F800003E00
01FC00003C00
00FC00007800
00FE00007800
007F0000F000
003F0001E000
003F8001E000
001FC003C000
000FE0078000
000FE00F8000
0007F00F0000
0003F81E0000
0001FC3E0000
0001FC3C0000
0000FE780000
00007FF00000
00003FF00000
00003FE00000
00001FC00000
00001FC00000
00000FC00000
00000FC00000
00000FC00000
00000FC00000
00000FC00000
00000FC00000
00000FC00000
00000FC00000
00000FC00000
00000FC00000
00000FC00000
00000FC00000
00000FC00000
00000FC00000
00001FC00000
00003FF00000
00007FF80000
0000FFFC0000
0000FFF80000
ENDCHAR
STARTCHAR 00B3
ENCODING 179
SWIDTH 645 0
DWIDTH 43 0
BBX 45 62 -1 0
BITMAP
000000006000
00000FC0C000
00003FFFC000
00007FFF8000
00007FFF8000
000060FE0000
0000C0000000
0000C0000000
000000000000
000000000000
000000000000
000000000000
000000000000
000000000000
FFFC00007FF8
FFFC00007FF8
FFF800007FF0
3FE000001FE0
0FE000000FC0
0FE000000F80
07E000000F80
07F000001F00
03F000001E00
01F800003E00
01FC00003C00
00FC00007800
00FE00007800
007F0000F000
003F0001E000
003F8001E000
001FC003C000
000FE0078000
000FE00F8000
0007F00F0000
0003F81E0000
0001FC3E0000
0001FC3C0000
0000FE780000
00007FF00000
00003FF00000
00003FE00000
00001FC00000
00001FC00000
00000FC00000
00000FC00000
00000FC00000
00000FC00000
00000FC00000
00000FC00000
00000FC00000
00000FC00000
00000FC00000
00000FC00000
00000FC00000
00000FC00000
00000FC00000
00000FC00000
00001FC00000
00003FF00000
00007FF80000
0000FFFC0000
0000FFF80000
ENDCHAR
STARTCHAR 00B4
ENCODING 180
SWIDTH 270 0
DWIDTH 18 0
BBX 16 64 2 1
BITMAP
000F
001F
003F
007F
00FC
01F8
03E0
07C0
0F00
1C00
3800
0000
0000
0000
0000
0000
7FFC
FFFC
7FF8
1FF0
0FE0
0FC0
0FC0
0FC0
0FC0
0FC0
0FC0
0FC0
0FC0
0FC0
0FC0
0FC0
0FC0
0FC0
0FC0
0FC0
0FC0
0FC0
0FC0
0FC0
0FC0
0FC0
0FC0
0FC0
0FC0
0FC0
0FC0
0FC0
0FC0
0FC0
0FC0
0FC0
0FC0
0FC0
0FC0
0FC0
0FC0
0FC0
0FC0
0FE0
3FF0
7FF8
FFFC
7FFC
ENDCHAR
STARTCHAR 00B5
ENCODING 181
SWIDTH 270 0
DWIDTH 18 0
BBX 16 65 0 0
BITMAP
2000
F800
FC00
FE00
7F00
3F80
0FC0
07C0
01E0
0070
0038
000C
0000
0000
0000
0000
0000
1FFF
3FFF
1FFE
07FC
03F8
03F0
03F0
03F0
03F0
03F0
03F0
03F0
03F0
03F0
03F0
03F0
03F0
03F0
03F0
03F0
03F0
03F0
03F0
03F0
03F0
03F0
03F0
03F0
03F0
03F0
03F0
03F0
03F0
03F0
03F0
03F0
03F0
03F0
03F0
03F0
03F0
03F0
03F0
03F8
0FFC
1FFE
3FFF
1FFF
ENDCHAR
STARTCHAR 00B6
ENCODING 182
SWIDTH 765 0
DWIDTH 51 0
BBX 47 75 2 -11
BITMAP
000007C00000
000007E00000
00000FE00000
00001FF00000
00001EF80000
00003C780000
0000783C0000
0000701E0000
0000E00E0000
0001C0070000
000180018000
000000000000
000000000000
000000000000
000000000000
00003FFC0000
0001FFFF8000
0007FFFFE000
001FFEFFF000
003FC007FC00
00FF0001FE00
01FC00007F00
03F800003F80
03F000001FC0
07E000000FC0
0FE000000FE0
0FC0000007F0
1FC0000003F0
1F80000003F8
3F80000003F8
3F00000001F8
7F00000001FC
7F00000001FC
7F00000001FC
7F00000000FC
7E00000000FE
7E00000000FE
FE00000000FE
FE00000000FE
FE00000000FE
FE00000000FE
FE00000000FE
FE00000000FE
FE00000000FE
7E00000000FE
7E00000000FC
7F00000000FC
7F00000001FC
7F00000001FC
3F00000001F8
3F80000003F8
3F80000003F8
1FC0000003F0
1FC0000007F0
0FE0000007E0
07E000000FE0
07F000001FC0
03F800003F80
01FC00007F00
00FE0000FE00
007F8003FC00
003FF83FF800
000FFFFFE000
0003FFFF8000
00007FFC0000
000000000000
000000000000
000000000000
000001800000
000007E00000
000007E00000
00000FF00000
00000FE00000
000007E00000
000007C00000
ENDCHAR
STARTCHAR 00B8
ENCODING 184
SWIDTH 270 0
DWIDTH 18 0
BBX 19 61 -1 0
BITMAP
000060
0FC0E0
1FFDC0
3FFFC0
7FFF80
60FF00
400000
C00000
000000
000000
000000
000000
000000
0FFF80
1FFF80
0FFF00
03FE00
01FC00
01F800
01F800
01F800
01F800
01F800
01F800
01F800
01F800
01F800
01F800
01F800
01F800
01F800
01F800
01F800
01F800
01F800
01F800
01F800
01F800
01F800
01F800
01F800
01F800
01F800
01F800
01F800
01F800
01F800
01F800
01F800
01F800
01F800
01F800
01F800
01F800
01F800
01F800
01FC00
07FE00
0FFF00
1FFF80
0FFF80
ENDCHAR
STARTCHAR 00B9
ENCODING 185
SWIDTH 765 0
DWIDTH 51 0
BBX 47 66 2 -1
BITMAP
000000020000
0000000F8000
0000001F8000
0000003F8000
0000007F0000
000000FE0000
000001F80000
000003F00000
000007C00000
00000F000000
00001E000000
000018000000
000020000000
000000000000
000000000000
000000000000
00003FFC0000
0001FFFF8000
0007FFFFE000
001FFEFFF000
003FC007FC00
00FF0001FE00
01FC00007F00
03F800003F80
03F000001FC0
07E000000FC0
0FE000000FE0
0FC0000007F0
1FC0000003F0
1F80000003F8
3F80000003F8
3F00000001F8
7F00000001FC
7F00000001FC
7F00000001FC
7F00000000FC
7E00000000FE
7E00000000FE
FE00000000FE
FE00000000FE
FE00000000FE
FE00000000FE
FE00000000FE
FE00000000FE
FE00000000FE
7E00000000FE
7E00000000FC
7F00000000FC
7F00000001FC
7F00000001FC
3F00000001F8
3F80000003F8
3F80000003F8
1FC0000003F0
1FC0000007F0
0FE0000007E0
07E000000FE0
07F000001FC0
03F800003F80
01FC00007F00
00FE0000FE00
007F8003FC00
003FF83FF800
000FFFFFE000
0003FFFF8000
00007FFC0000
ENDCHAR
STARTCHAR 00BA
ENCODING 186
SWIDTH 705 0
DWIDTH 47 0
BBX 48 70 2 -1
BITMAP
000003F00000
00000C380000
00000C180000
00000C0C0000
0000000C0000
0000000C0000
0000001C0000
000000180000
000000380000
000000F000F8
000001C0038E
000001000386
000001000103
000001000003
000001000003
000000000007
000000000006
00000000001E
0000000000FC
0000000001F0
000000000100
FFF80003FFE0
FFFC0003FFE0
FFF80001FFE0
3FF00000FF80
1FC000003F00
1FC000001F00
1FC000001F00
1F8000001F00
1F8000001F00
1F8000001F00
1F8000001F00
1F8000001F00
1F8000001F00
1F8000001F00
1F8000001F00
1F0000000F00
1F0000000F00
1F0000000F00
1F0000000F00
1F0000000F00
3F0000000F00
3F0000000F00
3F0000000F80
3F0000000F80
3F0000000F80
3F0000000F80
3F0000000F80
3F0000000F80
3F0000000F80
3F0000000F80
3F0000000F80
3F0000000F80
1F0000000F00
1F0000001F00
1F8000001F00
1F8000001F00
1F8000001F00
1F8000003E00
0FC000003E00
0FC000003E00
07E000007C00
07F00000FC00
03F80001F800
03FC0003F000
01FF001FE000
00FFFFFFC000
003FFFFF8000
001FFFFE0000
0003FFF00000
ENDCHAR
STARTCHAR 00BB
ENCODING 187
SWIDTH 705 0
DWIDTH 47 0
BBX 48 74 2 -1
BITMAP
000000018000
00003F838000
00007FFF0000
0000FFFF0000
0001FFFE0000
000181FC0000
000180000000
000100000000
000000000000
000000000000
000000000000
000000000000
000000000000
0000000000F8
00000000038E
000000000386
000000000103
000000000003
000000000003
000000000007
000000000006
00000000001E
0000000000FC
0000000001F0
000000000100
FFF80003FFE0
FFFC0003FFE0
FFF80001FFE0
3FF00000FF80
1FC000003F00
1FC000001F00
1FC000001F00
1F8000001F00
1F8000001F00
1F8000001F00
1F8000001F00
1F8000001F00
1F8000001F00
1F8000001F00
1F8000001F00
1F0000000F00
1F0000000F00
1F0000000F00
1F0000000F00
1F0000000F00
3F0000000F00
3F0000000F00
3F0000000F80
3F0000000F80
3F0000000F80
3F0000000F80
3F0000000F80
3F0000000F80
3F0000000F80
3F0000000F80
3F0000000F80
3F0000000F80
1F0000000F00
1F0000001F00
1F8000001F00
1F8000001F00
1F8000001F00
1F8000003E00
0FC000003E00
0FC000003E00
07E000007C00
07F00000FC00
03F80001F800
03FC0003F000
01FF001FE000
00FFFFFFC000
003FFFFF8000
001FFFFE0000
0003FFF00000
ENDCHAR
STARTCHAR 00BC
ENCODING 188
SWIDTH 765 0
DWIDTH 51 0
BBX 47 66 2 -1
BITMAP
000080000000
0001E0000000
0003F0000000
0001F8000000
0001FC000000
00007E000000
00003F000000
00000F800000
000007C00000
000001E00000
000000700000
000000380000
000000000000
000000000000
000000000000
000000000000
00003FFC0000
0001FFFF8000
0007FFFFE000
001FFEFFF000
003FC007FC00
00FF0001FE00
01FC00007F00
03F800003F80
03F000001FC0
07E000000FC0
0FE000000FE0
0FC0000007F0
1FC0000003F0
1F80000003F8
3F80000003F8
3F00000001F8
7F00000001FC
7F00000001FC
7F00000001FC
7F00000000FC
7E00000000FE
7E00000000FE
FE00000000FE
FE00000000FE
FE00000000FE
FE00000000FE
FE00000000FE
FE00000000FE
FE00000000FE
7E00000000FE
7E00000000FC
7F00000000FC
7F00000001FC
7F00000001FC
3F00000001F8
3F80000003F8
3F80000003F8
1FC0000003F0
1FC0000007F0
0FE0000007E0
07E000000FE0
07F000001FC0
03F800003F80
01FC00007F00
00FE0000FE00
007F8003FC00
003FF83FF800
000FFFFFE000
0003FFFF8000
00007FFC0000
ENDCHAR
STARTCHAR 00BD
ENCODING 189
SWIDTH 765 0
DWIDTH 51 0
BBX 47 68 2 -1
BITMAP
000003F00000
00000C180000
00000C0C0000
00000C0C0000
0000000C0000
0000000C0000
0000000C0000
000000180000
000000380000
000000F00000
000001C00000
000001000000
000001000000
000001000000
000000000000
000000000000
000000000000
000000000000
00003FFC0000
0001FFFF8000
0007FFFFE000
001FFEFFF000
003FC007FC00
00FF0001FE00
01FC00007F00
03F800003F80
03F000001FC0
07E000000FC0
0FE000000FE0
0FC0000007F0
1FC0000003F0
1F80000003F8
3F80000003F8
3F00000001F8
7F00000001FC
7F00000001FC
7F00000001FC
7F00000000FC
7E00000000FE
7E00000000FE
FE00000000FE
FE00000000FE
FE00000000FE
FE00000000FE
FE00000000FE
FE00000000FE
FE00000000FE
7E00000000FE
7E00000000FC
7F00000000FC
7F00000001FC
7F00000001FC
3F00000001F8
3F80000003F8
3F80000003F8
1FC0000003F0
1FC0000007F0
0FE0000007E0
07E000000FE0
07F000001FC0
03F800003F80
01FC00007F00
00FE0000FE00
007F8003FC00
003FF83FF800
000FFFFFE000
0003FFFF8000
00007FFC0000
ENDCHAR
STARTCHAR 00BE
ENCODING 190
SWIDTH 765 0
DWIDTH 51 0
BBX 47 64 2 -1
BITMAP
000000018000
000000018000
00003F830000
0000FFFF0000
0000FFFF0000
0001FFFE0000
000181F80000
000100000000
000300000000
000000000000
000000000000
000000000000
000000000000
000000000000
00003FFC0000
0001FFFF8000
0007FFFFE000
001FFEFFF000
003FC007FC00
00FF0001FE00
01FC00007F00
03F800003F80
03F000001FC0
07E000000FC0
0FE000000FE0
0FC0000007F0
1FC0000003F0
1F80000003F8
3F80000003F8
3F00000001F8
7F00000001FC
7F00000001FC
7F00000001FC
7F00000000FC
7E00000000FE
7E00000000FE
FE00000000FE
FE00000000FE
FE00000000FE
FE00000000FE
FE00000000FE
FE00000000FE
FE00000000FE
7E00000000FE
7E00000000FC
7F00000000FC
7F00000001FC
7F00000001FC
3F00000001F8
3F80000003F8
3F80000003F8
1FC0000003F0
1FC0000007F0
0FE0000007E0
07E000000FE0
07F000001FC0
03F800003F80
01FC00007F00
00FE0000FE00
007F8003FC00
003FF83FF800
000FFFFFE000
0003FFFF8000
00007FFC0000
ENDCHAR
STARTCHAR 00BF
ENCODING 191
SWIDTH 705 0
DWIDTH 47 0
BBX 48 71 2 -11
BITMAP
0000000000F8
00000000038E
000000000386
000000000103
000000000003
000000000003
000000000007
000000000006
00000000001E
0000000000FC
0000000001F0
000000000100
FFF80003FFE0
FFFC0003FFE0
FFF80001FFE0
3FF00000FF80
1FC000003F00
1FC000001F00
1FC000001F00
1F8000001F00
1F8000001F00
1F8000001F00
1F8000001F00
1F8000001F00
1F8000001F00
1F8000001F00
1F8000001F00
1F0000000F00
1F0000000F00
1F0000000F00
1F0000000F00
1F0000000F00
3F0000000F00
3F0000000F00
3F0000000F80
3F0000000F80
3F0000000F80
3F0000000F80
3F0000000F80
3F0000000F80
3F0000000F80
3F0000000F80
3F0000000F80
3F0000000F80
1F0000000F00
1F0000001F00
1F8000001F00
1F8000001F00
1F8000001F00
1F8000003E00
0FC000003E00
0FC000003E00
07E000007C00
07F00000FC00
03F80001F800
03FC0003F000
01FF001FE000
00FFFFFFC000
003FFFFF8000
001FFFFE0000
0003FFF00000
000000000000
000000000000
000000000000
00001E000000
00003F000000
00003F800000
00003F800000
00003F800000
00003F000000
00001E000000
ENDCHAR
STARTCHAR 00C0
ENCODING 192
SWIDTH 645 0
DWIDTH 43 0
BBX 45 72 -1 0
BITMAP
3C0000000000
3E0000000000
3F0000000000
3F8000000000
1FC000000000
07E000000000
01F000000000
00F800000000
003C07800000
001E0FC00000
00071FE00000
00001FE00000
00003FF00000
00007CF80000
000078780000
0000E01C0000
0001C00E0000
000180060000
000300030000
000000000000
000000000000
000000000000
000000000000
000003000000
000007800000
00000F800000
00001FC00000
00001FE00000
00003FE00000
00003FF00000
00007FF00000
00007FF80000
0000F9F80000
0000F9FC0000
0001F0FC0000
0001F0FE0000
0001E07E0000
0003E07F0000
0003C03F0000
0007C03F0000
0007801F8000
000F801F8000
000F001FC000
000F000FC000
001F000FE000
001E0007E000
003E0007E000
003C0007F000
003C0003F000
007C0003F000
00780003F800
00FFFFFFF800
00FFFFFFFC00
00FFFFFFFC00
01FFFFFFFC00
01F00000FE00
01E000007E00
03E000007E00
03E000007F00
03C000003F00
07C000003F00
07C000003F00
078000001F80
0F8000001F80
0F8000001F80
1F8000000FC0
1F8000000FC0
1F8000000FE0
3FC000003FF0
7FF000007FF8
FFF00000FFF8
7FF000007FF8
ENDCHAR
STARTCHAR 00C1
ENCODING 193
SWIDTH 645 0
DWIDTH 43 0
BBX 45 64 -1 1
BITMAP
0000000F0000
0000001F0000
0000003F0000
0000007E0000
000000FC0000
000001F80000
000003E00000
000007800000
00000F000000
00001C000000
000030000000
000000000000
000000000000
000000000000
000000000000
000003000000
000007800000
00000F800000
00001FC00000
00001FE00000
00003FE00000
00003FF00000
00007FF00000
00007FF80000
0000F9F80000
0000F9FC0000
0001F0FC0000
0001F0FE0000
0001E07E0000
0003E07F0000
0003C03F0000
0007C03F0000
0007801F8000
000F801F8000
000F001FC000
000F000FC000
001F000FE000
001E0007E000
003E0007E000
003C0007F000
003C0003F000
007C0003F000
00780003F800
00FFFFFFF800
00FFFFFFFC00
00FFFFFFFC00
01FFFFFFFC00
01F00000FE00
01E000007E00
03E000007E00
03E000007F00
03C000003F00
07C000003F00
07C000003F00
078000001F80
0F8000001F80
0F8000001F80
1F8000000FC0
1F8000000FC0
1F8000000FE0
3FC000003FF0
7FF000007FF8
FFF00000FFF8
7FF000007FF8
ENDCHAR
STARTCHAR 00C2
ENCODING 194
SWIDTH 645 0
DWIDTH 43 0
BBX 45 64 -1 0
BITMAP
000007800000
00000FC00000
00001FE00000
00001FE00000
00003FF00000
00007CF80000
000078780000
0000E01C0000
0001C00E0000
000180060000
000300030000
000000000000
000000000000
000000000000
000000000000
000003000000
000007800000
00000F800000
00001FC00000
00001FE00000
00003FE00000
00003FF00000
00007FF00000
00007FF80000
0000F9F80000
0000F9FC0000
0001F0FC0000
0001F0FE0000
0001E07E0000
0003E07F0000
0003C03F0000
0007C03F0000
0007801F8000
000F801F8000
000F001FC000
000F000FC000
001F000FE000
001E0007E000
003E0007E000
003C0007F000
003C0003F000
007C0003F000
00780003F800
00FFFFFFF800
00FFFFFFFC00
00FFFFFFFC00
01FFFFFFFC00
01F00000FE00
01E000007E00
03E000007E00
03E000007F00
03C000003F00
07C000003F00
07C000003F00
078000001F80
0F8000001F80
0F8000001F80
1F8000000FC0
1F8000000FC0
1F8000000FE0
3FC000003FF0
7FF000007FF8
FFF00000FFF8
7FF000007FF8
ENDCHAR
STARTCHAR 00C3
ENCODING 195
SWIDTH 645 0
DWIDTH 43 0
BBX 45 72 -1 0
BITMAP
000000000070
0000000000F8
0000000001F8
0000000003F8
0000000007F0
000000000FC0
000000001F80
000000003E00
000007807800
00000FC0F000
00001FE1C000
00001FE38000
00003FF00000
00007CF80000
000078780000
0000E01C0000
0001C00E0000
000180060000
000300030000
000000000000
000000000000
000000000000
000000000000
000003000000
000007800000
00000F800000
00001FC00000
00001FE00000
00003FE00000
00003FF00000
00007FF00000
00007FF80000
0000F9F80000
0000F9FC0000
0001F0FC0000
0001F0FE0000
0001E07E0000
0003E07F0000
0003C03F0000
0007C03F0000
0007801F8000
000F801F8000
000F001FC000
000F000FC000
001F000FE000
001E0007E000
003E0007E000
003C0007F000
003C0003F000
007C0003F000
00780003F800
00FFFFFFF800
00FFFFFFFC00
00FFFFFFFC00
01FFFFFFFC00
01F00000FE00
01E000007E00
03E000007E00
03E000007F00
03C000003F00
07C000003F00
07C000003F00
078000001F80
0F8000001F80
0F8000001F80
1F8000000FC0
1F8000000FC0
1F8000000FE0
3FC000003FF0
7FF000007FF8
FFF00000FFF8
7FF000007FF8
ENDCHAR
STARTCHAR 00C4
ENCODING 196
SWIDTH 645 0
DWIDTH 43 0
BBX 45 75 -1 0
BITMAP
00000003F800
000000060C00
000000060C00
000000060600
000000000600
000000000600
000000000C00
000000000C00
000000001C00
000000007800
00000000E000
000007808000
00000FC08000
00001FE08000
00001FE00000
00003FF00000
00007CF80000
000078780000
0000E01C0000
0001C00E0000
000180060000
000300030000
000000000000
000000000000
000000000000
000000000000
000003000000
000007800000
00000F800000
00001FC00000
00001FE00000
00003FE00000
00003FF00000
00007FF00000
00007FF80000
0000F9F80000
0000F9FC0000
0001F0FC0000
0001F0FE0000
0001E07E0000
0003E07F0000
0003C03F0000
0007C03F0000
0007801F8000
000F801F8000
000F001FC000
000F000FC000
001F000FE000
001E0007E000
003E0007E000
003C0007F000
003C0003F000
007C0003F000
00780003F800
00FFFFFFF800
00FFFFFFFC00
00FFFFFFFC00
01FFFFFFFC00
01F00000FE00
01E000007E00
03E000007E00
03E000007F00
03C000003F00
07C000003F00
07C000003F00
078000001F80
0F8000001F80
0F8000001F80
1F8000000FC0
1F8000000FC0
1F8000000FE0
3FC000003FF0
7FF000007FF8
FFF00000FFF8
7FF000007FF8
ENDCHAR
STARTCHAR 00C5
ENCODING 197
SWIDTH 645 0
DWIDTH 43 0
BBX 45 73 -1 0
BITMAP
000000030000
000008030000
00007F870000
0000FFFE0000
0001FFFE0000
0003DFFC0000
000301F00000
000300000000
000000000000
000007800000
00000FC00000
00001FE00000
00001FE00000
00003FF00000
00007CF80000
000078780000
0000E01C0000
0001C00E0000
000180060000
000300030000
000000000000
000000000000
000000000000
000000000000
000003000000
000007800000
00000F800000
00001FC00000
00001FE00000
00003FE00000
00003FF00000
00007FF00000
00007FF80000
0000F9F80000
0000F9FC0000
0001F0FC0000
0001F0FE0000
0001E07E0000
0003E07F0000
0003C03F0000
0007C03F0000
0007801F8000
000F801F8000
000F001FC000
000F000FC000
001F000FE000
001E0007E000
003E0007E000
003C0007F000
003C0003F000
007C0003F000
00780003F800
00FFFFFFF800
00FFFFFFFC00
00FFFFFFFC00
01FFFFFFFC00
01F00000FE00
01E000007E00
03E000007E00
03E000007F00
03C000003F00
07C000003F00
07C000003F00
078000001F80
0F8000001F80
0F8000001F80
1F8000000FC0
1F8000000FC0
1F8000000FE0
3FC000003FF0
7FF000007FF8
FFF00000FFF8
7FF000007FF8
ENDCHAR
STARTCHAR 00C6
ENCODING 198
SWIDTH 645 0
DWIDTH 43 0
BBX 45 74 -1 -10
BITMAP
000007800000
00000FC00000
00001FE00000
00001FE00000
00003FF00000
00007CF80000
000078780000
0000E01C0000
0001C00E0000
000180060000
000300030000
000000000000
000000000000
000000000000
000000000000
000003000000
000007800000
00000F800000
00001FC00000
00001FE00000
00003FE00000
00003FF00000
00007FF00000
00007FF80000
0000F9F80000
0000F9FC0000
0001F0FC0000
0001F0FE0000
0001E07E0000
0003E07F0000
0003C03F0000
0007C03F0000
0007801F8000
000F801F8000
000F001FC000
000F000FC000
001F000FE000
001E0007E000
003E0007E000
003C0007F000
003C0003F000
007C0003F000
00780003F800
00FFFFFFF800
00FFFFFFFC00
00FFFFFFFC00
01FFFFFFFC00
01F00000FE00
01E000007E00
03E000007E00
03E000007F00
03C000003F00
07C000003F00
07C000003F00
078000001F80
0F8000001F80
0F8000001F80
1F8000000FC0
1F8000000FC0
1F8000000FE0
3FC000003FF0
7FF000007FF8
FFF00000FFF8
7FF000007FF8
000000000000
000000000000
000000000000
00001C000000
00003F000000
00007F000000
00007F000000
00007F000000
00003F000000
00001E000000
ENDCHAR
STARTCHAR 00C7
ENCODING 199
SWIDTH 720 0
DWIDTH 48 0
BBX 46 48 0 0
BITMAP
1FFFFFF00000
3FFFFFFE0000
1FFFFFFFC000
07FE01FFF000
03F8000FF800
03F80003FC00
03F00000FF00
03F000007F00
03F000003F80
03F000001FC0
03F000000FE0
03F000000FE0
03F0000007F0
03F0000007F0
03F0000003F8
03F0000003F8
03F0000001F8
03F0000001FC
03F0000001FC
03F0000001FC
7FFFFF8001FC
FFFFFF8001FC
FFFFFF8001FC
03F0000001FC
03F0000001FC
03F0000001FC
03F0000001FC
03F0000001FC
03F0000001FC
03F0000001FC
03F0000001FC
03F0000003F8
03F0000003F8
03F0000003F8
03F0000007F0
03F0000007F0
03F000000FE0
03F000000FE0
03F000001FC0
03F000003F80
03F000007F00
03F80001FE00
03F80003FC00
03F8001FF800
07FF03FFE000
1FFFFFFF8000
3FFFFFFC0000
1FFFFFC00000
ENDCHAR
STARTCHAR 00C8
ENCODING 200
SWIDTH 615 0
DWIDTH 41 0
BBX 38 68 2 0
BITMAP
00001C0000
0000670000
0000C18000
0001C18000
0000C18000
0000018000
0000018000
0000018000
0000038000
0000070000
00001E0000
0000380000
0000300000
0000300000
0000300000
0000000000
0000000000
0000000000
0000000000
0000000000
FFFFFFFFE0
FFFFFFFFF0
7FFFFFFFF0
3FFFDFFFF0
0FE00007F0
0FC00001F0
0FC0000070
0FC0000030
0FC0000000
0FC0000000
0FC0000000
0FC0000000
0FC0000000
0FC0000000
0FC0000000
0FC0000000
0FC0000000
0FC0000000
0FC0000E00
0FC0001E00
0FFFFFFE00
0FFFFFFE00
0FFFFFFE00
0FFFFFFE00
0FC0000E00
0FC0000400
0FC0000000
0FC0000000
0FC0000000
0FC0000000
0FC0000000
0FC0000000
0FC0000000
0FC0000000
0FC0000000
0FC0000000
0FC0000000
0FC0000000
0FC0000000
0FC000000C
0FC000001C
0FC000003C
0FC00000FC
1FE00007FC
3FFFFFFFFC
7FFFFFFFFC
FFFFFFFFF8
7FFFFFFFF0
ENDCHAR
STARTCHAR 00C9
ENCODING 201
SWIDTH 615 0
DWIDTH 41 0
BBX 38 65 2 0
BITMAP
0000002000
000000F800
000001F800
000003F800
000007F000
00000FE000
00001F8000
00003F0000
00007C0000
0000F00000
0000E00000
0001800000
0002000000
0000000000
0000000000
0000000000
0000000000
FFFFFFFFE0
FFFFFFFFF0
7FFFFFFFF0
3FFFDFFFF0
0FE00007F0
0FC00001F0
0FC0000070
0FC0000030
0FC0000000
0FC0000000
0FC0000000
0FC0000000
0FC0000000
0FC0000000
0FC0000000
0FC0000000
0FC0000000
0FC0000000
0FC0000E00
0FC0001E00
0FFFFFFE00
0FFFFFFE00
0FFFFFFE00
0FFFFFFE00
0FC0000E00
0FC0000400
0FC0000000
0FC0000000
0FC0000000
0FC0000000
0FC0000000
0FC0000000
0FC0000000
0FC0000000
0FC0000000
0FC0000000
0FC0000000
0FC0000000
0FC0000000
0FC000000C
0FC000001C
0FC000003C
0FC00000FC
1FE00007FC
3FFFFFFFFC
7FFFFFFFFC
FFFFFFFFF8
7FFFFFFFF0
ENDCHAR
STARTCHAR 00CA
ENCODING 202
SWIDTH 615 0
DWIDTH 41 0
BBX 38 64 2 0
BITMAP
00007C0000
00007E0000
0000FE0000
0001FF0000
0001FF8000
0003C78000
000783C000
000701E000
000E00E000
001C007000
0018001800
0000000000
0000000000
0000000000
0000000000
0000000000
FFFFFFFFE0
FFFFFFFFF0
7FFFFFFFF0
3FFFDFFFF0
0FE00007F0
0FC00001F0
0FC0000070
0FC0000030
0FC0000000
0FC0000000
0FC0000000
0FC0000000
0FC0000000
0FC0000000
0FC0000000
0FC0000000
0FC0000000
0FC0000000
0FC0000E00
0FC0001E00
0FFFFFFE00
0FFFFFFE00
0FFFFFFE00
0FFFFFFE00
0FC0000E00
0FC0000400
0FC0000000
0FC0000000
0FC0000000
0FC0000000
0FC0000000
0FC0000000
0FC0000000
0FC0000000
0FC0000000
0FC0000000
0FC0000000
0FC0000000
0FC0000000
0FC000000C
0FC000001C
0FC000003C
0FC00000FC
1FE00007FC
3FFFFFFFFC
7FFFFFFFFC
FFFFFFFFF8
7FFFFFFFF0
ENDCHAR
STARTCHAR 00CB
ENCODING 203
SWIDTH 615 0
DWIDTH 41 0
BBX 38 58 2 -10
BITMAP
FFFFFFFFE0
FFFFFFFFF0
7FFFFFFFF0
3FFFDFFFF0
0FE00007F0
0FC00001F0
0FC0000070
0FC0000030
0FC0000000
0FC0000000
0FC0000000
0FC0000000
0FC0000000
0FC0000000
0FC0000000
0FC0000000
0FC0000000
0FC0000000
0FC0000E00
0FC0001E00
0FFFFFFE00
0FFFFFFE00
0FFFFFFE00
0FFFFFFE00
0FC0000E00
0FC0000400
0FC0000000
0FC0000000
0FC0000000
0FC0000000
0FC0000000
0FC0000000
0FC0000000
0FC0000000
0FC0000000
0FC0000000
0FC0000000
0FC0000000
0FC0000000
0FC000000C
0FC000001C
0FC000003C
0FC00000FC
1FE00007FC
3FFFFFFFFC
7FFFFFFFFC
FFFFFFFFF8
7FFFFFFFF0
0000000000
0000000000
0000000000
0000E00000
0001F80000
0003F80000
0003F80000
0003F80000
0001F80000
0000F00000
ENDCHAR
STARTCHAR 00CC
ENCODING 204
SWIDTH 270 0
DWIDTH 18 0
BBX 14 68 2 0
BITMAP
07E0
0C30
1818
1C18
0018
0018
0018
0038
0070
00E0
03C0
0300
0200
0200
0200
0000
0000
0000
0000
0000
7FFC
FFFC
7FF8
1FF0
0FE0
0FC0
0FC0
0FC0
0FC0
0FC0
0FC0
0FC0
0FC0
0FC0
0FC0
0FC0
0FC0
0FC0
0FC0
0FC0
0FC0
0FC0
0FC0
0FC0
0FC0
0FC0
0FC0
0FC0
0FC0
0FC0
0FC0
0FC0
0FC0
0FC0
0FC0
0FC0
0FC0
0FC0
0FC0
0FC0
0FC0
0FC0
0FC0
0FE0
3FF0
7FF8
FFFC
7FFC
ENDCHAR
STARTCHAR 00CD
ENCODING 205
SWIDTH 615 0
DWIDTH 41 0
BBX 38 73 2 0
BITMAP
0000001800
0000401800
0003FC3800
0007FFF000
000FFFF000
001EFFE000
00180F8000
0018000000
0000000000
00007C0000
00007E0000
0000FE0000
0001FF0000
0001FF8000
0003C78000
000783C000
000701E000
000E00E000
001C007000
0018001800
0000000000
0000000000
0000000000
0000000000
0000000000
FFFFFFFFE0
FFFFFFFFF0
7FFFFFFFF0
3FFFDFFFF0
0FE00007F0
0FC00001F0
0FC0000070
0FC0000030
0FC0000000
0FC0000000
0FC0000000
0FC0000000
0FC0000000
0FC0000000
0FC0000000
0FC0000000
0FC0000000
0FC0000000
0FC0000E00
0FC0001E00
0FFFFFFE00
0FFFFFFE00
0FFFFFFE00
0FFFFFFE00
0FC0000E00
0FC0000400
0FC0000000
0FC0000000
0FC0000000
0FC0000000
0FC0000000
0FC0000000
0FC0000000
0FC0000000
0FC0000000
0FC0000000
0FC0000000
0FC0000000
0FC0000000
0FC000000C
0FC000001C
0FC000003C
0FC00000FC
1FE00007FC
3FFFFFFFFC
7FFFFFFFFC
FFFFFFFFF8
7FFFFFFFF0
ENDCHAR
STARTCHAR 00CE
ENCODING 206
SWIDTH 270 0
DWIDTH 18 0
BBX 14 59 2 -11
BITMAP
7FFC
FFFC
7FF8
1FF0
0FE0
0FC0
0FC0
0FC0
0FC0
0FC0
0FC0
0FC0
0FC0
0FC0
0FC0
0FC0
0FC0
0FC0
0FC0
0FC0
0FC0
0FC0
0FC0
0FC0
0FC0
0FC0
0FC0
0FC0
0FC0
0FC0
0FC0
0FC0
0FC0
0FC0
0FC0
0FC0
0FC0
0FC0
0FC0
0FC0
0FC0
0FC0
0FC0
0FE0
3FF0
7FF8
FFFC
7FFC
0000
0000
0000
0000
0380
07C0
0FE0
0FE0
0FE0
0FE0
07C0
ENDCHAR
STARTCHAR 00CF
ENCODING 207
SWIDTH 645 0
DWIDTH 43 0
BBX 45 62 -1 0
BITMAP
000000006000
00000FC0C000
00003FFFC000
00007FFF8000
00007FFF8000
000060FE0000
0000C0000000
0000C0000000
000000000000
000000000000
000000000000
000000000000
000000000000
000000000000
FFFC00007FF8
FFFC00007FF8
FFF800007FF0
3FE000001FE0
0FE000000FC0
0FE000000F80
07E000000F80
07F000001F00
03F000001E00
01F800003E00
01FC00003C00
00FC00007800
00FE00007800
007F0000F000
003F0001E000
003F8001E000
001FC003C000
000FE0078000
000FE00F8000
0007F00F0000
0003F81E0000
0001FC3E0000
0001FC3C0000
0000FE780000
00007FF00000
00003FF00000
00003FE00000
00001FC00000
00001FC00000
00000FC00000
00000FC00000
00000FC00000
00000FC00000
00000FC00000
00000FC00000
00000FC00000
00000FC00000
00000FC00000
00000FC00000
00000FC00000
00000FC00000
00000FC00000
00000FC00000
00001FC00000
00003FF00000
00007FF80000
0000FFFC0000
0000FFF80000
ENDCHAR
STARTCHAR 00D0
ENCODING 208
SWIDTH 705 0
DWIDTH 47 0
BBX 48 61 2 -1
BITMAP
0000000000F8
00000000038E
000000000386
000000000103
000000000003
000000000003
000000000007
000000000006
00000000001E
0000000000FC
0000000001F0
000000000100
FFF80003FFE0
FFFC0003FFE0
FFF80001FFE0
3FF00000FF80
1FC000003F00
1FC000001F00
1FC000001F00
1F8000001F00
1F8000001F00
1F8000001F00
1F8000001F00
1F8000001F00
1F8000001F00
1F8000001F00
1F8000001F00
1F0000000F00
1F0000000F00
1F0000000F00
1F0000000F00
1F0000000F00
3F0000000F00
3F0000000F00
3F0000000F80
3F0000000F80
3F0000000F80
3F0000000F80
3F0000000F80
3F0000000F80
3F0000000F80
3F0000000F80
3F0000000F80
3F0000000F80
1F0000000F00
1F0000001F00
1F8000001F00
1F8000001F00
1F8000001F00
1F8000003E00
0FC000003E00
0FC000003E00
07E000007C00
07F00000FC00
03F80001F800
03FC0003F000
01FF001FE000
00FFFFFFC000
003FFFFF8000
001FFFFE0000
0003FFF00000
ENDCHAR
STARTCHAR 00D1
ENCODING 209
SWIDTH 705 0
DWIDTH 47 0
BBX 43 69 2 -1
BITMAP
000003C00000
00000E700000
00001C180000
00001C180000
000008180000
000000180000
000000180000
000000180000
000000380000
000000F00000
000001C00000
000003000000
000003000000
000002000000
000002000000
000000000000
000000000000
000000000000
000000000000
000000000000
FFF80003FFE0
FFFC0003FFE0
FFF80001FFE0
3FF00000FF80
1FC000003F00
1FC000001F00
1FC000001F00
1F8000001F00
1F8000001F00
1F8000001F00
1F8000001F00
1F8000001F00
1F8000001F00
1F8000001F00
1F8000001F00
1F0000000F00
1F0000000F00
1F0000000F00
1F0000000F00
1F0000000F00
3F0000000F00
3F0000000F00
3F0000000F80
3F0000000F80
3F0000000F80
3F0000000F80
3F0000000F80
3F0000000F80
3F0000000F80
3F0000000F80
3F0000000F80
3F0000000F80
1F0000000F00
1F0000001F00
1F8000001F00
1F8000001F00
1F8000001F00
1F8000003E00
0FC000003E00
0FC000003E00
07E000007C00
07F00000FC00
03F80001F800
03FC0003F000
01FF001FE000
00FFFFFFC000
003FFFFF8000
001FFFFE0000
0003FFF00000
ENDCHAR
STARTCHAR 00D2
ENCODING 210
SWIDTH 765 0
DWIDTH 51 0
BBX 47 73 2 -1
BITMAP
1C0000000000
3E0000000000
3F0000000000
1F8000000000
0FC000000000
07E000000000
01F000000000
00F800000000
003C07C00000
000E07E00000
00070FE00000
00019FF00000
00001EF80000
00003C780000
0000783C0000
0000701E0000
0000E00E0000
0001C0070000
000180018000
000000000000
000000000000
000000000000
000000000000
00003FFC0000
0001FFFF8000
0007FFFFE000
001FFEFFF000
003FC007FC00
00FF0001FE00
01FC00007F00
03F800003F80
03F000001FC0
07E000000FC0
0FE000000FE0
0FC0000007F0
1FC0000003F0
1F80000003F8
3F80000003F8
3F00000001F8
7F00000001FC
7F00000001FC
7F00000001FC
7F00000000FC
7E00000000FE
7E00000000FE
FE00000000FE
FE00000000FE
FE00000000FE
FE00000000FE
FE00000000FE
FE00000000FE
FE00000000FE
7E00000000FE
7E00000000FC
7F00000000FC
7F00000001FC
7F00000001FC
3F00000001F8
3F80000003F8
3F80000003F8
1FC0000003F0
1FC0000007F0
0FE0000007E0
07E000000FE0
07F000001FC0
03F800003F80
01FC00007F00
00FE0000FE00
007F8003FC00
003FF83FF800
000FFFFFE000
0003FFFF8000
00007FFC0000
ENDCHAR
STARTCHAR 00D3
ENCODING 211
SWIDTH 765 0
DWIDTH 51 0
BBX 47 73 2 -1
BITMAP
000000000070
0000000000F8
0000000001F8
0000000003F8
0000000007F0
000000000FC0
000000001F80
000000003E00
000007C07C00
000007E0F000
00000FE1C000
00001FF38000
00001EF80000
00003C780000
0000783C0000
0000701E0000
0000E00E0000
0001C0070000
000180018000
000000000000
000000000000
000000000000
000000000000
00003FFC0000
0001FFFF8000
0007FFFFE000
001FFEFFF000
003FC007FC00
00FF0001FE00
01FC00007F00
03F800003F80
03F000001FC0
07E000000FC0
0FE000000FE0
0FC0000007F0
1FC0000003F0
1F80000003F8
3F80000003F8
3F00000001F8
7F00000001FC
7F00000001FC
7F00000001FC
7F00000000FC
7E00000000FE
7E00000000FE
FE00000000FE
FE00000000FE
FE00000000FE
FE00000000FE
FE00000000FE
FE00000000FE
FE00000000FE
7E00000000FE
7E00000000FC
7F00000000FC
7F00000001FC
7F00000001FC
3F00000001F8
3F80000003F8
3F80000003F8
1FC0000003F0
1FC0000007F0
0FE0000007E0
07E000000FE0
07F000001FC0
03F800003F80
01FC00007F00
00FE0000FE00
007F8003FC00
003FF83FF800
000FFFFFE000
0003FFFF8000
00007FFC0000
ENDCHAR
STARTCHAR 00D4
ENCODING 212
SWIDTH 765 0
DWIDTH 51 0
BBX 47 65 2 -1
BITMAP
000007C00000
000007E00000
00000FE00000
00001FF00000
00001EF80000
00003C780000
0000783C0000
0000701E0000
0000E00E0000
0001C0070000
000180018000
000000000000
000000000000
000000000000
000000000000
00003FFC0000
0001FFFF8000
0007FFFFE000
001FFEFFF000
003FC007FC00
00FF0001FE00
01FC00007F00
03F800003F80
03F000001FC0
07E000000FC0
0FE000000FE0
0FC0000007F0
1FC0000003F0
1F80000003F8
3F80000003F8
3F00000001F8
7F00000001FC
7F00000001FC
7F00000001FC
7F00000000FC
7E00000000FE
7E00000000FE
FE00000000FE
FE00000000FE
FE00000000FE
FE00000000FE
FE00000000FE
FE00000000FE
FE00000000FE
7E00000000FE
7E00000000FC
7F00000000FC
7F00000001FC
7F00000001FC
3F00000001F8
3F80000003F8
3F80000003F8
1FC0000003F0
1FC0000007F0
0FE0000007E0
07E000000FE0
07F000001FC0
03F800003F80
01FC00007F00
00FE0000FE00
007F8003FC00
003FF83FF800
000FFFFFE000
0003FFFF8000
00007FFC0000
ENDCHAR
STARTCHAR 00D5
ENCODING 213
SWIDTH 765 0
DWIDTH 51 0
BBX 47 68 2 -1
BITMAP
000003F00000
00000C180000
00000C0C0000
00000C0C0000
0000000C0000
0000000C0000
0000000C0000
000000180000
000000380000
000000F00000
000001C00000
000001000000
000001000000
000001000000
000000000000
000000000000
000000000000
000000000000
00003FFC0000
0001FFFF8000
0007FFFFE000
001FFEFFF000
003FC007FC00
00FF0001FE00
01FC00007F00
03F800003F80
03F000001FC0
07E000000FC0
0FE000000FE0
0FC0000007F0
1FC0000003F0
1F80000003F8
3F80000003F8
3F00000001F8
7F00000001FC
7F00000001FC
7F00000001FC
7F00000000FC
7E00000000FE
7E00000000FE
FE00000000FE
FE00000000FE
FE00000000FE
FE00000000FE
FE00000000FE
FE00000000FE
FE00000000FE
7E00000000FE
7E00000000FC
7F00000000FC
7F00000001FC
7F00000001FC
3F00000001F8
3F80000003F8
3F80000003F8
1FC0000003F0
1FC0000007F0
0FE0000007E0
07E000000FE0
07F000001FC0
03F800003F80
01FC00007F00
00FE0000FE00
007F8003FC00
003FF83FF800
000FFFFFE000
0003FFFF8000
00007FFC0000
ENDCHAR
STARTCHAR 00D6
ENCODING 214
SWIDTH 765 0
DWIDTH 51 0
BBX 47 61 2 -1
BITMAP
000000000FC0
000000001C60
000000001830
000000001810
000000000018
000000000038
000000000030
000000000030
0000000000E0
0000000007C0
000000000F80
00003FFC0800
0001FFFF9800
0007FFFFF000
001FFEFFF000
003FC007FC00
00FF0001FE00
01FC00007F00
03F800003F80
03F000001FC0
07E000000FC0
0FE000000FE0
0FC0000007F0
1FC0000003F0
1F80000003F8
3F80000003F8
3F00000001F8
7F00000001FC
7F00000001FC
7F00000001FC
7F00000000FC
7E00000000FE
7E00000000FE
FE00000000FE
FE00000000FE
FE00000000FE
FE00000000FE
FE00000000FE
FE00000000FE
FE00000000FE
7E00000000FE
7E00000000FC
7F00000000FC
7F00000001FC
7F00000001FC
3F00000001F8
3F80000003F8
3F80000003F8
1FC0000003F0
1FC0000007F0
0FE0000007E0
07E000000FE0
07F000001FC0
03F800003F80
01FC00007F00
00FE0000FE00
007F8003FC00
003FF83FF800
000FFFFFE000
0003FFFF8000
00007FFC0000
ENDCHAR
STARTCHAR 00D7
ENCODING 215
SWIDTH 615 0
DWIDTH 41 0
BBX 38 64 2 1
BITMAP
001E000000
003F000000
001F800000
001FC00000
0007E00000
0003F00000
0000F80000
00007C0000
00001E0000
0000070000
0000038000
0000000000
0000000000
0000000000
0000000000
0000000000
FFFFFFFFE0
FFFFFFFFF0
7FFFFFFFF0
3FFFDFFFF0
0FE00007F0
0FC00001F0
0FC0000070
0FC0000030
0FC0000000
0FC0000000
0FC0000000
0FC0000000
0FC0000000
0FC0000000
0FC0000000
0FC0000000
0FC0000000
0FC0000000
0FC0000E00
0FC0001E00
0FFFFFFE00
0FFFFFFE00
0FFFFFFE00
0FFFFFFE00
0FC0000E00
0FC0000400
0FC0000000
0FC0000000
0FC0000000
0FC0000000
0FC0000000
0FC0000000
0FC0000000
0FC0000000
0FC0000000
0FC0000000
0FC0000000
0FC0000000
0FC0000000
0FC000000C
0FC000001C
0FC000003C
0FC00000FC
1FE00007FC
3FFFFFFFFC
7FFFFFFFFC
FFFFFFFFF8
7FFFFFFFF0
ENDCHAR
STARTCHAR 00D8
ENCODING 216
SWIDTH 705 0
DWIDTH 47 0
BBX 48 69 2 -1
BITMAP
000700000000
000FC0000000
000FE0000000
0007F0000000
0003F8000000
0001FC000000
00007E000000
00001E000000
00000F0000F8
00000380038E
000001C00386
000000600103
000000000003
000000000003
000000000007
000000000006
00000000001E
0000000000FC
0000000001F0
000000000100
FFF80003FFE0
FFFC0003FFE0
FFF80001FFE0
3FF00000FF80
1FC000003F00
1FC000001F00
1FC000001F00
1F8000001F00
1F8000001F00
1F8000001F00
1F8000001F00
1F8000001F00
1F8000001F00
1F8000001F00
1F8000001F00
1F0000000F00
1F0000000F00
1F0000000F00
1F0000000F00
1F0000000F00
3F0000000F00
3F0000000F00
3F0000000F80
3F0000000F80
3F0000000F80
3F0000000F80
3F0000000F80
3F0000000F80
3F0000000F80
3F0000000F80
3F0000000F80
3F0000000F80
1F0000000F00
1F0000001F00
1F8000001F00
1F8000001F00
1F8000001F00
1F8000003E00
0FC000003E00
0FC000003E00
07E000007C00
07F00000FC00
03F80001F800
03FC0003F000
01FF001FE000
00FFFFFFC000
003FFFFF8000
001FFFFE0000
0003FFF00000
ENDCHAR
STARTCHAR 00D9
ENCODING 217
SWIDTH 705 0
DWIDTH 47 0
BBX 48 70 2 -1
BITMAP
00000001C000
00000007C000
0000000FE000
0000001FC000
0000001F8000
0000003F0000
0000007C0000
000000F00000
000001E00000
0000038000F8
00000700038E
00000C000386
000000000103
000000000003
000000000003
000000000007
000000000006
00000000001E
0000000000FC
0000000001F0
000000000100
FFF80003FFE0
FFFC0003FFE0
FFF80001FFE0
3FF00000FF80
1FC000003F00
1FC000001F00
1FC000001F00
1F8000001F00
1F8000001F00
1F8000001F00
1F8000001F00
1F8000001F00
1F8000001F00
1F8000001F00
1F8000001F00
1F0000000F00
1F0000000F00
1F0000000F00
1F0000000F00
1F0000000F00
3F0000000F00
3F0000000F00
3F0000000F80
3F0000000F80
3F0000000F80
3F0000000F80
3F0000000F80
3F0000000F80
3F0000000F80
3F0000000F80
3F0000000F80
3F0000000F80
1F0000000F00
1F0000001F00
1F8000001F00
1F8000001F00
1F8000001F00
1F8000003E00
0FC000003E00
0FC000003E00
07E000007C00
07F00000FC00
03F80001F800
03FC0003F000
01FF001FE000
00FFFFFFC000
003FFFFF8000
001FFFFE0000
0003FFF00000
ENDCHAR
STARTCHAR 00DA
ENCODING 218
SWIDTH 705 0
DWIDTH 47 0
BBX 43 66 2 -1
BITMAP
000000040000
0000001E0000
0000003F0000
0000007F0000
000000FE0000
000001FC0000
000003F00000
000007C00000
00000F800000
00001E000000
00003C000000
000070000000
000000000000
000000000000
000000000000
000000000000
000000000000
FFF80003FFE0
FFFC0003FFE0
FFF80001FFE0
3FF00000FF80
1FC000003F00
1FC000001F00
1FC000001F00
1F8000001F00
1F8000001F00
1F8000001F00
1F8000001F00
1F8000001F00
1F8000001F00
1F8000001F00
1F8000001F00
1F0000000F00
1F0000000F00
1F0000000F00
1F0000000F00
1F0000000F00
3F0000000F00
3F0000000F00
3F0000000F80
3F0000000F80
3F0000000F80
3F0000000F80
3F0000000F80
3F0000000F80
3F0000000F80
3F0000000F80
3F0000000F80
3F0000000F80
1F0000000F00
1F0000001F00
1F8000001F00
1F8000001F00
1F8000001F00
1F8000003E00
0FC000003E00
0FC000003E00
07E000007C00
07F00000FC00
03F80001F800
03FC0003F000
01FF001FE000
00FFFFFFC000
003FFFFF8000
001FFFFE0000
0003FFF00000
ENDCHAR
STARTCHAR 00DB
ENCODING 219
SWIDTH 705 0
DWIDTH 47 0
BBX 43 63 2 -1
BITMAP
00000000C000
00000600C000
00003FE18000
00007FFF8000
00007FFF0000
0000E3FE0000
0000C0380000
000080000000
000000000000
000000000000
000000000000
000000000000
000000000000
000000000000
FFF80003FFE0
FFFC0003FFE0
FFF80001FFE0
3FF00000FF80
1FC000003F00
1FC000001F00
1FC000001F00
1F8000001F00
1F8000001F00
1F8000001F00
1F8000001F00
1F8000001F00
1F8000001F00
1F8000001F00
1F8000001F00
1F0000000F00
1F0000000F00
1F0000000F00
1F0000000F00
1F0000000F00
3F0000000F00
3F0000000F00
3F0000000F80
3F0000000F80
3F0000000F80
3F0000000F80
3F0000000F80
3F0000000F80
3F0000000F80
3F0000000F80
3F0000000F80
3F0000000F80
1F0000000F00
1F0000001F00
1F8000001F00
1F8000001F00
1F8000001F00
1F8000003E00
0FC000003E00
0FC000003E00
07E000007C00
07F00000FC00
03F80001F800
03FC0003F000
01FF001FE000
00FFFFFFC000
003FFFFF8000
001FFFFE0000
0003FFF00000
ENDCHAR
STARTCHAR 00DC
ENCODING 220
SWIDTH 705 0
DWIDTH 47 0
BBX 48 61 2 -1
BITMAP
0000000000F8
00000000038E
000000000386
000000000103
000000000003
000000000003
000000000007
000000000006
00000000001E
0000000000FC
0000000001F0
000000000100
FFF80003FFE0
FFFC0003FFE0
FFF80001FFE0
3FF00000FF80
1FC000003F00
1FC000001F00
1FC000001F00
1F8000001F00
1F8000001F00
1F8000001F00
1F8000001F00
1F8000001F00
1F8000001F00
1F8000001F00
1F8000001F00
1F0000000F00
1F0000000F00
1F0000000F00
1F0000000F00
1F0000000F00
3F0000000F00
3F0000000F00
3F0000000F80
3F0000000F80
3F0000000F80
3F0000000F80
3F0000000F80
3F0000000F80
3F0000000F80
3F0000000F80
3F0000000F80
3F0000000F80
1F0000000F00
1F0000001F00
1F8000001F00
1F8000001F00
1F8000001F00
1F8000003E00
0FC000003E00
0FC000003E00
07E000007C00
07F00000FC00
03F80001F800
03FC0003F000
01FF001FE000
00FFFFFFC000
003FFFFF8000
001FFFFE0000
0003FFF00000
ENDCHAR
STARTCHAR 00DD
ENCODING 221
SWIDTH 645 0
DWIDTH 43 0
BBX 45 64 -1 1
BITMAP
0000000F0000
0000001F0000
0000003F0000
0000007E0000
000000FC0000
000001F00000
000003E00000
000007800000
00000F000000
00001C000000
000030000000
000000000000
000000000000
000000000000
000000000000
000000000000
FFFC00007FF8
FFFC00007FF8
FFF800007FF0
3FE000001FE0
0FE000000FC0
0FE000000F80
07E000000F80
07F000001F00
03F000001E00
01F800003E00
01FC00003C00
00FC00007800
00FE00007800
007F0000F000
003F0001E000
003F8001E000
001FC003C000
000FE0078000
000FE00F8000
0007F00F0000
0003F81E0000
0001FC3E0000
0001FC3C0000
0000FE780000
00007FF00000
00003FF00000
00003FE00000
00001FC00000
00001FC00000
00000FC00000
00000FC00000
00000FC00000
00000FC00000
00000FC00000
00000FC00000
00000FC00000
00000FC00000
00000FC00000
00000FC00000
00000FC00000
00000FC00000
00000FC00000
00000FC00000
00001FC00000
00003FF00000
00007FF80000
0000FFFC0000
0000FFF80000
ENDCHAR
STARTCHAR 00DE
ENCODING 222
SWIDTH 615 0
DWIDTH 41 0
BBX 38 68 2 0
BITMAP
00001C0000
0000670000
0000C18000
0001C18000
0000C18000
0000018000
0000018000
0000018000
0000038000
0000070000
00001E0000
0000380000
0000300000
0000300000
0000300000
0000000000
0000000000
0000000000
0000000000
0000000000
FFFFFFFFE0
FFFFFFFFF0
7FFFFFFFF0
3FFFDFFFF0
0FE00007F0
0FC00001F0
0FC0000070
0FC0000030
0FC0000000
0FC0000000
0FC0000000
0FC0000000
0FC0000000
0FC0000000
0FC0000000
0FC0000000
0FC0000000
0FC0000000
0FC0000E00
0FC0001E00
0FFFFFFE00
0FFFFFFE00
0FFFFFFE00
0FFFFFFE00
0FC0000E00
0FC0000400
0FC0000000
0FC0000000
0FC0000000
0FC0000000
0FC0000000
0FC0000000
0FC0000000
0FC0000000
0FC0000000
0FC0000000
0FC0000000
0FC0000000
0FC0000000
0FC000000C
0FC000001C
0FC000003C
0FC00000FC
1FE00007FC
3FFFFFFFFC
7FFFFFFFFC
FFFFFFFFF8
7FFFFFFFF0
ENDCHAR
STARTCHAR 00DF
ENCODING 223
SWIDTH 660 0
DWIDTH 44 0
BBX 41 49 1 0
BITMAP
0000FFF00000
0007FFFE0000
001FFFFF0000
003F803FC000
007C000FE000
00F80007F000
01F00003F000
03E00001F800
03E00001F800
07E00000F800
07C00000FC00
07C00000FC00
07C00000FC00
07C00000FC00
07C00000F800
0FC00001F800
0FC00001F000
0FC00003F000
0FC00007E000
0FC0001FC000
0FC000FF0000
0FC1FFFC0000
0FC3FFFC0000
0FC3FFFF0000
0FC000FFC000
0FC00007F000
0FC00001F800
0FC00000FC00
0FC000007E00
0FC000003E00
0FC000003F00
0FC000001F00
0FC0C0001F80
0FC3E0001F80
0FC3E0001F80
0FC7C0001F80
0FC780001F80
0FCF80001F80
0FCF00001F80
0FCF00001F00
0FCF00003F00
0FCF80003F00
0FC780007E00
0FC7C000FC00
0FC3E003F800
3FE3FE1FF800
FFE1FFFFE000
FFF07FFF8000
FFE01FFE0000
ENDCHAR
STARTCHAR 00E0
ENCODING 224
SWIDTH 645 0
DWIDTH 43 0
BBX 45 64 -1 1
BITMAP
0003C0000000
0003E0000000
0003F0000000
0001F8000000
0000FC000000
00003E000000
00001F000000
000007800000
000003C00000
000000E00000
000000300000
000000000000
000000000000
000000000000
000000000000
000003000000
000007800000
00000F800000
00001FC00000
00001FE00000
00003FE00000
00003FF00000
00007FF00000
00007FF80000
0000F9F80000
0000F9FC0000
0001F0FC0000
0001F0FE0000
0001E07E0000
0003E07F0000
0003C03F0000
0007C03F0000
0007801F8000
000F801F8000
000F001FC000
000F000FC000
001F000FE000
001E0007E000
003E0007E000
003C0007F000
003C0003F000
007C0003F000
00780003F800
00FFFFFFF800
00FFFFFFFC00
00FFFFFFFC00
01FFFFFFFC00
01F00000FE00
01E000007E00
03E000007E00
03E000007F00
03C000003F00
07C000003F00
07C000003F00
078000001F80
0F8000001F80
0F8000001F80
1F8000000FC0
1F8000000FC0
1F8000000FE0
3FC000003FF0
7FF000007FF8
FFF00000FFF8
7FF000007FF8
ENDCHAR
STARTCHAR 00E1
ENCODING 225
SWIDTH 645 0
DWIDTH 43 0
BBX 45 64 -1 1
BITMAP
0000000F0000
0000001F0000
0000003F0000
0000007E0000
000000FC0000
000001F80000
000003E00000
000007800000
00000F000000
00001C000000
000030000000
000000000000
000000000000
000000000000
000000000000
000003000000
000007800000
00000F800000
00001FC00000
00001FE00000
00003FE00000
00003FF00000
00007FF00000
00007FF80000
0000F9F80000
0000F9FC0000
0001F0FC0000
0001F0FE0000
0001E07E0000
0003E07F0000
0003C03F0000
0007C03F0000
0007801F8000
000F801F8000
000F001FC000
000F000FC000
001F000FE000
001E0007E000
003E0007E000
003C0007F000
003C0003F000
007C0003F000
00780003F800
00FFFFFFF800
00FFFFFFFC00
00FFFFFFFC00
01FFFFFFFC00
01F00000FE00
01E000007E00
03E000007E00
03E000007F00
03C000003F00
07C000003F00
07C000003F00
078000001F80
0F8000001F80
0F8000001F80
1F8000000FC0
1F8000000FC0
1F8000000FE0
3FC000003FF0
7FF000007FF8
FFF00000FFF8
7FF000007FF8
ENDCHAR
STARTCHAR 00E2
ENCODING 226
SWIDTH 645 0
DWIDTH 43 0
BBX 45 64 -1 0
BITMAP
000007800000
00000FC00000
00001FE00000
00001FE00000
00003FF00000
00007CF80000
000078780000
0000E01C0000
0001C00E0000
000180060000
000300030000
000000000000
000000000000
000000000000
000000000000
000003000000
000007800000
00000F800000
00001FC00000
00001FE00000
00003FE00000
00003FF00000
00007FF00000
00007FF80000
0000F9F80000
0000F9FC0000
0001F0FC0000
0001F0FE0000
0001E07E0000
0003E07F0000
0003C03F0000
0007C03F0000
0007801F8000
000F801F8000
000F001FC000
000F000FC000
001F000FE000
001E0007E000
003E0007E000
003C0007F000
003C0003F000
007C0003F000
00780003F800
00FFFFFFF800
00FFFFFFFC00
00FFFFFFFC00
01FFFFFFFC00
01F00000FE00
01E000007E00
03E000007E00
03E000007F00
03C000003F00
07C000003F00
07C000003F00
078000001F80
0F8000001F80
0F8000001F80
1F8000000FC0
1F8000000FC0
1F8000000FE0
3FC000003FF0
7FF000007FF8
FFF00000FFF8
7FF000007FF8
ENDCHAR
STARTCHAR 00E3
ENCODING 227
SWIDTH 645 0
DWIDTH 43 0
BBX 45 63 -1 0
BITMAP
000000010000
000000030000
00007F030000
0000FFFE0000
0001FFFE0000
0001FFFC0000
000301F80000
000300000000
000200000000
000000000000
000000000000
000000000000
000000000000
000000000000
000003000000
000007800000
00000F800000
00001FC00000
00001FE00000
00003FE00000
00003FF00000
00007FF00000
00007FF80000
0000F9F80000
0000F9FC0000
0001F0FC0000
0001F0FE0000
0001E07E0000
0003E07F0000
0003C03F0000
0007C03F0000
0007801F8000
000F801F8000
000F001FC000
000F000FC000
001F000FE000
001E0007E000
003E0007E000
003C0007F000
003C0003F000
007C0003F000
00780003F800
00FFFFFFF800
00FFFFFFFC00
00FFFFFFFC00
01FFFFFFFC00
01F00000FE00
01E000007E00
03E000007E00
03E000007F00
03C000003F00
07C000003F00
07C000003F00
078000001F80
0F8000001F80
0F8000001F80
1F8000000FC0
1F8000000FC0
1F8000000FE0
3FC000003FF0
7FF000007FF8
FFF00000FFF8
7FF000007FF8
ENDCHAR
STARTCHAR 00E4
ENCODING 228
SWIDTH 645 0
DWIDTH 43 0
BBX 45 68 -1 0
BITMAP
000003800000
00000CE00000
000018300000
000038300000
000018300000
000000300000
000000300000
000000300000
000000700000
000000E00000
000003C00000
000007000000
000006000000
000006000000
000006000000
000000000000
000000000000
000000000000
000000000000
000003000000
000007800000
00000F800000
00001FC00000
00001FE00000
00003FE00000
00003FF00000
00007FF00000
00007FF80000
0000F9F80000
0000F9FC0000
0001F0FC0000
0001F0FE0000
0001E07E0000
0003E07F0000
0003C03F0000
0007C03F0000
0007801F8000
000F801F8000
000F001FC000
000F000FC000
001F000FE000
001E0007E000
003E0007E000
003C0007F000
003C0003F000
007C0003F000
00780003F800
00FFFFFFF800
00FFFFFFFC00
00FFFFFFFC00
01FFFFFFFC00
01F00000FE00
01E000007E00
03E000007E00
03E000007F00
03C000003F00
07C000003F00
07C000003F00
078000001F80
0F8000001F80
0F8000001F80
1F8000000FC0
1F8000000FC0
1F8000000FE0
3FC000003FF0
7FF000007FF8
FFF00000FFF8
7FF000007FF8
ENDCHAR
STARTCHAR 00E5
ENCODING 229
SWIDTH 645 0
DWIDTH 43 0
BBX 45 59 -1 -10
BITMAP
000003000000
000007800000
00000F800000
00001FC00000
00001FE00000
00003FE00000
00003FF00000
00007FF00000
00007FF80000
0000F9F80000
0000F9FC0000
0001F0FC0000
0001F0FE0000
0001E07E0000
0003E07F0000
0003C03F0000
0007C03F0000
0007801F8000
000F801F8000
000F001FC000
000F000FC000
001F000FE000
001E0007E000
003E0007E000
003C0007F000
003C0003F000
007C0003F000
00780003F800
00FFFFFFF800
00FFFFFFFC00
00FFFFFFFC00
01FFFFFFFC00
01F00000FE00
01E000007E00
03E000007E00
03E000007F00
03C000003F00
07C000003F00
07C000003F00
078000001F80
0F8000001F80
0F8000001F80
1F8000000FC0
1F8000000FC0
1F8000000FE0
3FC000003FF0
7FF000007FF8
FFF00000FFF8
7FF000007FF8
000000000000
000000000000
000000000000
00001C000000
00003F000000
00007F000000
00007F000000
00007F000000
00003F000000
00001E000000
ENDCHAR
STARTCHAR 00E6
ENCODING 230
SWIDTH 645 0
DWIDTH 43 0
BBX 45 61 -1 0
BITMAP
000600040000
000200040000
0003000C0000
0003801C0000
0001FFF80000
0000FFF00000
00007FE00000
00003FC00000
000000000000
000000000000
000000000000
000000000000
000003000000
000007800000
00000F800000
00001FC00000
00001FE00000
00003FE00000
00003FF00000
00007FF00000
00007FF80000
0000F9F80000
0000F9FC0000
0001F0FC0000
0001F0FE0000
0001E07E0000
0003E07F0000
0003C03F0000
0007C03F0000
0007801F8000
000F801F8000
000F001FC000
000F000FC000
001F000FE000
001E0007E000
003E0007E000
003C0007F000
003C0003F000
007C0003F000
00780003F800
00FFFFFFF800
00FFFFFFFC00
00FFFFFFFC00
01FFFFFFFC00
01F00000FE00
01E000007E00
03E000007E00
03E000007F00
03C000003F00
07C000003F00
07C000003F00
078000001F80
0F8000001F80
0F8000001F80
1F8000000FC0
1F8000000FC0
1F8000000FE0
3FC000003FF0
7FF000007FF8
FFF00000FFF8
7FF000007FF8
ENDCHAR
STARTCHAR 00E7
ENCODING 231
SWIDTH 690 0
DWIDTH 46 0
BBX 43 64 2 -15
BITMAP
00003FFF0000
0001FFFFE000
0007FFFFFC00
001FFC3FFE00
003FC003FF00
007F0000FF80
00FE00007F80
01F800001F80
03F800001F80
07F000000F80
0FE000000780
0FC000000780
1FC000000380
1F8000000380
3F8000000000
3F8000000000
3F0000000000
7F0000000000
7F0000000000
7F0000000000
7E0000000000
FE0000000000
FE0000000000
FE0000000000
FE0000000000
FE0000000000
FE0000000000
FE0000000000
FE0000000000
FE0000000000
7F0000000000
7F0000000000
7F0000000000
7F0000000000
7F8000000000
3F8000000000
3F8000000000
1FC000000040
1FC0000000E0
0FE0000001E0
0FF0000003E0
07F8000007C0
03FC00000FC0
03FE00003F80
01FF8000FF00
00FFF003FE00
003FFFFFF800
001FFFFFF000
0007FFFF8000
0000FFFE0000
000003000000
000003000000
000003400000
000003FC0000
000003FE0000
0000003E0000
0000001F0000
0000000F0000
0000001F0000
0000C01F0000
0001F83E0000
0000FFFC0000
00001FF80000
000000C00000
ENDCHAR
STARTCHAR 00E8
ENCODING 232
SWIDTH 615 0
DWIDTH 41 0
BBX 38 64 2 1
BITMAP
001E000000
003F000000
001F800000
001FC00000
0007E00000
0003F00000
0000F80000
00007C0000
00001E0000
0000070000
0000038000
0000000000
0000000000
0000000000
0000000000
0000000000
FFFFFFFFE0
FFFFFFFFF0
7FFFFFFFF0
3FFFDFFFF0
0FE00007F0
0FC00001F0
0FC0000070
0FC0000030
0FC0000000
0FC0000000
0FC0000000
0FC0000000
0FC0000000
0FC0000000
0FC0000000
0FC0000000
0FC0000000
0FC0000000
0FC0000E00
0FC0001E00
0FFFFFFE00
0FFFFFFE00
0FFFFFFE00
0FFFFFFE00
0FC0000E00
0FC0000400
0FC0000000
0FC0000000
0FC0000000
0FC0000000
0FC0000000
0FC0000000
0FC0000000
0FC0000000
0FC0000000
0FC0000000
0FC0000000
0FC0000000
0FC0000000
0FC000000C
0FC000001C
0FC000003C
0FC00000FC
1FE00007FC
3FFFFFFFFC
7FFFFFFFFC
FFFFFFFFF8
7FFFFFFFF0
ENDCHAR
STARTCHAR 00E9
ENCODING 233
SWIDTH 615 0
DWIDTH 41 0
BBX 38 65 2 0
BITMAP
0000002000
000000F800
000001F800
000003F800
000007F000
00000FE000
00001F8000
00003F0000
00007C0000
0000F00000
0000E00000
0001800000
0002000000
0000000000
0000000000
0000000000
0000000000
FFFFFFFFE0
FFFFFFFFF0
7FFFFFFFF0
3FFFDFFFF0
0FE00007F0
0FC00001F0
0FC0000070
0FC0000030
0FC0000000
0FC0000000
0FC0000000
0FC0000000
0FC0000000
0FC0000000
0FC0000000
0FC0000000
0FC0000000
0FC0000000
0FC0000E00
0FC0001E00
0FFFFFFE00
0FFFFFFE00
0FFFFFFE00
0FFFFFFE00
0FC0000E00
0FC0000400
0FC0000000
0FC0000000
0FC0000000
0FC0000000
0FC0000000
0FC0000000
0FC0000000
0FC0000000
0FC0000000
0FC0000000
0FC0000000
0FC0000000
0FC0000000
0FC000000C
0FC000001C
0FC000003C
0FC00000FC
1FE00007FC
3FFFFFFFFC
7FFFFFFFFC
FFFFFFFFF8
7FFFFFFFF0
ENDCHAR
STARTCHAR 00EA
ENCODING 234
SWIDTH 615 0
DWIDTH 41 0
BBX 38 64 2 0
BITMAP
00007C0000
00007E0000
0000FE0000
0001FF0000
0001FF8000
0003C78000
000783C000
000701E000
000E00E000
001C007000
0018001800
0000000000
0000000000
0000000000
0000000000
0000000000
FFFFFFFFE0
FFFFFFFFF0
7FFFFFFFF0
3FFFDFFFF0
0FE00007F0
0FC00001F0
0FC0000070
0FC0000030
0FC0000000
0FC0000000
0FC0000000
0FC0000000
0FC0000000
0FC0000000
0FC0000000
0FC0000000
0FC0000000
0FC0000000
0FC0000E00
0FC0001E00
0FFFFFFE00
0FFFFFFE00
0FFFFFFE00
0FFFFFFE00
0FC0000E00
0FC0000400
0FC0000000
0FC0000000
0FC0000000
0FC0000000
0FC0000000
0FC0000000
0FC0000000
0FC0000000
0FC0000000
0FC0000000
0FC0000000
0FC0000000
0FC0000000
0FC000000C
0FC000001C
0FC000003C
0FC00000FC
1FE00007FC
3FFFFFFFFC
7FFFFFFFFC
FFFFFFFFF8
7FFFFFFFF0
ENDCHAR
STARTCHAR 00EB
ENCODING 235
SWIDTH 615 0
DWIDTH 41 0
BBX 38 61 2 0
BITMAP
0000006000
0007C06000
001FFDE000
003FFFC000
003FFF8000
0070FF0000
0060000000
0060000000
0000000000
0000000000
0000000000
0000000000
0000000000
FFFFFFFFE0
FFFFFFFFF0
7FFFFFFFF0
3FFFDFFFF0
0FE00007F0
0FC00001F0
0FC0000070
0FC0000030
0FC0000000
0FC0000000
0FC0000000
0FC0000000
0FC0000000
0FC0000000
0FC0000000
0FC0000000
0FC0000000
0FC0000000
0FC0000E00
0FC0001E00
0FFFFFFE00
0FFFFFFE00
0FFFFFFE00
0FFFFFFE00
0FC0000E00
0FC0000400
0FC0000000
0FC0000000
0FC0000000
0FC0000000
0FC0000000
0FC0000000
0FC0000000
0FC0000000
0FC0000000
0FC0000000
0FC0000000
0FC0000000
0FC0000000
0FC000000C
0FC000001C
0FC000003C
0FC00000FC
1FE00007FC
3FFFFFFFFC
7FFFFFFFFC
FFFFFFFFF8
7FFFFFFFF0
ENDCHAR
STARTCHAR 00EC
ENCODING 236
SWIDTH 270 0
DWIDTH 18 0
BBX 16 65 0 0
BITMAP
2000
F800
FC00
FE00
7F00
3F80
0FC0
07C0
01E0
0070
0038
000C
0000
0000
0000
0000
0000
1FFF
3FFF
1FFE
07FC
03F8
03F0
03F0
03F0
03F0
03F0
03F0
03F0
03F0
03F0
03F0
03F0
03F0
03F0
03F0
03F0
03F0
03F0
03F0
03F0
03F0
03F0
03F0
03F0
03F0
03F0
03F0
03F0
03F0
03F0
03F0
03F0
03F0
03F0
03F0
03F0
03F0
03F0
03F0
03F8
0FFC
1FFE
3FFF
1FFF
ENDCHAR
STARTCHAR 00ED
ENCODING 237
SWIDTH 270 0
DWIDTH 18 0
BBX 16 64 2 1
BITMAP
000F
001F
003F
007F
00FC
01F8
03E0
07C0
0F00
1C00
3800
0000
0000
0000
0000
0000
7FFC
FFFC
7FF8
1FF0
0FE0
0FC0
0FC0
0FC0
0FC0
0FC0
0FC0
0FC0
0FC0
0FC0
0FC0
0FC0
0FC0
0FC0
0FC0
0FC0
0FC0
0FC0
0FC0
0FC0
0FC0
0FC0
0FC0
0FC0
0FC0
0FC0
0FC0
0FC0
0FC0
0FC0
0FC0
0FC0
0FC0
0FC0
0FC0
0FC0
0FC0
0FC0
0FC0
0FE0
3FF0
7FF8
FFFC
7FFC
ENDCHAR
STARTCHAR 00EE
ENCODING 238
SWIDTH 270 0
DWIDTH 18 0
BBX 18 64 0 0
BITMAP
01F000
03F000
07F800
07FC00
0FFC00
1F1E00
1E0F00
3C0700
780380
6001C0
C000C0
000000
000000
000000
000000
000000
1FFF00
3FFF00
1FFE00
07FC00
03F800
03F000
03F000
03F000
03F000
03F000
03F000
03F000
03F000
03F000
03F000
03F000
03F000
03F000
03F000
03F000
03F000
03F000
03F000
03F000
03F000
03F000
03F000
03F000
03F000
03F000
03F000
03F000
03F000
03F000
03F000
03F000
03F000
03F000
03F000
03F000
03F000
03F000
03F000
03F800
0FFC00
1FFE00
3FFF00
1FFF00
ENDCHAR
STARTCHAR 00EF
ENCODING 239
SWIDTH 270 0
DWIDTH 18 0
BBX 19 61 -1 0
BITMAP
000060
0FC0E0
1FFDC0
3FFFC0
7FFF80
60FF00
400000
C00000
000000
000000
000000
000000
000000
0FFF80
1FFF80
0FFF00
03FE00
01FC00
01F800
01F800
01F800
01F800
01F800
01F800
01F800
01F800
01F800
01F800
01F800
01F800
01F800
01F800
01F800
01F800
01F800
01F800
01F800
01F800
01F800
01F800
01F800
01F800
01F800
01F800
01F800
01F800
01F800
01F800
01F800
01F800
01F800
01F800
01F800
01F800
01F800
01F800
01FC00
07FE00
0FFF00
1FFF80
0FFF80
ENDCHAR
STARTCHAR 00F0
ENCODING 240
SWIDTH 645 0
DWIDTH 43 0
BBX 45 73 -1 0
BITMAP
000000030000
000008030000
00007F870000
0000FFFE0000
0001FFFE0000
0003DFFC0000
000301F00000
000300000000
000000000000
000000000000
000000000000
000000000000
000600040000
000200040000
0003000C0000
0003801C0000
0001FFF80000
0000FFF00000
00007FE00000
00003FC00000
000000000000
000000000000
000000000000
000000000000
000003000000
000007800000
00000F800000
00001FC00000
00001FE00000
00003FE00000
00003FF00000
00007FF00000
00007FF80000
0000F9F80000
0000F9FC0000
0001F0FC0000
0001F0FE0000
0001E07E0000
0003E07F0000
0003C03F0000
0007C03F0000
0007801F8000
000F801F8000
000F001FC000
000F000FC000
001F000FE000
001E0007E000
003E0007E000
003C0007F000
003C0003F000
007C0003F000
00780003F800
00FFFFFFF800
00FFFFFFFC00
00FFFFFFFC00
01FFFFFFFC00
01F00000FE00
01E000007E00
03E000007E00
03E000007F00
03C000003F00
07C000003F00
07C000003F00
078000001F80
0F8000001F80
0F8000001F80
1F8000000FC0
1F8000000FC0
1F8000000FE0
3FC000003FF0
7FF000007FF8
FFF00000FFF8
7FF000007FF8
ENDCHAR
STARTCHAR 00F1
ENCODING 241
SWIDTH 720 0
DWIDTH 48 0
BBX 46 48 0 0
BITMAP
1FFFFFF00000
3FFFFFFE0000
1FFFFFFFC000
07FE01FFF000
03F8000FF800
03F80003FC00
03F00000FF00
03F000007F00
03F000003F80
03F000001FC0
03F000000FE0
03F000000FE0
03F0000007F0
03F0000007F0
03F0000003F8
03F0000003F8
03F0000001F8
03F0000001FC
03F0000001FC
03F0000001FC
7FFFFF8001FC
FFFFFF8001FC
FFFFFF8001FC
03F0000001FC
03F0000001FC
03F0000001FC
03F0000001FC
03F0000001FC
03F0000001FC
03F0000001FC
03F0000001FC
03F0000003F8
03F0000003F8
03F0000003F8
03F0000007F0
03F0000007F0
03F000000FE0
03F000000FE0
03F000001FC0
03F000003F80
03F000007F00
03F80001FE00
03F80003FC00
03F8001FF800
07FF03FFE000
1FFFFFFF8000
3FFFFFFC0000
1FFFFFC00000
ENDCHAR
STARTCHAR 00F2
ENCODING 242
SWIDTH 765 0
DWIDTH 51 0
BBX 47 66 2 -1
BITMAP
000080000000
0001E0000000
0003F0000000
0001F8000000
0001FC000000
00007E000000
00003F000000
00000F800000
000007C00000
000001E00000
000000700000
000000380000
000000000000
000000000000
000000000000
000000000000
00003FFC0000
0001FFFF8000
0007FFFFE000
001FFEFFF000
003FC007FC00
00FF0001FE00
01FC00007F00
03F800003F80
03F000001FC0
07E000000FC0
0FE000000FE0
0FC0000007F0
1FC0000003F0
1F80000003F8
3F80000003F8
3F00000001F8
7F00000001FC
7F00000001FC
7F00000001FC
7F00000000FC
7E00000000FE
7E00000000FE
FE00000000FE
FE00000000FE
FE00000000FE
FE00000000FE
FE00000000FE
FE00000000FE
FE00000000FE
7E00000000FE
7E00000000FC
7F00000000FC
7F00000001FC
7F00000001FC
3F00000001F8
3F80000003F8
3F80000003F8
1FC0000003F0
1FC0000007F0
0FE0000007E0
07E000000FE0
07F000001FC0
03F800003F80
01FC00007F00
00FE0000FE00
007F8003FC00
003FF83FF800
000FFFFFE000
0003FFFF8000
00007FFC0000
ENDCHAR
STARTCHAR 00F3
ENCODING 243
SWIDTH 765 0
DWIDTH 51 0
BBX 47 66 2 -1
BITMAP
000000020000
0000000F8000
0000001F8000
0000003F8000
0000007F0000
000000FE0000
000001F80000
000003F00000
000007C00000
00000F000000
00001E000000
000018000000
000020000000
000000000000
000000000000
000000000000
00003FFC0000
0001FFFF8000
0007FFFFE000
001FFEFFF000
003FC007FC00
00FF0001FE00
01FC00007F00
03F800003F80
03F000001FC0
07E000000FC0
0FE000000FE0
0FC0000007F0
1FC0000003F0
1F80000003F8
3F80000003F8
3F00000001F8
7F00000001FC
7F00000001FC
7F00000001FC
7F00000000FC
7E00000000FE
7E00000000FE
FE00000000FE
FE00000000FE
FE00000000FE
FE00000000FE
FE00000000FE
FE00000000FE
FE00000000FE
7E00000000FE
7E00000000FC
7F00000000FC
7F00000001FC
7F00000001FC
3F00000001F8
3F80000003F8
3F80000003F8
1FC0000003F0
1FC0000007F0
0FE0000007E0
07E000000FE0
07F000001FC0
03F800003F80
01FC00007F00
00FE0000FE00
007F8003FC00
003FF83FF800
000FFFFFE000
0003FFFF8000
00007FFC0000
ENDCHAR
STARTCHAR 00F4
ENCODING 244
SWIDTH 765 0
DWIDTH 51 0
BBX 47 65 2 -1
BITMAP
000007C00000
000007E00000
00000FE00000
00001FF00000
00001EF80000
00003C780000
0000783C0000
0000701E0000
0000E00E0000
0001C0070000
000180018000
000000000000
000000000000
000000000000
000000000000
00003FFC0000
0001FFFF8000
0007FFFFE000
001FFEFFF000
003FC007FC00
00FF0001FE00
01FC00007F00
03F800003F80
03F000001FC0
07E000000FC0
0FE000000FE0
0FC0000007F0
1FC0000003F0
1F80000003F8
3F80000003F8
3F00000001F8
7F00000001FC
7F00000001FC
7F00000001FC
7F00000000FC
7E00000000FE
7E00000000FE
FE00000000FE
FE00000000FE
FE00000000FE
FE00000000FE
FE00000000FE
FE00000000FE
FE00000000FE
7E00000000FE
7E00000000FC
7F00000000FC
7F00000001FC
7F00000001FC
3F00000001F8
3F80000003F8
3F80000003F8
1FC0000003F0
1FC0000007F0
0FE0000007E0
07E000000FE0
07F000001FC0
03F800003F80
01FC00007F00
00FE0000FE00
007F8003FC00
003FF83FF800
000FFFFFE000
0003FFFF8000
00007FFC0000
ENDCHAR
STARTCHAR 00F5
ENCODING 245
SWIDTH 765 0
DWIDTH 51 0
BBX 47 64 2 -1
BITMAP
000000018000
000000018000
00003F830000
0000FFFF0000
0000FFFF0000
0001FFFE0000
000181F80000
000100000000
000300000000
000000000000
000000000000
000000000000
000000000000
000000000000
00003FFC0000
0001FFFF8000
0007FFFFE000
001FFEFFF000
003FC007FC00
00FF0001FE00
01FC00007F00
03F800003F80
03F000001FC0
07E000000FC0
0FE000000FE0
0FC0000007F0
1FC0000003F0
1F80000003F8
3F80000003F8
3F00000001F8
7F00000001FC
7F00000001FC
7F00000001FC
7F00000000FC
7E00000000FE
7E00000000FE
FE00000000FE
FE00000000FE
FE00000000FE
FE00000000FE
FE00000000FE
FE00000000FE
FE00000000FE
7E00000000FE
7E00000000FC
7F00000000FC
7F00000001FC
7F00000001FC
3F00000001F8
3F80000003F8
3F80000003F8
1FC0000003F0
1FC0000007F0
0FE0000007E0
07E000000FE0
07F000001FC0
03F800003F80
01FC00007F00
00FE0000FE00
007F8003FC00
003FF83FF800
000FFFFFE000
0003FFFF8000
00007FFC0000
ENDCHAR
STARTCHAR 00F6
ENCODING 246
SWIDTH 765 0
DWIDTH 51 0
BBX 47 62 2 -1
BITMAP
0000F00E0000
0001F81F0000
0001F83F8000
0001F83F8000
0001F83F0000
0000F01F0000
000000000000
000000000000
000000000000
000000000000
000000000000
000000000000
00003FFC0000
0001FFFF8000
0007FFFFE000
001FFEFFF000
003FC007FC00
00FF0001FE00
01FC00007F00
03F800003F80
03F000001FC0
07E000000FC0
0FE000000FE0
0FC0000007F0
1FC0000003F0
1F80000003F8
3F80000003F8
3F00000001F8
7F00000001FC
7F00000001FC
7F00000001FC
7F00000000FC
7E00000000FE
7E00000000FE
FE00000000FE
FE00000000FE
FE00000000FE
FE00000000FE
FE00000000FE
FE00000000FE
FE00000000FE
7E00000000FE
7E00000000FC
7F00000000FC
7F00000001FC
7F00000001FC
3F00000001F8
3F80000003F8
3F80000003F8
1FC0000003F0
1FC0000007F0
0FE0000007E0
07E000000FE0
07F000001FC0
03F800003F80
01FC00007F00
00FE0000FE00
007F8003FC00
003FF83FF800
000FFFFFE000
0003FFFF8000
00007FFC0000
ENDCHAR
STARTCHAR 00F7
ENCODING 247
SWIDTH 765 0
DWIDTH 51 0
BBX 47 61 2 -1
BITMAP
000000000FC0
000000001C60
000000001830
000000001810
000000000018
000000000038
000000000030
000000000030
0000000000E0
0000000007C0
000000000F80
00003FFC0800
0001FFFF9800
0007FFFFF000
001FFEFFF000
003FC007FC00
00FF0001FE00
01FC00007F00
03F800003F80
03F000001FC0
07E000000FC0
0FE000000FE0
0FC0000007F0
1FC0000003F0
1F80000003F8
3F80000003F8
3F00000001F8
7F00000001FC
7F00000001FC
7F00000001FC
7F00000000FC
7E00000000FE
7E00000000FE
FE00000000FE
FE00000000FE
FE00000000FE
FE00000000FE
FE00000000FE
FE00000000FE
FE00000000FE
7E00000000FE
7E00000000FC
7F00000000FC
7F00000001FC
7F00000001FC
3F00000001F8
3F80000003F8
3F80000003F8
1FC0000003F0
1FC0000007F0
0FE0000007E0
07E000000FE0
07F000001FC0
03F800003F80
01FC00007F00
00FE0000FE00
007F8003FC00
003FF83FF800
000FFFFFE000
0003FFFF8000
00007FFC0000
ENDCHAR
STARTCHAR 00F8
ENCODING 248
SWIDTH 705 0
DWIDTH 47 0
BBX 43 60 2 -12
BITMAP
FFF80003FFE0
FFFC0003FFE0
FFF80001FFE0
3FF00000FF80
1FC000003F00
1FC000001F00
1FC000001F00
1F8000001F00
1F8000001F00
1F8000001F00
1F8000001F00
1F8000001F00
1F8000001F00
1F8000001F00
1F8000001F00
1F0000000F00
1F0000000F00
1F0000000F00
1F0000000F00
1F0000000F00
3F0000000F00
3F0000000F00
3F0000000F80
3F0000000F80
3F0000000F80
3F0000000F80
3F0000000F80
3F0000000F80
3F0000000F80
3F0000000F80
3F0000000F80
3F0000000F80
1F0000000F00
1F0000001F00
1F8000001F00
1F8000001F00
1F8000001F00
1F8000003E00
0FC000003E00
0FC000003E00
07E000007C00
07F00000FC00
03F80001F800
03FC0003F000
01FF001FE000
00FFFFFFC000
003FFFFF8000
001FFFFE0000
0003FFF00000
000000000000
000000000000
000000000000
000000000000
00001F000000
00003F000000
00003F800000
00003F800000
00003F800000
00003F000000
00000E000000
ENDCHAR
STARTCHAR 00F9
ENCODING 249
SWIDTH 705 0
DWIDTH 47 0
BBX 43 66 2 -1
BITMAP
000100000000
0003C0000000
0007E0000000
0007F0000000
0003F8000000
0001FC000000
00007E000000
00001F000000
00000F800000
000003C00000
000001E00000
000000700000
000000000000
000000000000
000000000000
000000000000
000000000000
FFF80003FFE0
FFFC0003FFE0
FFF80001FFE0
3FF00000FF80
1FC000003F00
1FC000001F00
1FC000001F00
1F8000001F00
1F8000001F00
1F8000001F00
1F8000001F00
1F8000001F00
1F8000001F00
1F8000001F00
1F8000001F00
1F0000000F00
1F0000000F00
1F0000000F00
1F0000000F00
1F0000000F00
3F0000000F00
3F0000000F00
3F0000000F80
3F0000000F80
3F0000000F80
3F0000000F80
3F0000000F80
3F0000000F80
3F0000000F80
3F0000000F80
3F0000000F80
3F0000000F80
1F0000000F00
1F0000001F00
1F8000001F00
1F8000001F00
1F8000001F00
1F8000003E00
0FC000003E00
0FC000003E00
07E000007C00
07F00000FC00
03F80001F800
03FC0003F000
01FF001FE000
00FFFFFFC000
003FFFFF8000
001FFFFE0000
0003FFF00000
ENDCHAR
STARTCHAR 00FA
ENCODING 250
SWIDTH 705 0
DWIDTH 47 0
BBX 43 66 2 -1
BITMAP
000000040000
0000001E0000
0000003F0000
0000007F0000
000000FE0000
000001FC0000
000003F00000
000007C00000
00000F800000
00001E000000
00003C000000
000070000000
000000000000
000000000000
000000000000
000000000000
000000000000
FFF80003FFE0
FFFC0003FFE0
FFF80001FFE0
3FF00000FF80
1FC000003F00
1FC000001F00
1FC000001F00
1F8000001F00
1F8000001F00
1F8000001F00
1F8000001F00
1F8000001F00
1F8000001F00
1F8000001F00
1F8000001F00
1F0000000F00
1F0000000F00
1F0000000F00
1F0000000F00
1F0000000F00
3F0000000F00
3F0000000F00
3F0000000F80
3F0000000F80
3F0000000F80
3F0000000F80
3F0000000F80
3F0000000F80
3F0000000F80
3F0000000F80
3F0000000F80
3F0000000F80
1F0000000F00
1F0000001F00
1F8000001F00
1F8000001F00
1F8000001F00
1F8000003E00
0FC000003E00
0FC000003E00
07E000007C00
07F00000FC00
03F80001F800
03FC0003F000
01FF001FE000
00FFFFFFC000
003FFFFF8000
001FFFFE0000
0003FFF00000
ENDCHAR
STARTCHAR 00FB
ENCODING 251
SWIDTH 705 0
DWIDTH 47 0
BBX 43 69 2 -1
BITMAP
000003C00000
00000E700000
00001C180000
00001C180000
000008180000
000000180000
000000180000
000000180000
000000380000
000000F00000
000001C00000
000003000000
000003000000
000002000000
000002000000
000000000000
000000000000
000000000000
000000000000
000000000000
FFF80003FFE0
FFFC0003FFE0
FFF80001FFE0
3FF00000FF80
1FC000003F00
1FC000001F00
1FC000001F00
1F8000001F00
1F8000001F00
1F8000001F00
1F8000001F00
1F8000001F00
1F8000001F00
1F8000001F00
1F8000001F00
1F0000000F00
1F0000000F00
1F0000000F00
1F0000000F00
1F0000000F00
3F0000000F00
3F0000000F00
3F0000000F80
3F0000000F80
3F0000000F80
3F0000000F80
3F0000000F80
3F0000000F80
3F0000000F80
3F0000000F80
3F0000000F80
3F0000000F80
1F0000000F00
1F0000001F00
1F8000001F00
1F8000001F00
1F8000001F00
1F8000003E00
0FC000003E00
0FC000003E00
07E000007C00
07F00000FC00
03F80001F800
03FC0003F000
01FF001FE000
00FFFFFFC000
003FFFFF8000
001FFFFE0000
0003FFF00000
ENDCHAR
STARTCHAR 00FC
ENCODING 252
SWIDTH 705 0
DWIDTH 47 0
BBX 43 62 2 -1
BITMAP
0001E03C0000
0003E07E0000
0003F07E0000
0003F07E0000
0003F07E0000
0003E03C0000
000000000000
000000000000
000000000000
000000000000
000000000000
000000000000
000000000000
FFF80003FFE0
FFFC0003FFE0
FFF80001FFE0
3FF00000FF80
1FC000003F00
1FC000001F00
1FC000001F00
1F8000001F00
1F8000001F00
1F8000001F00
1F8000001F00
1F8000001F00
1F8000001F00
1F8000001F00
1F8000001F00
1F0000000F00
1F0000000F00
1F0000000F00
1F0000000F00
1F0000000F00
3F0000000F00
3F0000000F00
3F0000000F80
3F0000000F80
3F0000000F80
3F0000000F80
3F0000000F80
3F0000000F80
3F0000000F80
3F0000000F80
3F0000000F80
3F0000000F80
1F0000000F00
1F0000001F00
1F8000001F00
1F8000001F00
1F8000001F00
1F8000003E00
0FC000003E00
0FC000003E00
07E000007C00
07F00000FC00
03F80001F800
03FC0003F000
01FF001FE000
00FFFFFFC000
003FFFFF8000
001FFFFE0000
0003FFF00000
ENDCHAR
STARTCHAR 00FD
ENCODING 253
SWIDTH 645 0
DWIDTH 43 0
BBX 45 68 -1 0
BITMAP
000003800000
00000CE00000
000018300000
000038300000
000018300000
000000300000
000000300000
000000300000
000000700000
000000E00000
000003C00000
000007000000
000006000000
000006000000
000006000000
000000000000
000000000000
000000000000
000000000000
000000000000
FFFC00007FF8
FFFC00007FF8
FFF800007FF0
3FE000001FE0
0FE000000FC0
0FE000000F80
07E000000F80
07F000001F00
03F000001E00
01F800003E00
01FC00003C00
00FC00007800
00FE00007800
007F0000F000
003F0001E000
003F8001E000
001FC003C000
000FE0078000
000FE00F8000
0007F00F0000
0003F81E0000
0001FC3E0000
0001FC3C0000
0000FE780000
00007FF00000
00003FF00000
00003FE00000
00001FC00000
00001FC00000
00000FC00000
00000FC00000
00000FC00000
00000FC00000
00000FC00000
00000FC00000
00000FC00000
00000FC00000
00000FC00000
00000FC00000
00000FC00000
00000FC00000
00000FC00000
00000FC00000
00001FC00000
00003FF00000
00007FF80000
0000FFFC0000
0000FFF80000
ENDCHAR
STARTCHAR 00FE
ENCODING 254
SWIDTH 615 0
DWIDTH 41 0
BBX 38 61 2 0
BITMAP
0000006000
0007C06000
001FFDE000
003FFFC000
003FFF8000
0070FF0000
0060000000
0060000000
0000000000
0000000000
0000000000
0000000000
0000000000
FFFFFFFFE0
FFFFFFFFF0
7FFFFFFFF0
3FFFDFFFF0
0FE00007F0
0FC00001F0
0FC0000070
0FC0000030
0FC0000000
0FC0000000
0FC0000000
0FC0000000
0FC0000000
0FC0000000
0FC0000000
0FC0000000
0FC0000000
0FC0000000
0FC0000E00
0FC0001E00
0FFFFFFE00
0FFFFFFE00
0FFFFFFE00
0FFFFFFE00
0FC0000E00
0FC0000400
0FC0000000
0FC0000000
0FC0000000
0FC0000000
0FC0000000
0FC0000000
0FC0000000
0FC0000000
0FC0000000
0FC0000000
0FC0000000
0FC0000000
0FC0000000
0FC000000C
0FC000001C
0FC000003C
0FC00000FC
1FE00007FC
3FFFFFFFFC
7FFFFFFFFC
FFFFFFFFF8
7FFFFFFFF0
ENDCHAR
STARTCHAR 00FF
ENCODING 255
SWIDTH 645 0
DWIDTH 43 0
BBX 45 64 -1 0
BITMAP
000700000000
000F80000000
000FC0000000
000FE0000000
0007F0000000
0001F8000000
0000FC000000
00003E000000
00000F000000
000007800000
000001C00000
000000E00000
000000000000
000000000000
000000000000
000000000000
FFFC00007FF8
FFFC00007FF8
FFF800007FF0
3FE000001FE0
0FE000000FC0
0FE000000F80
07E000000F80
07F000001F00
03F000001E00
01F800003E00
01FC00003C00
00FC00007800
00FE00007800
007F0000F000
003F0001E000
003F8001E000
001FC003C000
000FE0078000
000FE00F8000
0007F00F0000
0003F81E0000
0001FC3E0000
0001FC3C0000
0000FE780000
00007FF00000
00003FF00000
00003FE00000
00001FC00000
00001FC00000
00000FC00000
00000FC00000
00000FC00000
00000FC00000
00000FC00000
00000FC00000
00000FC00000
00000FC00000
00000FC00000
00000FC00000
00000FC00000
00000FC00000
00000FC00000
00000FC00000
00001FC00000
00003FF00000
00007FF80000
0000FFFC0000
0000FFF80000
ENDCHAR
STARTCHAR 0106
ENCODING 262
SWIDTH 690 0
DWIDTH 46 0
BBX 0 0 0 0
BITMAP
ENDCHAR
STARTCHAR 0107
ENCODING 263
SWIDTH 435 0
DWIDTH 29 0
BBX 0 0 0 0
BITMAP
ENDCHAR
STARTCHAR 010C
ENCODING 268
SWIDTH 690 0
DWIDTH 46 0
BBX 0 0 0 0
BITMAP
ENDCHAR
STARTCHAR 010D
ENCODING 269
SWIDTH 435 0
DWIDTH 29 0
BBX 0 0 0 0
BITMAP
ENDCHAR
STARTCHAR 0111
ENCODING 273
SWIDTH 555 0
DWIDTH 37 0
BBX 0 0 0 0
BITMAP
ENDCHAR
STARTCHAR 011E
ENCODING 286
SWIDTH 765 0
DWIDTH 51 0
BBX 0 0 0 0
BITMAP
ENDCHAR
STARTCHAR 011F
ENCODING 287
SWIDTH 495 0
DWIDTH 33 0
BBX 0 0 0 0
BITMAP
ENDCHAR
STARTCHAR 0130
ENCODING 304
SWIDTH 270 0
DWIDTH 18 0
BBX 0 0 0 0
BITMAP
ENDCHAR
STARTCHAR 0131
ENCODING 305
SWIDTH 240 0
DWIDTH 16 0
BBX 0 0 0 0
BITMAP
ENDCHAR
STARTCHAR 0141
ENCODING 321
SWIDTH 585 0
DWIDTH 39 0
BBX 0 0 0 0
BITMAP
ENDCHAR
STARTCHAR 0142
ENCODING 322
SWIDTH 225 0
DWIDTH 15 0
BBX 0 0 0 0
BITMAP
ENDCHAR
STARTCHAR 0152
ENCODING 338
SWIDTH 615 0
DWIDTH 41 0
BBX 38 75 2 -11
BITMAP
00007C0000
00007E0000
0000FE0000
0001FF0000
0001FF8000
0003C78000
000783C000
000701E000
000E00E000
001C007000
0018001800
0000000000
0000000000
0000000000
0000000000
0000000000
FFFFFFFFE0
FFFFFFFFF0
7FFFFFFFF0
3FFFDFFFF0
0FE00007F0
0FC00001F0
0FC0000070
0FC0000030
0FC0000000
0FC0000000
0FC0000000
0FC0000000
0FC0000000
0FC0000000
0FC0000000
0FC0000000
0FC0000000
0FC0000000
0FC0000E00
0FC0001E00
0FFFFFFE00
0FFFFFFE00
0FFFFFFE00
0FFFFFFE00
0FC0000E00
0FC0000400
0FC0000000
0FC0000000
0FC0000000
0FC0000000
0FC0000000
0FC0000000
0FC0000000
0FC0000000
0FC0000000
0FC0000000
0FC0000000
0FC0000000
0FC0000000
0FC000000C
0FC000001C
0FC000003C
0FC00000FC
1FE00007FC
3FFFFFFFFC
7FFFFFFFFC
FFFFFFFFF8
7FFFFFFFF0
0000000000
0000000000
0000000000
0000000000
0000380000
00007E0000
0000FE0000
0000FE0000
0000FE0000
00007E0000
00003C0000
ENDCHAR
STARTCHAR 0153
ENCODING 339
SWIDTH 645 0
DWIDTH 43 0
BBX 45 59 -1 -11
BITMAP
FFFC00007FF8
FFFC00007FF8
FFF800007FF0
3FE000001FE0
0FE000000FC0
0FE000000F80
07E000000F80
07F000001F00
03F000001E00
01F800003E00
01FC00003C00
00FC00007800
00FE00007800
007F0000F000
003F0001E000
003F8001E000
001FC003C000
000FE0078000
000FE00F8000
0007F00F0000
0003F81E0000
0001FC3E0000
0001FC3C0000
0000FE780000
00007FF00000
00003FF00000
00003FE00000
00001FC00000
00001FC00000
00000FC00000
00000FC00000
00000FC00000
00000FC00000
00000FC00000
00000FC00000
00000FC00000
00000FC00000
00000FC00000
00000FC00000
00000FC00000
00000FC00000
00000FC00000
00000FC00000
00001FC00000
00003FF00000
00007FF80000
0000FFFC0000
0000FFF80000
000000000000
000000000000
000000000000
000000000000
000007C00000
00000FC00000
00000FE00000
00000FE00000
00000FE00000
00000FC00000
000003800000
ENDCHAR
STARTCHAR 015E
ENCODING 350
SWIDTH 570 0
DWIDTH 38 0
BBX 0 0 0 0
BITMAP
ENDCHAR
STARTCHAR 015F
ENCODING 351
SWIDTH 375 0
DWIDTH 25 0
BBX 0 0 0 0
BITMAP
ENDCHAR
STARTCHAR 0160
ENCODING 352
SWIDTH 615 0
DWIDTH 41 0
BBX 39 72 1 0
BITMAP
7000000000
F800000000
FC00000000
FE00000000
7F00000000
1F80000000
0FC0000000
03E0000000
00F03E0000
00783F0000
001C7F0000
000EFF8000
0000FFC000
0001E3C000
0003C1E000
000380F000
0007007000
000E003800
000C000C00
0000000000
0000000000
0000000000
0000000000
0000000000
7FFFFFFFF0
7FFFFFFFF8
3FFFFFFFF8
1FFFEFFFF8
07F00003F8
07E00000F8
07E0000038
07E0000018
07E0000000
07E0000000
07E0000000
07E0000000
07E0000000
07E0000000
07E0000000
07E0000000
07E0000000
07E0000000
07E0000700
07E0000F00
07FFFFFF00
07FFFFFF00
07FFFFFF00
07FFFFFF00
07E0000700
07E0000200
07E0000000
07E0000000
07E0000000
07E0000000
07E0000000
07E0000000
07E0000000
07E0000000
07E0000000
07E0000000
07E0000000
07E0000000
07E0000000
07E0000006
07E000000E
07E000001E
07E000007E
0FF00003FE
1FFFFFFFFE
3FFFFFFFFE
7FFFFFFFFC
3FFFFFFFF8
ENDCHAR
STARTCHAR 0161
ENCODING 353
SWIDTH 645 0
DWIDTH 43 0
BBX 45 64 -1 1
BITMAP
0000000F0000
0000001F0000
0000003F0000
0000007E0000
000000FC0000
000001F00000
000003E00000
000007800000
00000F000000
00001C000000
000030000000
000000000000
000000000000
000000000000
000000000000
000000000000
FFFC00007FF8
FFFC00007FF8
FFF800007FF0
3FE000001FE0
0FE000000FC0
0FE000000F80
07E000000F80
07F000001F00
03F000001E00
01F800003E00
01FC00003C00
00FC00007800
00FE00007800
007F0000F000
003F0001E000
003F8001E000
001FC003C000
000FE0078000
000FE00F8000
0007F00F0000
0003F81E0000
0001FC3E0000
0001FC3C0000
0000FE780000
00007FF00000
00003FF00000
00003FE00000
00001FC00000
00001FC00000
00000FC00000
00000FC00000
00000FC00000
00000FC00000
00000FC00000
00000FC00000
00000FC00000
00000FC00000
00000FC00000
00000FC00000
00000FC00000
00000FC00000
00000FC00000
00000FC00000
00001FC00000
00003FF00000
00007FF80000
0000FFFC0000
0000FFF80000
ENDCHAR
STARTCHAR 0178
ENCODING 376
SWIDTH 765 0
DWIDTH 51 0
BBX 47 73 2 -1
BITMAP
000001E00000
000007300000
00000C180000
00000C0C0000
00000C0C0000
0000000C0000
0000000C0000
0000001C0000
000000180000
000000780000
000001E00000
000001800000
000001000FC0
000001001C60
000001001830
000000001810
000000000018
000000000038
000000000030
000000000030
0000000000E0
0000000007C0
000000000F80
00003FFC0800
0001FFFF9800
0007FFFFF000
001FFEFFF000
003FC007FC00
00FF0001FE00
01FC00007F00
03F800003F80
03F000001FC0
07E000000FC0
0FE000000FE0
0FC0000007F0
1FC0000003F0
1F80000003F8
3F80000003F8
3F00000001F8
7F00000001FC
7F00000001FC
7F00000001FC
7F00000000FC
7E00000000FE
7E00000000FE
FE00000000FE
FE00000000FE
FE00000000FE
FE00000000FE
FE00000000FE
FE00000000FE
FE00000000FE
7E00000000FE
7E00000000FC
7F00000000FC
7F00000001FC
7F00000001FC
3F00000001F8
3F80000003F8
3F80000003F8
1FC0000003F0
1FC0000007F0
0FE0000007E0
07E000000FE0
07F000001FC0
03F800003F80
01FC00007F00
00FE0000FE00
007F8003FC00
003FF83FF800
000FFFFFE000
0003FFFF8000
00007FFC0000
ENDCHAR
STARTCHAR 017D
ENCODING 381
SWIDTH 540 0
DWIDTH 36 0
BBX 0 0 0 0
BITMAP
ENDCHAR
STARTCHAR 017E
ENCODING 382
SWIDTH 375 0
DWIDTH 25 0
BBX 0 0 0 0
BITMAP
ENDCHAR
STARTCHAR 0192
ENCODING 402
SWIDTH 645 0
DWIDTH 43 0
BBX 45 72 -1 0
BITMAP
000000000070
0000000000F8
0000000001F8
0000000003F8
0000000007F0
000000000FC0
000000001F80
000000003E00
000007807800
00000FC0F000
00001FE1C000
00001FE38000
00003FF00000
00007CF80000
000078780000
0000E01C0000
0001C00E0000
000180060000
000300030000
000000000000
000000000000
000000000000
000000000000
000003000000
000007800000
00000F800000
00001FC00000
00001FE00000
00003FE00000
00003FF00000
00007FF00000
00007FF80000
0000F9F80000
0000F9FC0000
0001F0FC0000
0001F0FE0000
0001E07E0000
0003E07F0000
0003C03F0000
0007C03F0000
0007801F8000
000F801F8000
000F001FC000
000F000FC000
001F000FE000
001E0007E000
003E0007E000
003C0007F000
003C0003F000
007C0003F000
00780003F800
00FFFFFFF800
00FFFFFFFC00
00FFFFFFFC00
01FFFFFFFC00
01F00000FE00
01E000007E00
03E000007E00
03E000007F00
03C000003F00
07C000003F00
07C000003F00
078000001F80
0F8000001F80
0F8000001F80
1F8000000FC0
1F8000000FC0
1F8000000FE0
3FC000003FF0
7FF000007FF8
FFF00000FFF8
7FF000007FF8
ENDCHAR
STARTCHAR 02C6
ENCODING 710
SWIDTH 645 0
DWIDTH 43 0
BBX 45 61 -1 0
BITMAP
000600040000
000200040000
0003000C0000
0003801C0000
0001FFF80000
0000FFF00000
00007FE00000
00003FC00000
000000000000
000000000000
000000000000
000000000000
000003000000
000007800000
00000F800000
00001FC00000
00001FE00000
00003FE00000
00003FF00000
00007FF00000
00007FF80000
0000F9F80000
0000F9FC0000
0001F0FC0000
0001F0FE0000
0001E07E0000
0003E07F0000
0003C03F0000
0007C03F0000
0007801F8000
000F801F8000
000F001FC000
000F000FC000
001F000FE000
001E0007E000
003E0007E000
003C0007F000
003C0003F000
007C0003F000
00780003F800
00FFFFFFF800
00FFFFFFFC00
00FFFFFFFC00
01FFFFFFFC00
01F00000FE00
01E000007E00
03E000007E00
03E000007F00
03C000003F00
07C000003F00
07C000003F00
078000001F80
0F8000001F80
0F8000001F80
1F8000000FC0
1F8000000FC0
1F8000000FE0
3FC000003FF0
7FF000007FF8
FFF00000FFF8
7FF000007FF8
ENDCHAR
STARTCHAR 02C7
ENCODING 711
SWIDTH 495 0
DWIDTH 33 0
BBX 0 0 0 0
BITMAP
ENDCHAR
STARTCHAR 02DA
ENCODING 730
SWIDTH 495 0
DWIDTH 33 0
BBX 0 0 0 0
BITMAP
ENDCHAR
STARTCHAR 02DB
ENCODING 731
SWIDTH 495 0
DWIDTH 33 0
BBX 0 0 0 0
BITMAP
ENDCHAR
STARTCHAR 02DC
ENCODING 732
SWIDTH 765 0
DWIDTH 51 0
BBX 47 76 2 -1
BITMAP
000000001800
00000000EE00
000000018300
000000018180
000000018180
000000000180
000000000180
000000000380
000000000300
000000000F00
000000001E00
000007C03800
000007E02000
00000FE02000
00001FF02000
00001EF80000
00003C780000
0000783C0000
0000701E0000
0000E00E0000
0001C0070000
000180018000
000000000000
000000000000
000000000000
000000000000
00003FFC0000
0001FFFF8000
0007FFFFE000
001FFEFFF000
003FC007FC00
00FF0001FE00
01FC00007F00
03F800003F80
03F000001FC0
07E000000FC0
0FE000000FE0
0FC0000007F0
1FC0000003F0
1F80000003F8
3F80000003F8
3F00000001F8
7F00000001FC
7F00000001FC
7F00000001FC
7F00000000FC
7E00000000FE
7E00000000FE
FE00000000FE
FE00000000FE
FE00000000FE
FE00000000FE
FE00000000FE
FE00000000FE
FE00000000FE
7E00000000FE
7E00000000FC
7F00000000FC
7F00000001FC
7F00000001FC
3F00000001F8
3F80000003F8
3F80000003F8
1FC0000003F0
1FC0000007F0
0FE0000007E0
07E000000FE0
07F000001FC0
03F800003F80
01FC00007F00
00FE0000FE00
007F8003FC00
003FF83FF800
000FFFFFE000
0003FFFF8000
00007FFC0000
ENDCHAR
STARTCHAR 03A9
ENCODING 937
SWIDTH 765 0
DWIDTH 51 0
BBX 0 0 0 0
BITMAP
ENDCHAR
STARTCHAR 03C0
ENCODING 960
SWIDTH 660 0
DWIDTH 44 0
BBX 0 0 0 0
BITMAP
ENDCHAR
STARTCHAR 2013
ENCODING 8211
SWIDTH 765 0
DWIDTH 51 0
BBX 47 73 2 -1
BITMAP
000000000070
0000000000F8
0000000001F8
0000000003F8
0000000007F0
000000000FC0
000000001F80
000000003E00
000007C07C00
000007E0F000
00000FE1C000
00001FF38000
00001EF80000
00003C780000
0000783C0000
0000701E0000
0000E00E0000
0001C0070000
000180018000
000000000000
000000000000
000000000000
000000000000
00003FFC0000
0001FFFF8000
0007FFFFE000
001FFEFFF000
003FC007FC00
00FF0001FE00
01FC00007F00
03F800003F80
03F000001FC0
07E000000FC0
0FE000000FE0
0FC0000007F0
1FC0000003F0
1F80000003F8
3F80000003F8
3F00000001F8
7F00000001FC
7F00000001FC
7F00000001FC
7F00000000FC
7E00000000FE
7E00000000FE
FE00000000FE
FE00000000FE
FE00000000FE
FE00000000FE
FE00000000FE
FE00000000FE
FE00000000FE
7E00000000FE
7E00000000FC
7F00000000FC
7F00000001FC
7F00000001FC
3F00000001F8
3F80000003F8
3F80000003F8
1FC0000003F0
1FC0000007F0
0FE0000007E0
07E000000FE0
07F000001FC0
03F800003F80
01FC00007F00
00FE0000FE00
007F8003FC00
003FF83FF800
000FFFFFE000
0003FFFF8000
00007FFC0000
ENDCHAR
STARTCHAR 2014
ENCODING 8212
SWIDTH 765 0
DWIDTH 51 0
BBX 47 73 2 -1
BITMAP
1C0000000000
3E0000000000
3F0000000000
1F8000000000
0FC000000000
07E000000000
01F000000000
00F800000000
003C07C00000
000E07E00000
00070FE00000
00019FF00000
00001EF80000
00003C780000
0000783C0000
0000701E0000
0000E00E0000
0001C0070000
000180018000
000000000000
000000000000
000000000000
000000000000
00003FFC0000
0001FFFF8000
0007FFFFE000
001FFEFFF000
003FC007FC00
00FF0001FE00
01FC00007F00
03F800003F80
03F000001FC0
07E000000FC0
0FE000000FE0
0FC0000007F0
1FC0000003F0
1F80000003F8
3F80000003F8
3F00000001F8
7F00000001FC
7F00000001FC
7F00000001FC
7F00000000FC
7E00000000FE
7E00000000FE
FE00000000FE
FE00000000FE
FE00000000FE
FE00000000FE
FE00000000FE
FE00000000FE
FE00000000FE
7E00000000FE
7E00000000FC
7F00000000FC
7F00000001FC
7F00000001FC
3F00000001F8
3F80000003F8
3F80000003F8
1FC0000003F0
1FC0000007F0
0FE0000007E0
07E000000FE0
07F000001FC0
03F800003F80
01FC00007F00
00FE0000FE00
007F8003FC00
003FF83FF800
000FFFFFE000
0003FFFF8000
00007FFC0000
ENDCHAR
STARTCHAR 2018
ENCODING 8216
SWIDTH 270 0
DWIDTH 18 0
BBX 9 17 6 32
BITMAP
0700
0E00
0C00
1800
3800
3000
6000
6000
6000
E000
FE00
FF00
FF00
FF80
7F00
7F00
3E00
ENDCHAR
STARTCHAR 2019
ENCODING 8217
SWIDTH 270 0
DWIDTH 18 0
BBX 8 17 4 32
BITMAP
7C
FE
FE
FF
FF
FF
7F
07
07
06
06
0E
0C
18
38
70
60
ENDCHAR
STARTCHAR 201A
ENCODING 8218
SWIDTH 645 0
DWIDTH 43 0
BBX 45 63 -1 0
BITMAP
000000010000
000000030000
00007F030000
0000FFFE0000
0001FFFE0000
0001FFFC0000
000301F80000
000300000000
000200000000
000000000000
000000000000
000000000000
000000000000
000000000000
000003000000
000007800000
00000F800000
00001FC00000
00001FE00000
00003FE00000
00003FF00000
00007FF00000
00007FF80000
0000F9F80000
0000F9FC0000
0001F0FC0000
0001F0FE0000
0001E07E0000
0003E07F0000
0003C03F0000
0007C03F0000
0007801F8000
000F801F8000
000F001FC000
000F000FC000
001F000FE000
001E0007E000
003E0007E000
003C0007F000
003C0003F000
007C0003F000
00780003F800
00FFFFFFF800
00FFFFFFFC00
00FFFFFFFC00
01FFFFFFFC00
01F00000FE00
01E000007E00
03E000007E00
03E000007F00
03C000003F00
07C000003F00
07C000003F00
078000001F80
0F8000001F80
0F8000001F80
1F8000000FC0
1F8000000FC0
1F8000000FE0
3FC000003FF0
7FF000007FF8
FFF00000FFF8
7FF000007FF8
ENDCHAR
STARTCHAR 201C
ENCODING 8220
SWIDTH 615 0
DWIDTH 41 0
BBX 39 72 1 0
BITMAP
7000000000
F800000000
FC00000000
FE00000000
7F00000000
1F80000000
0FC0000000
03E0000000
00F03E0000
00783F0000
001C7F0000
000EFF8000
0000FFC000
0001E3C000
0003C1E000
000380F000
0007007000
000E003800
000C000C00
0000000000
0000000000
0000000000
0000000000
0000000000
7FFFFFFFF0
7FFFFFFFF8
3FFFFFFFF8
1FFFEFFFF8
07F00003F8
07E00000F8
07E0000038
07E0000018
07E0000000
07E0000000
07E0000000
07E0000000
07E0000000
07E0000000
07E0000000
07E0000000
07E0000000
07E0000000
07E0000700
07E0000F00
07FFFFFF00
07FFFFFF00
07FFFFFF00
07FFFFFF00
07E0000700
07E0000200
07E0000000
07E0000000
07E0000000
07E0000000
07E0000000
07E0000000
07E0000000
07E0000000
07E0000000
07E0000000
07E0000000
07E0000000
07E0000000
07E0000006
07E000000E
07E000001E
07E000007E
0FF00003FE
1FFFFFFFFE
3FFFFFFFFE
7FFFFFFFFC
3FFFFFFFF8
ENDCHAR
STARTCHAR 201D
ENCODING 8221
SWIDTH 615 0
DWIDTH 41 0
BBX 38 75 2 0
BITMAP
0000000FC0
0000001860
0000003830
0000003830
0000000030
0000000030
0000000030
0000000070
00000000E0
00000001C0
0000000780
00007C0600
00007E0400
0000FE0400
0001FF0400
0001FF8000
0003C78000
000783C000
000701E000
000E00E000
001C007000
0018001800
0000000000
0000000000
0000000000
0000000000
0000000000
FFFFFFFFE0
FFFFFFFFF0
7FFFFFFFF0
3FFFDFFFF0
0FE00007F0
0FC00001F0
0FC0000070
0FC0000030
0FC0000000
0FC0000000
0FC0000000
0FC0000000
0FC0000000
0FC0000000
0FC0000000
0FC0000000
0FC0000000
0FC0000000
0FC0000E00
0FC0001E00
0FFFFFFE00
0FFFFFFE00
0FFFFFFE00
0FFFFFFE00
0FC0000E00
0FC0000400
0FC0000000
0FC0000000
0FC0000000
0FC0000000
0FC0000000
0FC0000000
0FC0000000
0FC0000000
0FC0000000
0FC0000000
0FC0000000
0FC0000000
0FC0000000
0FC000000C
0FC000001C
0FC000003C
0FC00000FC
1FE00007FC
3FFFFFFFFC
7FFFFFFFFC
FFFFFFFFF8
7FFFFFFFF0
ENDCHAR
STARTCHAR 201E
ENCODING 8222
SWIDTH 645 0
DWIDTH 43 0
BBX 45 72 -1 0
BITMAP
3C0000000000
3E0000000000
3F0000000000
3F8000000000
1FC000000000
07E000000000
01F000000000
00F800000000
003C07800000
001E0FC00000
00071FE00000
00001FE00000
00003FF00000
00007CF80000
000078780000
0000E01C0000
0001C00E0000
000180060000
000300030000
000000000000
000000000000
000000000000
000000000000
000003000000
000007800000
00000F800000
00001FC00000
00001FE00000
00003FE00000
00003FF00000
00007FF00000
00007FF80000
0000F9F80000
0000F9FC0000
0001F0FC0000
0001F0FE0000
0001E07E0000
0003E07F0000
0003C03F0000
0007C03F0000
0007801F8000
000F801F8000
000F001FC000
000F000FC000
001F000FE000
001E0007E000
003E0007E000
003C0007F000
003C0003F000
007C0003F000
00780003F800
00FFFFFFF800
00FFFFFFFC00
00FFFFFFFC00
01FFFFFFFC00
01F00000FE00
01E000007E00
03E000007E00
03E000007F00
03C000003F00
07C000003F00
07C000003F00
078000001F80
0F8000001F80
0F8000001F80
1F8000000FC0
1F8000000FC0
1F8000000FE0
3FC000003FF0
7FF000007FF8
FFF00000FFF8
7FF000007FF8
ENDCHAR
STARTCHAR 2020
ENCODING 8224
SWIDTH 765 0
DWIDTH 51 0
BBX 47 61 2 -12
BITMAP
00003FFC0000
0001FFFF8000
0007FFFFE000
001FFEFFF000
003FC007FC00
00FF0001FE00
01FC00007F00
03F800003F80
03F000001FC0
07E000000FC0
0FE000000FE0
0FC0000007F0
1FC0000003F0
1F80000003F8
3F80000003F8
3F00000001F8
7F00000001FC
7F00000001FC
7F00000001FC
7F00000000FC
7E00000000FE
7E00000000FE
FE00000000FE
FE00000000FE
FE00000000FE
FE00000000FE
FE00000000FE
FE00000000FE
FE00000000FE
7E00000000FE
7E00000000FC
7F00000000FC
7F00000001FC
7F00000001FC
3F00000001F8
3F80000003F8
3F80000003F8
1FC0000003F0
1FC0000007F0
0FE0000007E0
07E000000FE0
07F000001FC0
03F800003F80
01FC00007F00
00FE0000FE00
007F8003FC00
003FF83FF800
000FFFFFE000
0003FFFF8000
00007FFC0000
000000000000
000000000000
000000000000
000000000000
000007C00000
000007E00000
00000FE00000
00000FF00000
000007E00000
000007E00000
000001800000
ENDCHAR
STARTCHAR 2021
ENCODING 8225
SWIDTH 765 0
DWIDTH 51 0
BBX 47 74 2 -1
BITMAP
000000018000
00000E018000
00007FE30000
0000FFFF0000
0000FFFE0000
0001C7FC0000
000180700000
000100000000
000000000000
000007C00000
000007E00000
00000FE00000
00001FF00000
00001EF80000
00003C780000
0000783C0000
0000701E0000
0000E00E0000
0001C0070000
000180018000
000000000000
000000000000
000000000000
000000000000
00003FFC0000
0001FFFF8000
0007FFFFE000
001FFEFFF000
003FC007FC00
00FF0001FE00
01FC00007F00
03F800003F80
03F000001FC0
07E000000FC0
0FE000000FE0
0FC0000007F0
1FC0000003F0
1F80000003F8
3F80000003F8
3F00000001F8
7F00000001FC
7F00000001FC
7F00000001FC
7F00000000FC
7E00000000FE
7E00000000FE
FE00000000FE
FE00000000FE
FE00000000FE
FE00000000FE
FE00000000FE
FE00000000FE
FE00000000FE
7E00000000FE
7E00000000FC
7F00000000FC
7F00000001FC
7F00000001FC
3F00000001F8
3F80000003F8
3F80000003F8
1FC0000003F0
1FC0000007F0
0FE0000007E0
07E000000FE0
07F000001FC0
03F800003F80
01FC00007F00
00FE0000FE00
007F8003FC00
003FF83FF800
000FFFFFE000
0003FFFF8000
00007FFC0000
ENDCHAR
STARTCHAR 2022
ENCODING 8226
SWIDTH 615 0
DWIDTH 41 0
BBX 38 73 2 0
BITMAP
0000001800
0000401800
0003FC3800
0007FFF000
000FFFF000
001EFFE000
00180F8000
0018000000
0000000000
00007C0000
00007E0000
0000FE0000
0001FF0000
0001FF8000
0003C78000
000783C000
000701E000
000E00E000
001C007000
0018001800
0000000000
0000000000
0000000000
0000000000
0000000000
FFFFFFFFE0
FFFFFFFFF0
7FFFFFFFF0
3FFFDFFFF0
0FE00007F0
0FC00001F0
0FC0000070
0FC0000030
0FC0000000
0FC0000000
0FC0000000
0FC0000000
0FC0000000
0FC0000000
0FC0000000
0FC0000000
0FC0000000
0FC0000000
0FC0000E00
0FC0001E00
0FFFFFFE00
0FFFFFFE00
0FFFFFFE00
0FFFFFFE00
0FC0000E00
0FC0000400
0FC0000000
0FC0000000
0FC0000000
0FC0000000
0FC0000000
0FC0000000
0FC0000000
0FC0000000
0FC0000000
0FC0000000
0FC0000000
0FC0000000
0FC0000000
0FC000000C
0FC000001C
0FC000003C
0FC00000FC
1FE00007FC
3FFFFFFFFC
7FFFFFFFFC
FFFFFFFFF8
7FFFFFFFF0
ENDCHAR
STARTCHAR 2026
ENCODING 8230
SWIDTH 645 0
DWIDTH 43 0
BBX 45 75 -1 0
BITMAP
00000003F800
000000060C00
000000060C00
000000060600
000000000600
000000000600
000000000C00
000000000C00
000000001C00
000000007800
00000000E000
000007808000
00000FC08000
00001FE08000
00001FE00000
00003FF00000
00007CF80000
000078780000
0000E01C0000
0001C00E0000
000180060000
000300030000
000000000000
000000000000
000000000000
000000000000
000003000000
000007800000
00000F800000
00001FC00000
00001FE00000
00003FE00000
00003FF00000
00007FF00000
00007FF80000
0000F9F80000
0000F9FC0000
0001F0FC0000
0001F0FE0000
0001E07E0000
0003E07F0000
0003C03F0000
0007C03F0000
0007801F8000
000F801F8000
000F001FC000
000F000FC000
001F000FE000
001E0007E000
003E0007E000
003C0007F000
003C0003F000
007C0003F000
00780003F800
00FFFFFFF800
00FFFFFFFC00
00FFFFFFFC00
01FFFFFFFC00
01F00000FE00
01E000007E00
03E000007E00
03E000007F00
03C000003F00
07C000003F00
07C000003F00
078000001F80
0F8000001F80
0F8000001F80
1F8000000FC0
1F8000000FC0
1F8000000FE0
3FC000003FF0
7FF000007FF8
FFF00000FFF8
7FF000007FF8
ENDCHAR
STARTCHAR 2030
ENCODING 8240
SWIDTH 615 0
DWIDTH 41 0
BBX 41 73 2 0
BITMAP
000000000200
000000000F80
000000001F80
000000003F80
000000007F00
00000000FE00
00000001F800
00000003F000
00000007C000
00007C070000
00007E0E0000
0000FE180000
0001FF200000
0001FF800000
0003C7800000
000783C00000
000701E00000
000E00E00000
001C00700000
001800180000
000000000000
000000000000
000000000000
000000000000
000000000000
FFFFFFFFE000
FFFFFFFFF000
7FFFFFFFF000
3FFFDFFFF000
0FE00007F000
0FC00001F000
0FC000007000
0FC000003000
0FC000000000
0FC000000000
0FC000000000
0FC000000000
0FC000000000
0FC000000000
0FC000000000
0FC000000000
0FC000000000
0FC000000000
0FC0000E0000
0FC0001E0000
0FFFFFFE0000
0FFFFFFE0000
0FFFFFFE0000
0FFFFFFE0000
0FC0000E0000
0FC000040000
0FC000000000
0FC000000000
0FC000000000
0FC000000000
0FC000000000
0FC000000000
0FC000000000
0FC000000000
0FC000000000
0FC000000000
0FC000000000
0FC000000000
0FC000000000
0FC000000C00
0FC000001C00
0FC000003C00
0FC00000FC00
1FE00007FC00
3FFFFFFFFC00
7FFFFFFFFC00
FFFFFFFFF800
7FFFFFFFF000
ENDCHAR
STARTCHAR 2039
ENCODING 8249
SWIDTH 615 0
DWIDTH 41 0
BBX 38 75 2 0
BITMAP
0000000FC0
0000001860
0000003830
0000003830
0000000030
0000000030
0000000030
0000000070
00000000E0
00000001C0
0000000780
00007C0600
00007E0400
0000FE0400
0001FF0400
0001FF8000
0003C78000
000783C000
000701E000
000E00E000
001C007000
0018001800
0000000000
0000000000
0000000000
0000000000
0000000000
FFFFFFFFE0
FFFFFFFFF0
7FFFFFFFF0
3FFFDFFFF0
0FE00007F0
0FC00001F0
0FC0000070
0FC0000030
0FC0000000
0FC0000000
0FC0000000
0FC0000000
0FC0000000
0FC0000000
0FC0000000
0FC0000000
0FC0000000
0FC0000000
0FC0000E00
0FC0001E00
0FFFFFFE00
0FFFFFFE00
0FFFFFFE00
0FFFFFFE00
0FC0000E00
0FC0000400
0FC0000000
0FC0000000
0FC0000000
0FC0000000
0FC0000000
0FC0000000
0FC0000000
0FC0000000
0FC0000000
0FC0000000
0FC0000000
0FC0000000
0FC0000000
0FC000000C
0FC000001C
0FC000003C
0FC00000FC
1FE00007FC
3FFFFFFFFC
7FFFFFFFFC
FFFFFFFFF8
7FFFFFFFF0
ENDCHAR
STARTCHAR 203A
ENCODING 8250
SWIDTH 645 0
DWIDTH 43 0
BBX 45 68 -1 0
BITMAP
000003800000
00000CE00000
000018300000
000038300000
000018300000
000000300000
000000300000
000000300000
000000700000
000000E00000
000003C00000
000007000000
000006000000
000006000000
000006000000
000000000000
000000000000
000000000000
000000000000
000000000000
FFFC00007FF8
FFFC00007FF8
FFF800007FF0
3FE000001FE0
0FE000000FC0
0FE000000F80
07E000000F80
07F000001F00
03F000001E00
01F800003E00
01FC00003C00
00FC00007800
00FE00007800
007F0000F000
003F0001E000
003F8001E000
001FC003C000
000FE0078000
000FE00F8000
0007F00F0000
0003F81E0000
0001FC3E0000
0001FC3C0000
0000FE780000
00007FF00000
00003FF00000
00003FE00000
00001FC00000
00001FC00000
00000FC00000
00000FC00000
00000FC00000
00000FC00000
00000FC00000
00000FC00000
00000FC00000
00000FC00000
00000FC00000
00000FC00000
00000FC00000
00000FC00000
00000FC00000
00000FC00000
00001FC00000
00003FF00000
00007FF80000
0000FFFC0000
0000FFF80000
ENDCHAR
STARTCHAR 20A3
ENCODING 8355
SWIDTH 885 0
DWIDTH 59 0
BBX 0 0 0 0
BITMAP
ENDCHAR
STARTCHAR 2122
ENCODING 8482
SWIDTH 765 0
DWIDTH 51 0
BBX 47 74 2 -1
BITMAP
000000018000
00000E018000
00007FE30000
0000FFFF0000
0000FFFE0000
0001C7FC0000
000180700000
000100000000
000000000000
000007C00000
000007E00000
00000FE00000
00001FF00000
00001EF80000
00003C780000
0000783C0000
0000701E0000
0000E00E0000
0001C0070000
000180018000
000000000000
000000000000
000000000000
000000000000
00003FFC0000
0001FFFF8000
0007FFFFE000
001FFEFFF000
003FC007FC00
00FF0001FE00
01FC00007F00
03F800003F80
03F000001FC0
07E000000FC0
0FE000000FE0
0FC0000007F0
1FC0000003F0
1F80000003F8
3F80000003F8
3F00000001F8
7F00000001FC
7F00000001FC
7F00000001FC
7F00000000FC
7E00000000FE
7E00000000FE
FE00000000FE
FE00000000FE
FE00000000FE
FE00000000FE
FE00000000FE
FE00000000FE
FE00000000FE
7E00000000FE
7E00000000FC
7F00000000FC
7F00000001FC
7F00000001FC
3F00000001F8
3F80000003F8
3F80000003F8
1FC0000003F0
1FC0000007F0
0FE0000007E0
07E000000FE0
07F000001FC0
03F800003F80
01FC00007F00
00FE0000FE00
007F8003FC00
003FF83FF800
000FFFFFE000
0003FFFF8000
00007FFC0000
ENDCHAR
STARTCHAR 2202
ENCODING 8706
SWIDTH 495 0
DWIDTH 33 0
BBX 0 0 0 0
BITMAP
ENDCHAR
STARTCHAR 2206
ENCODING 8710
SWIDTH 585 0
DWIDTH 39 0
BBX 0 0 0 0
BITMAP
ENDCHAR
STARTCHAR 220F
ENCODING 8719
SWIDTH 765 0
DWIDTH 51 0
BBX 0 0 0 0
BITMAP
ENDCHAR
STARTCHAR 2211
ENCODING 8721
SWIDTH 690 0
DWIDTH 46 0
BBX 0 0 0 0
BITMAP
ENDCHAR
STARTCHAR 2212
ENCODING 8722
SWIDTH 825 0
DWIDTH 55 0
BBX 0 0 0 0
BITMAP
ENDCHAR
STARTCHAR 2215
ENCODING 8725
SWIDTH 165 0
DWIDTH 11 0
BBX 0 0 0 0
BITMAP
ENDCHAR
STARTCHAR 2219
ENCODING 8729
SWIDTH 270 0
DWIDTH 18 0
BBX 14 68 2 0
BITMAP
07E0
0C30
1818
1C18
0018
0018
0018
0038
0070
00E0
03C0
0300
0200
0200
0200
0000
0000
0000
0000
0000
7FFC
FFFC
7FF8
1FF0
0FE0
0FC0
0FC0
0FC0
0FC0
0FC0
0FC0
0FC0
0FC0
0FC0
0FC0
0FC0
0FC0
0FC0
0FC0
0FC0
0FC0
0FC0
0FC0
0FC0
0FC0
0FC0
0FC0
0FC0
0FC0
0FC0
0FC0
0FC0
0FC0
0FC0
0FC0
0FC0
0FC0
0FC0
0FC0
0FC0
0FC0
0FC0
0FC0
0FE0
3FF0
7FF8
FFFC
7FFC
ENDCHAR
STARTCHAR 221A
ENCODING 8730
SWIDTH 615 0
DWIDTH 41 0
BBX 0 0 0 0
BITMAP
ENDCHAR
STARTCHAR 221E
ENCODING 8734
SWIDTH 825 0
DWIDTH 55 0
BBX 0 0 0 0
BITMAP
ENDCHAR
STARTCHAR 222B
ENCODING 8747
SWIDTH 495 0
DWIDTH 33 0
BBX 0 0 0 0
BITMAP
ENDCHAR
STARTCHAR 2248
ENCODING 8776
SWIDTH 825 0
DWIDTH 55 0
BBX 0 0 0 0
BITMAP
ENDCHAR
STARTCHAR 2260
ENCODING 8800
SWIDTH 825 0
DWIDTH 55 0
BBX 0 0 0 0
BITMAP
ENDCHAR
STARTCHAR 2264
ENCODING 8804
SWIDTH 825 0
DWIDTH 55 0
BBX 0 0 0 0
BITMAP
ENDCHAR
STARTCHAR 2265
ENCODING 8805
SWIDTH 825 0
DWIDTH 55 0
BBX 0 0 0 0
BITMAP
ENDCHAR
STARTCHAR 25CA
ENCODING 9674
SWIDTH 480 0
DWIDTH 32 0
BBX 0 0 0 0
BITMAP
ENDCHAR
STARTCHAR F000
ENCODING 61440
SWIDTH 780 0
DWIDTH 52 0
BBX 0 0 0 0
BITMAP
ENDCHAR
STARTCHAR F001
ENCODING 61441
SWIDTH 510 0
DWIDTH 34 0
BBX 0 0 0 0
BITMAP
ENDCHAR
STARTCHAR F002
ENCODING 61442
SWIDTH 510 0
DWIDTH 34 0
BBX 0 0 0 0
BITMAP
ENDCHAR
ENDFONT
